<svg width="1073" height="536" viewBox="0 0 1073 536" fill="none" xmlns="http://www.w3.org/2000/svg">
<g clip-path="url(#clip0_136_253)">
<path d="M1073 0H0V536H1073V0Z" fill="#C8E9F9"/>
<path d="M1073 0H0V536H1073V0Z" fill="url(#paint0_linear_136_253)"/>
<path d="M0 536V0H1073L0 536Z" fill="url(#paint1_linear_136_253)" fill-opacity="0.5"/>
<path d="M1073 536V0H0L1073 536Z" fill="url(#paint2_linear_136_253)" fill-opacity="0.5"/>
<g clip-path="url(#clip1_136_253)">
<path d="M1073 0H0V536H1073V0Z" fill="#C8E9F9"/>
<path d="M1073 0H0V536H1073V0Z" fill="url(#paint3_linear_136_253)"/>
<path d="M0 536V0H1073L0 536Z" fill="url(#paint4_linear_136_253)" fill-opacity="0.5"/>
<path d="M1073 536V0H0L1073 536Z" fill="url(#paint5_linear_136_253)" fill-opacity="0.5"/>
</g>
</g>
<defs>
<linearGradient id="paint0_linear_136_253" x1="0" y1="0" x2="0" y2="536" gradientUnits="userSpaceOnUse">
<stop stop-color="#C8E9F9"/>
<stop offset="1" stop-color="#AEC3EB"/>
</linearGradient>
<linearGradient id="paint1_linear_136_253" x1="0" y1="0" x2="0" y2="536" gradientUnits="userSpaceOnUse">
<stop stop-color="#C8E9F9" stop-opacity="0"/>
<stop offset="1" stop-color="#C8E9F9"/>
</linearGradient>
<linearGradient id="paint2_linear_136_253" x1="589.968" y1="67.1557" x2="-696.23" y2="871.611" gradientUnits="userSpaceOnUse">
<stop stop-color="#C8E9F9" stop-opacity="0"/>
<stop offset="1" stop-color="#C8E9F9"/>
</linearGradient>
<linearGradient id="paint3_linear_136_253" x1="0" y1="0" x2="0" y2="536" gradientUnits="userSpaceOnUse">
<stop stop-color="#C8E9F9"/>
<stop offset="1" stop-color="#B1CEDD"/>
</linearGradient>
<linearGradient id="paint4_linear_136_253" x1="0" y1="0" x2="0" y2="536" gradientUnits="userSpaceOnUse">
<stop stop-color="#C8E9F9" stop-opacity="0"/>
<stop offset="1" stop-color="#C8E9F9"/>
</linearGradient>
<linearGradient id="paint5_linear_136_253" x1="589.968" y1="67.1557" x2="-696.23" y2="871.611" gradientUnits="userSpaceOnUse">
<stop stop-color="#C8E9F9" stop-opacity="0"/>
<stop offset="1" stop-color="#C8E9F9"/>
</linearGradient>
<clipPath id="clip0_136_253">
<rect width="1073" height="536" rx="10" fill="white"/>
</clipPath>
<clipPath id="clip1_136_253">
<rect width="1073" height="536" rx="10" fill="white"/>
</clipPath>
</defs>
</svg>
