<svg width="1294" height="495" viewBox="0 0 1294 495" fill="none" xmlns="http://www.w3.org/2000/svg">
<path d="M1097.88 98.9919C1097.88 85.8647 1104.73 73.2753 1116.93 63.993C1129.13 54.7107 1145.67 49.4959 1162.92 49.4959L1097.88 98.9919C1115.13 98.9919 1131.67 93.7772 1143.87 84.4949C1156.07 75.2126 1162.92 62.6231 1162.92 49.4959" fill="#BEEAFB"/>
<path d="M902.725 198.019C902.725 171.76 916.433 146.577 940.834 128.009C965.234 109.441 998.328 99.0095 1032.84 99.0095L902.725 198.019C937.232 198.019 970.327 187.588 994.727 169.02C1019.13 150.452 1032.84 125.268 1032.84 99.0095" fill="#C7EDFB"/>
<path d="M252.197 198.001C269.284 198.001 286.203 200.562 301.988 205.538C317.774 210.514 332.117 217.807 344.199 227.001C356.281 236.195 365.865 247.109 372.403 259.122C378.942 271.134 382.307 284.009 382.307 297.011L252.197 198.001C252.197 224.26 265.905 249.444 290.306 268.012C314.706 286.58 347.8 297.011 382.307 297.011" fill="#EDF8FD"/>
<path d="M642.505 297.011C642.505 270.752 656.213 245.569 680.613 227.001C705.014 208.433 738.108 198.001 772.615 198.001L642.505 297.011C659.591 297.011 676.51 294.45 692.296 289.474C708.082 284.499 722.425 277.206 734.507 268.012C746.589 258.818 756.172 247.903 762.711 235.891C769.25 223.878 772.615 211.004 772.615 198.001" fill="#F7FCFE"/>
<path d="M707.571 297.011C724.822 297.011 741.366 302.226 753.564 311.508C765.762 320.79 772.615 333.38 772.615 346.507L707.571 297.011C707.571 310.138 714.424 322.728 726.622 332.01C738.82 341.292 755.364 346.507 772.615 346.507" fill="#DAF0FB"/>
<path d="M642.505 396.003C642.505 382.876 649.358 370.286 661.556 361.004C673.754 351.722 690.298 346.507 707.548 346.507L642.505 396.003C651.047 396.003 659.505 394.723 667.396 392.235C675.287 389.748 682.458 386.102 688.498 381.506C694.537 376.91 699.329 371.453 702.597 365.448C705.866 359.443 707.548 353.007 707.548 346.507" fill="#FEFFFF"/>
<path d="M707.571 346.507C724.822 346.507 741.366 351.722 753.564 361.004C765.762 370.286 772.615 382.876 772.615 396.003L707.571 346.507C707.571 353.007 709.254 359.443 712.522 365.448C715.791 371.453 720.582 376.91 726.622 381.506C732.662 386.102 739.832 389.748 747.724 392.235C755.615 394.723 764.073 396.003 772.615 396.003" fill="#F0F9FD"/>
<path d="M-8 396.02C26.5074 396.02 59.6014 406.452 84.0018 425.02C108.402 443.587 122.11 468.771 122.11 495.03L-8 396.02C-8 422.279 5.708 447.463 30.1084 466.031C54.5088 484.599 87.6028 495.03 122.11 495.03" fill="#D0ECFA"/>
<path d="M252.197 495.03C252.197 468.771 265.905 443.587 290.306 425.02C314.706 406.452 347.8 396.02 382.307 396.02L252.197 495.03C269.284 495.03 286.203 492.469 301.988 487.493C317.774 482.518 332.117 475.225 344.199 466.031C356.281 456.837 365.865 445.922 372.403 433.91C378.942 421.897 382.307 409.022 382.307 396.02" fill="#C4ECFB"/>
<path d="M772.615 445.516C789.865 445.516 806.409 450.731 818.607 460.013C830.805 469.296 837.658 481.885 837.658 495.012L772.615 445.516C772.615 458.644 779.468 471.233 791.666 480.515C803.864 489.798 820.408 495.012 837.658 495.012" fill="#E1F3FC"/>
</svg>
