<svg width="44" height="47" viewBox="0 0 44 47" fill="none" xmlns="http://www.w3.org/2000/svg">
<path d="M22 46.0488C21.853 46.0488 21.706 46.0168 21.57 45.9518L0.57 35.9518C0.222 35.7858 0 35.4348 0 35.0488V4.04882C0 3.70582 0.176 3.38682 0.466 3.20282C0.755 3.01982 1.12 2.99882 1.43 3.14582L22 12.9408L42.57 3.14482C42.88 2.99882 43.243 3.01882 43.533 3.20282C43.824 3.38682 44 3.70582 44 4.04882V35.0488C44 35.4348 43.778 35.7858 43.43 35.9518L22.43 45.9518C22.294 46.0168 22.147 46.0488 22 46.0488ZM2 34.4168L22 43.9408L42 34.4168V5.63282L22.43 14.9518C22.159 15.0808 21.842 15.0808 21.571 14.9518L2 5.63282V34.4168Z" fill="#004661" fill-opacity="0.59"/>
<path d="M21.9998 10.2037L4.56681 1.90273C4.06781 1.66473 3.85681 1.06773 4.09381 0.569733C4.33181 0.0707332 4.92781 -0.138267 5.42681 0.0957332L21.9998 7.98873L38.5728 0.0957332C39.0728 -0.138267 39.6678 0.0707332 39.9058 0.569733C40.1428 1.06773 39.9318 1.66473 39.4328 1.90273L21.9998 10.2037Z" fill="#004661" fill-opacity="0.59"/>
<path d="M23 14.0488H21V45.0488H23V14.0488Z" fill="#004661" fill-opacity="0.59"/>
</svg>
