<svg width="357" height="408" viewBox="0 0 357 408" fill="none" xmlns="http://www.w3.org/2000/svg">
<g id="aboutIll" clip-path="url(#clip0_185_40)">
<path id="Vector" d="M171.322 382.754L170.867 372.518C170.819 372.493 170.772 372.468 170.725 372.443C165.849 369.883 160.262 374.517 161.819 379.801C163.284 384.772 164.268 390.132 166.95 394.484C168.535 397.011 170.668 399.149 173.19 400.74C175.713 402.331 178.561 403.333 181.524 403.673L187.718 407.467C188.568 402.726 188.38 397.858 187.169 393.196C185.957 388.535 183.75 384.191 180.699 380.466C178.966 378.393 176.98 376.546 174.787 374.969C173.303 378.883 171.322 382.754 171.322 382.754Z" fill="#F2F2F2"/>
<path id="tree" d="M115.866 278.874C103.942 266.569 86.6607 259.512 68.4549 259.512L67.7526 259.513C55.761 259.518 43.9832 256.336 33.6241 250.291L32.5461 249.663L33.4143 248.768C38.1147 243.902 42.0395 238.342 45.0513 232.283C42.9123 234.278 40.361 235.779 37.5782 236.678C34.7954 237.578 31.8489 237.854 28.9475 237.488C25.8842 237.122 22.9435 236.068 20.3457 234.403C17.748 232.738 15.5607 230.506 13.9481 227.875C7.58494 217.544 0 202.886 0 191.72C0.00990518 182.281 1.98501 172.948 5.79942 164.316C9.61383 155.683 15.1839 147.941 22.1545 141.581C26.5675 137.6 30.0924 132.732 32.4993 127.296C34.9062 121.86 36.1411 115.978 36.1235 110.032L36.12 109.186C36.1188 101.359 37.0748 93.5602 38.9666 85.9648L39.1587 85.1978L39.9474 85.2254C45.0332 85.3986 50.1218 84.972 55.1079 83.9546C50.4309 83.3805 45.8555 82.1629 41.5115 80.3362L40.6631 79.9927L40.951 79.1228C60.7995 66.8261 105.603 73.194 131.609 13.6601C152.696 -34.6138 227.097 56.5129 227.097 109.186C227.097 114.561 221.781 121.664 225.761 125.216C268.78 163.618 239.097 188.277 229.739 213.09C227.518 218.977 232.333 225.44 232.333 231.81C232.333 232.89 232.305 234.006 232.251 235.125L232.168 236.846L230.734 235.891C227.896 234.031 225.266 231.873 222.888 229.452C225.355 235.133 226.518 241.294 226.29 247.484C226.063 253.674 224.452 259.733 221.575 265.218C217.066 273.732 212.705 279.827 208.611 283.333C195.498 294.561 178.594 300.353 161.354 299.524C144.115 298.696 127.843 291.309 115.866 278.874Z" fill="#E6E6E6"/>
<path id="Vector_2" d="M187.889 406.962C188.183 406.962 188.466 406.856 188.687 406.664C188.908 406.471 189.053 406.205 189.094 405.915C189.146 405.551 194.217 368.96 189.663 320.329C185.457 275.418 171.951 210.729 131.493 157.601C131.396 157.473 131.275 157.366 131.137 157.285C130.999 157.205 130.846 157.152 130.687 157.13C130.528 157.109 130.367 157.119 130.212 157.16C130.057 157.201 129.912 157.272 129.785 157.369C129.657 157.466 129.55 157.587 129.47 157.726C129.389 157.864 129.337 158.017 129.316 158.176C129.294 158.335 129.304 158.496 129.345 158.651C129.387 158.806 129.458 158.952 129.555 159.079C169.664 211.748 183.06 275.962 187.236 320.557C191.764 368.905 186.733 405.21 186.682 405.571C186.657 405.744 186.67 405.921 186.72 406.088C186.769 406.256 186.854 406.411 186.969 406.543C187.083 406.674 187.225 406.78 187.383 406.853C187.542 406.925 187.715 406.962 187.889 406.962Z" fill="#3F3D56"/>
<path id="Vector_3" d="M154.873 232.54C155.13 232.54 155.381 232.459 155.59 232.308C155.798 232.157 155.953 231.943 156.033 231.698C156.112 231.453 156.112 231.19 156.033 230.945C155.953 230.7 155.798 230.486 155.59 230.335C155.443 230.228 140.643 219.557 118.516 211.451C98.0613 203.958 66.957 197.165 34.9357 207.362C34.783 207.411 34.6413 207.489 34.5188 207.592C34.3963 207.695 34.2953 207.821 34.2216 207.964C34.1479 208.106 34.103 208.261 34.0894 208.421C34.0758 208.581 34.0938 208.741 34.1423 208.894C34.1909 209.047 34.2691 209.188 34.3724 209.311C34.4757 209.433 34.6022 209.534 34.7445 209.608C34.8868 209.681 35.0422 209.726 35.2019 209.739C35.3615 209.753 35.5221 209.734 35.6747 209.685C67.0399 199.698 97.5803 206.378 117.678 213.741C139.489 221.731 154.013 232.202 154.158 232.307C154.365 232.459 154.616 232.54 154.873 232.54Z" fill="#3F3D56"/>
<path id="Vector_4" d="M210.64 93.563C210.659 93.3061 210.596 93.0499 210.46 92.8311C210.324 92.6123 210.123 92.4422 209.885 92.345C209.646 92.2479 209.383 92.2288 209.133 92.2905C208.883 92.3521 208.659 92.4914 208.493 92.6882C208.376 92.8271 196.674 106.83 187 128.328C178.058 148.202 169.046 178.755 176.905 211.446C176.981 211.76 177.178 212.032 177.453 212.201C177.729 212.37 178.06 212.422 178.375 212.346C178.689 212.271 178.96 212.073 179.129 211.798C179.297 211.522 179.35 211.19 179.274 210.876C171.577 178.854 180.436 148.856 189.222 129.329C198.758 108.138 210.242 94.3964 210.356 94.2601C210.522 94.0636 210.622 93.8195 210.64 93.563Z" fill="#3F3D56"/>
<path id="Vector_5" d="M208.991 156.428C210.019 164.728 215.767 171.571 224.124 171.571C228.138 171.571 231.987 169.975 234.825 167.136C237.663 164.296 239.258 160.444 239.258 156.428C239.258 148.066 232.446 142.06 224.124 141.286C215.294 140.466 207.671 145.773 208.991 156.428Z" fill="#2F2E41"/>
<path id="Vector_6" d="M231.133 400.293L236.896 400.293L239.638 378.051L231.132 378.052L231.133 400.293Z" fill="#FFB6B6"/>
<path id="Vector_7" d="M230.931 406.308L248.653 406.308V406.083C248.652 404.253 247.926 402.498 246.632 401.203C245.339 399.909 243.584 399.182 241.755 399.182L238.517 396.724L232.478 399.182L230.931 399.182L230.931 406.308Z" fill="#2F2E41"/>
<path id="Vector_8" d="M208.434 400.293L214.197 400.293L216.938 378.051L208.433 378.052L208.434 400.293Z" fill="#FFB6B6"/>
<path id="Vector_9" d="M208.231 406.308L225.953 406.308V406.083C225.953 404.253 225.226 402.498 223.932 401.203C222.639 399.909 220.884 399.182 219.055 399.182L215.818 396.724L209.778 399.182L208.231 399.182L208.231 406.308Z" fill="#2F2E41"/>
<path id="Vector_10" d="M250.965 260.99L255.039 274.968L250.24 334.165C250.24 334.165 252.711 337.866 250.965 337.866C249.219 337.866 246.98 338.687 248.39 340.897C249.801 343.107 244.98 351.043 244.98 351.043L238.16 393.193L229.471 393.065C229.471 393.065 225.053 390.602 227.532 388.112C230.011 385.622 231.757 385.622 229.429 383.292C227.101 380.963 227.101 381.664 227.101 379.858C227.101 378.051 224.769 355.97 230.3 347.501L228.633 312.968L224.708 346.84L216.624 392.028L208.253 391.959C208.253 391.959 204.387 388.23 204.394 385.47C204.401 382.71 206.783 382.481 205.01 380.848C203.237 379.216 203.237 354.136 208.476 340.195C208.476 340.195 211.439 332.407 208.469 329.738C205.499 327.069 208.465 324.015 208.465 324.015C208.465 324.015 213.169 322.313 208.461 317.411C203.753 312.509 208.436 277.838 208.436 277.838C208.436 277.838 203.289 263.843 208.501 258.34C213.714 252.837 250.965 260.99 250.965 260.99Z" fill="#2F2E41"/>
<path id="Vector_11" d="M178.399 285.072L185.668 267.494L191.396 270.678L187.937 288.559C188.283 289.692 188.307 290.899 188.005 292.045C187.704 293.19 187.089 294.229 186.229 295.044C185.37 295.859 184.301 296.418 183.141 296.658C181.982 296.898 180.779 296.81 179.667 296.404C178.554 295.997 177.578 295.288 176.846 294.357C176.115 293.425 175.658 292.308 175.526 291.131C175.394 289.953 175.593 288.763 176.101 287.692C176.608 286.622 177.404 285.715 178.399 285.072Z" fill="#FFB6B6"/>
<path id="Vector_12" d="M300.381 146.073L289.32 161.545L284.462 157.146L291.88 140.514C291.8 139.332 292.05 138.151 292.603 137.104C293.156 136.056 293.99 135.184 295.012 134.585C296.033 133.986 297.201 133.684 298.385 133.713C299.569 133.741 300.721 134.1 301.712 134.748C302.703 135.396 303.494 136.308 303.995 137.381C304.497 138.455 304.689 139.646 304.551 140.823C304.413 141.999 303.949 143.114 303.212 144.042C302.476 144.969 301.495 145.672 300.381 146.073Z" fill="#FFB6B6"/>
<path id="Vector_13" d="M252.063 262.424C259.237 273.558 223.175 287.688 209.338 282.015C206.915 281.022 198.581 277.741 204.278 273.192C209.975 268.643 203.617 268.003 203.467 265.042C203.366 263.063 204.898 258.72 203.3 258.906C201.702 259.092 199.831 256.355 203.312 255.176C206.793 253.998 203.349 252.924 203.38 251.806C203.713 239.601 213.071 220.189 213.071 220.189L196.208 263.319C196.208 263.319 196.333 270.781 194.182 268.501C192.032 266.221 192.188 273.601 192.188 273.601C192.188 273.601 188.991 275.834 190.83 277.076C192.668 278.319 188.85 282.139 188.85 282.139L179.941 281.503C179.941 281.503 180.08 274.88 181.602 273.416C183.123 271.951 182.376 269.647 182.376 269.647C182.376 269.647 186.336 266.139 183.681 263.291C180.266 259.627 192.717 197.754 197.013 198.367C197.621 195.409 199.034 192.676 201.097 190.472C203.159 188.267 205.791 186.676 208.701 185.874L218.324 183.223L220.032 176.44H233.581L235.942 180.897L246.243 185.548C248.183 182.809 249.633 179.922 257.578 178.987C257.578 178.987 278.987 159.496 277.942 157.974C276.897 156.452 280.216 152.889 280.216 152.889C280.216 152.889 283.05 151.961 281.45 151.465C279.851 150.97 282.874 149.824 282.874 149.824C282.874 149.824 285.674 149.088 284.353 148.118C283.033 147.149 288.76 146.512 288.76 146.512L296.191 152.579L294.689 155.127C294.689 155.127 295.605 158.597 294.41 157.33C293.215 156.064 292.99 159.74 292.99 159.74C292.99 159.74 292.38 163.765 288.76 164.978C285.141 166.191 282.397 177.713 282.397 177.713C273.861 188.818 263.788 197.48 251.851 203.183C256.503 208.526 252.063 262.424 252.063 262.424Z" fill="#009AD6"/>
<path id="Vector_14" d="M225.797 172.47C233.209 172.47 239.217 166.458 239.217 159.042C239.217 151.627 233.209 145.615 225.797 145.615C218.386 145.615 212.378 151.627 212.378 159.042C212.378 166.458 218.386 172.47 225.797 172.47Z" fill="#FFB6B6"/>
<path id="Vector_15" d="M211.901 160.505C212.326 163.423 214.812 167.494 214.23 167.494C213.648 167.494 209.509 155.466 213.648 154.681C216.649 154.112 217.32 154.611 220.126 153.394L219.73 153.767C221.587 155.118 224.171 154.285 226.29 153.406C228.414 152.532 230.993 151.699 232.855 153.045C234.025 153.889 234.52 155.357 235.247 156.603C235.975 157.855 237.319 159.038 238.705 158.653C239.816 158.345 240.457 157.098 240.451 155.945C240.445 154.792 238.944 153.695 239.45 152.66C240.947 149.594 239.601 147.505 236.336 146.062C235.148 145.881 233.961 145.697 232.774 145.509C233.396 144.646 234.15 143.888 235.009 143.261C234.646 142.33 234.019 141.526 233.204 140.949C232.256 140.384 231.08 140.424 229.98 140.483C227.524 140.611 225.069 140.739 222.617 140.867C220.801 140.96 218.921 141.071 217.297 141.904C215.272 142.946 213.944 144.979 212.978 147.046C210.813 151.694 211.156 155.433 211.901 160.505Z" fill="#2F2E41"/>
<path id="Vector_16" d="M156.077 407.821L288.056 408C288.24 408 288.416 407.927 288.546 407.797C288.676 407.667 288.749 407.49 288.749 407.306C288.749 407.123 288.676 406.946 288.546 406.816C288.416 406.686 288.24 406.613 288.056 406.613L156.077 406.434C155.894 406.434 155.717 406.507 155.587 406.637C155.457 406.767 155.384 406.944 155.384 407.128C155.384 407.311 155.457 407.488 155.587 407.618C155.717 407.748 155.894 407.821 156.077 407.821Z" fill="#CACACA"/>
<path id="Vector_17" d="M108.344 347.374C108.587 345.701 106.836 344.061 104.432 343.711C102.028 343.361 99.8821 344.434 99.6388 346.107C99.3955 347.78 101.147 349.42 103.551 349.77C105.955 350.12 108.1 349.047 108.344 347.374Z" fill="#E6E6E6"/>
<path id="Vector_18" d="M136.964 344.58C137.207 342.907 135.456 341.266 133.052 340.916C130.648 340.567 128.502 341.639 128.259 343.312C128.016 344.986 129.767 346.626 132.171 346.976C134.575 347.326 136.721 346.253 136.964 344.58Z" fill="#3F3D56"/>
<path id="Vector_19" d="M100.507 324.19C100.75 322.517 98.9987 320.877 96.5949 320.527C94.1911 320.177 92.0452 321.25 91.8019 322.923C91.5586 324.596 93.31 326.236 95.7138 326.586C98.1176 326.936 100.264 325.863 100.507 324.19Z" fill="#FF6584"/>
<path id="Vector_20" d="M88.0705 314.694C88.0821 313.158 87.2258 311.906 86.1579 311.898C85.0899 311.89 84.2148 313.128 84.2031 314.664C84.1915 316.201 85.0479 317.452 86.1158 317.46C87.1838 317.469 88.0589 316.23 88.0705 314.694Z" fill="#E6E6E6"/>
<path id="Vector_21" d="M83.8532 297.006C83.8648 295.47 83.0085 294.218 81.9406 294.21C80.8726 294.202 79.9975 295.44 79.9859 296.976C79.9743 298.512 80.8306 299.764 81.8985 299.772C82.9665 299.78 83.8416 298.542 83.8532 297.006Z" fill="#3F3D56"/>
<path id="Vector_22" d="M116.649 328.136C116.66 326.599 115.804 325.348 114.736 325.34C113.668 325.332 112.793 326.57 112.781 328.106C112.77 329.642 113.626 330.894 114.694 330.902C115.762 330.91 116.637 329.672 116.649 328.136Z" fill="#E6E6E6"/>
<path id="Vector_23" d="M102.818 335.045C102.83 333.509 101.973 332.257 100.905 332.249C99.8374 332.241 98.9623 333.48 98.9507 335.016C98.9391 336.552 99.7954 337.804 100.863 337.812C101.931 337.82 102.806 336.581 102.818 335.045Z" fill="#FF6584"/>
<path id="Vector_24" d="M122.071 347.816C122.082 346.28 121.226 345.028 120.158 345.02C119.09 345.012 118.215 346.25 118.203 347.786C118.192 349.322 119.048 350.574 120.116 350.582C121.184 350.59 122.059 349.352 122.071 347.816Z" fill="#3F3D56"/>
<path id="Vector_25" d="M328.357 257.686C328.601 256.013 326.849 254.373 324.446 254.023C322.042 253.673 319.896 254.746 319.652 256.419C319.409 258.092 321.161 259.732 323.564 260.082C325.968 260.432 328.114 259.359 328.357 257.686Z" fill="#E6E6E6"/>
<path id="Vector_26" d="M356.978 254.892C357.221 253.219 355.469 251.578 353.066 251.229C350.662 250.879 348.516 251.951 348.273 253.624C348.029 255.298 349.781 256.938 352.185 257.288C354.588 257.638 356.734 256.565 356.978 254.892Z" fill="#3F3D56"/>
<path id="Vector_27" d="M320.52 234.502C320.763 232.829 319.011 231.189 316.608 230.839C314.204 230.489 312.058 231.562 311.815 233.235C311.571 234.908 313.323 236.548 315.727 236.898C318.13 237.248 320.276 236.175 320.52 234.502Z" fill="#FF6584"/>
<path id="Vector_28" d="M308.084 225.006C308.096 223.47 307.239 222.218 306.172 222.21C305.104 222.202 304.228 223.44 304.217 224.976C304.205 226.512 305.062 227.764 306.129 227.772C307.197 227.78 308.073 226.542 308.084 225.006Z" fill="#E6E6E6"/>
<path id="Vector_29" d="M303.867 207.318C303.878 205.781 303.022 204.53 301.954 204.522C300.886 204.514 300.011 205.752 300 207.288C299.988 208.824 300.844 210.076 301.912 210.084C302.98 210.092 303.855 208.854 303.867 207.318Z" fill="#3F3D56"/>
<path id="Vector_30" d="M336.662 238.447C336.674 236.911 335.818 235.66 334.75 235.651C333.682 235.643 332.807 236.882 332.795 238.418C332.783 239.954 333.64 241.206 334.708 241.214C335.776 241.222 336.651 239.983 336.662 238.447Z" fill="#E6E6E6"/>
<path id="Vector_31" d="M322.832 245.357C322.843 243.821 321.987 242.569 320.919 242.561C319.851 242.553 318.976 243.792 318.964 245.328C318.953 246.864 319.809 248.115 320.877 248.124C321.945 248.132 322.82 246.893 322.832 245.357Z" fill="#FF6584"/>
<path id="Vector_32" d="M342.084 258.127C342.096 256.591 341.239 255.34 340.172 255.331C339.104 255.323 338.228 256.562 338.217 258.098C338.205 259.634 339.062 260.886 340.129 260.894C341.197 260.902 342.073 259.663 342.084 258.127Z" fill="#3F3D56"/>
<path id="cirlce5" d="M221.843 91.7048C222.086 90.0316 220.335 88.3915 217.931 88.0416C215.527 87.6916 213.381 88.7643 213.138 90.4375C212.895 92.1107 214.646 93.7509 217.05 94.1008C219.454 94.4508 221.6 93.378 221.843 91.7048Z" fill="white"/>
<path id="circle4" d="M250.463 88.9104C250.706 87.2372 248.955 85.5971 246.551 85.2472C244.147 84.8972 242.001 85.9699 241.758 87.6431C241.515 89.3163 243.266 90.9564 245.67 91.3064C248.074 91.6563 250.22 90.5836 250.463 88.9104Z" fill="#3F3D56"/>
<path id="circle3" d="M214.006 68.5209C214.249 66.8477 212.498 65.2076 210.094 64.8576C207.69 64.5077 205.544 65.5804 205.301 67.2536C205.058 68.9268 206.809 70.5669 209.213 70.9169C211.617 71.2668 213.763 70.1941 214.006 68.5209Z" fill="#FF6584"/>
<path id="circle2" d="M201.57 59.0244C201.581 57.4884 200.725 56.2366 199.657 56.2285C198.589 56.2204 197.714 57.4591 197.702 58.9952C197.691 60.5313 198.547 61.783 199.615 61.7911C200.683 61.7992 201.558 60.5605 201.57 59.0244Z" fill="#E6E6E6"/>
<path id="circle1" d="M197.352 41.3363C197.364 39.8003 196.508 38.5485 195.44 38.5404C194.372 38.5323 193.496 39.771 193.485 41.3071C193.473 42.8431 194.33 44.0949 195.398 44.103C196.465 44.1111 197.341 42.8724 197.352 41.3363Z" fill="#3F3D56"/>
<path id="Vector_33" d="M230.148 72.4662C230.159 70.9301 229.303 69.6784 228.235 69.6703C227.167 69.6622 226.292 70.9009 226.28 72.437C226.269 73.973 227.125 75.2248 228.193 75.2329C229.261 75.241 230.136 74.0023 230.148 72.4662Z" fill="#E6E6E6"/>
<path id="circle6" d="M216.317 79.3756C216.329 77.8396 215.472 76.5878 214.404 76.5797C213.336 76.5717 212.461 77.8103 212.45 79.3464C212.438 80.8824 213.294 82.1342 214.362 82.1423C215.43 82.1504 216.305 80.9117 216.317 79.3756Z" fill="#FF6584"/>
<path id="Vector_34" d="M235.57 92.1461C235.582 90.6101 234.725 89.3583 233.657 89.3502C232.589 89.3422 231.714 90.5808 231.703 92.1169C231.691 93.653 232.547 94.9047 233.615 94.9128C234.683 94.9209 235.558 93.6822 235.57 92.1461Z" fill="#3F3D56"/>
</g>
<defs>
<clipPath id="clip0_185_40">
<rect width="357" height="408" fill="white"/>
</clipPath>
</defs>
</svg>
