<svg width="1301" height="580" viewBox="0 0 1301 580" fill="none" xmlns="http://www.w3.org/2000/svg">
<path d="M648.779 579.25L1676.33 496.5V1.00136e-05L-378.775 1.00136e-05V496.5L648.779 579.25Z" fill="#BBD3DE"/>
<path d="M648.779 496.5L1676.33 331V8.58307e-06L-378.775 8.58307e-06V331L648.779 496.5Z" fill="#C4D7E0"/>
<path d="M648.779 413.75L1676.33 165.5V7.15256e-06L-378.775 7.15256e-06V165.5L648.779 413.75Z" fill="#CDDCE3"/>
<path d="M-378.775 5.72205e-06L648.779 331L1676.33 5.72205e-06L-378.775 5.72205e-06Z" fill="#D5E1E5"/>
<path d="M32.2465 4.29153e-06L648.779 248.25L1265.31 4.29153e-06L32.2465 4.29153e-06Z" fill="#DDE5E8"/>
<path d="M991.339 2.86102e-06L306.218 2.86102e-06L648.778 165.5L991.339 2.86102e-06Z" fill="#E5EAEC"/>
<path d="M797.646 1.43051e-06L501.967 1.43051e-06L648.779 82.75L797.646 1.43051e-06Z" fill="#ECEFF0"/>
</svg>
