<svg width="436" height="361" viewBox="0 0 436 361" fill="none" xmlns="http://www.w3.org/2000/svg">
<g clip-path="url(#clip0_206_1094)">
<path d="M260.936 360.235C276.303 360.235 288.76 347.745 288.76 332.338C288.76 316.931 276.303 304.441 260.936 304.441C245.57 304.441 233.112 316.931 233.112 332.338C233.112 347.745 245.57 360.235 260.936 360.235Z" fill="#009AD6"/>
<path d="M427.159 358.668C442.725 353.981 459.274 349.093 471.618 337.951C482.65 327.994 490.097 312.789 485.527 297.857C480.967 282.955 467.306 273.019 453.202 268.077C445.203 265.274 436.834 263.719 428.468 262.497C419.374 261.169 410.24 260.081 401.11 259.034C364.141 254.795 327.034 252.205 289.787 251.265C271.408 250.801 253.033 250.812 234.652 251.079C218.236 251.318 200.947 251.312 185.719 244.317C173.876 238.877 163.128 228.98 159.828 215.975C156.019 200.963 163.045 185.674 173.123 174.802C178.435 169.071 184.644 164.247 191.049 159.812C197.998 155 205.188 150.529 212.535 146.356C227.004 138.14 242.131 131.148 257.759 125.452C265.468 122.641 273.292 120.216 281.184 117.979C287.848 116.091 294.532 114.199 300.973 111.625C313.423 106.65 325.265 98.2228 328.431 84.4067C331.431 71.3125 326.372 57.0976 317.504 47.3701C307.243 36.1161 291.773 31.1827 276.941 30.3845C260.29 29.4884 244.022 33.6666 228.372 38.9694C211.679 44.6252 195.347 51.1284 178.302 55.7095C161.399 60.2479 144.17 63.459 126.77 65.3137C118.252 66.2231 109.476 67.25 100.908 66.5538C93.7263 65.9703 86.5817 63.8528 81.2892 58.7428C76.7512 54.3613 74.0478 48.3397 74.9772 41.985C75.146 40.8308 76.8948 41.3215 76.727 42.4687C75.5957 50.2041 80.8401 57.3321 87.3026 60.9833C94.7717 65.2033 103.86 65.209 112.176 64.7264C130.206 63.6345 148.115 61.0389 165.716 56.9664C183.01 53.0059 199.687 47.3442 216.346 41.2961C232.167 35.5521 248.341 29.9458 265.243 28.7017C279.909 27.6222 295.337 29.7643 308.113 37.4487C319.342 44.2022 327.599 55.4648 330.23 68.389C332.801 81.0182 329.24 93.7297 319.705 102.543C309.833 111.668 296.296 115.569 283.681 119.162C267.681 123.719 252.024 129.046 236.869 135.963C221.507 142.954 206.775 151.258 192.834 160.784C179.378 170.003 166.099 181.604 161.843 198.051C159.86 205.713 160.226 213.839 163.543 221.075C166.493 227.51 171.35 232.922 177.009 237.097C190.51 247.057 207.526 249.103 223.834 249.306C242.151 249.535 260.468 248.915 278.79 249.216C316.13 249.831 353.394 252.109 390.581 256.053C399.899 257.042 409.206 258.135 418.5 259.332C426.86 260.409 435.249 261.479 443.468 263.392C458.083 266.793 472.305 273.333 481.389 285.757C485.42 291.142 487.918 297.524 488.615 304.221C489.251 311.21 487.545 318.211 484.393 324.428C477.417 338.189 464.352 346.942 450.476 352.692C443.044 355.772 435.335 358.105 427.641 360.422C426.52 360.76 426.041 359.004 427.159 358.668Z" fill="#F2F2F2"/>
<path d="M76.1487 56.7036C84.1661 56.7036 90.6656 50.1872 90.6656 42.1487C90.6656 34.1102 84.1661 27.5938 76.1487 27.5938C68.1313 27.5938 61.6318 34.1102 61.6318 42.1487C61.6318 50.1872 68.1313 56.7036 76.1487 56.7036Z" fill="#F2F2F2"/>
<path d="M176.86 84.2974C184.877 84.2974 191.377 77.7809 191.377 69.7424C191.377 61.704 184.877 55.1875 176.86 55.1875C168.842 55.1875 162.343 61.704 162.343 69.7424C162.343 77.7809 168.842 84.2974 176.86 84.2974Z" fill="#F2F2F2"/>
<path d="M262.146 29.1099C270.164 29.1099 276.663 22.5934 276.663 14.5549C276.663 6.51647 270.164 0 262.146 0C254.129 0 247.629 6.51647 247.629 14.5549C247.629 22.5934 254.129 29.1099 262.146 29.1099Z" fill="#F2F2F2"/>
<path d="M315.375 90.9684C323.392 90.9684 329.892 84.4519 329.892 76.4135C329.892 68.375 323.392 61.8585 315.375 61.8585C307.357 61.8585 300.858 68.375 300.858 76.4135C300.858 84.4519 307.357 90.9684 315.375 90.9684Z" fill="#F2F2F2"/>
<path d="M243.395 162.53C251.413 162.53 257.912 156.014 257.912 147.975C257.912 139.937 251.413 133.42 243.395 133.42C235.378 133.42 228.878 139.937 228.878 147.975C228.878 156.014 235.378 162.53 243.395 162.53Z" fill="#F2F2F2"/>
<path d="M152.06 197.098C160.077 197.098 166.577 190.582 166.577 182.543C166.577 174.505 160.077 167.988 152.06 167.988C144.042 167.988 137.543 174.505 137.543 182.543C137.543 190.582 144.042 197.098 152.06 197.098Z" fill="#F2F2F2"/>
<path d="M248.839 251.073C256.857 251.073 263.356 244.556 263.356 236.518C263.356 228.479 256.857 221.963 248.839 221.963C240.822 221.963 234.322 228.479 234.322 236.518C234.322 244.556 240.822 251.073 248.839 251.073Z" fill="#F2F2F2"/>
<path d="M352.876 281.396C360.894 281.396 367.393 274.879 367.393 266.841C367.393 258.802 360.894 252.286 352.876 252.286C344.859 252.286 338.359 258.802 338.359 266.841C338.359 274.879 344.859 281.396 352.876 281.396Z" fill="#F2F2F2"/>
<path d="M257.956 41.2411C214.471 41.5491 178.866 76.9795 178.248 120.575C178.242 120.978 178.239 123.808 178.24 127.51C178.24 132.937 180.391 138.142 184.218 141.98C188.046 145.818 193.237 147.975 198.65 147.975C201.334 147.975 203.991 147.444 206.47 146.413C208.948 145.383 211.2 143.873 213.097 141.969C214.993 140.066 216.497 137.806 217.522 135.32C218.547 132.833 219.074 130.169 219.072 127.478C219.069 124.96 219.068 123.218 219.068 123.111C219.067 116.373 220.815 109.751 224.14 103.896C227.466 98.041 232.254 93.1548 238.034 89.7181C243.814 86.2813 250.387 84.4123 257.106 84.295C263.825 84.1777 270.459 85.816 276.355 89.0489C282.251 92.2818 287.206 96.9978 290.733 102.733C294.259 108.468 296.236 115.025 296.469 121.759C296.701 128.493 295.182 135.171 292.059 141.137C288.937 147.104 284.319 152.152 278.66 155.786L278.667 155.795C278.667 155.795 249.616 174.546 240.759 200.269L240.767 200.271C239.21 205.541 238.42 211.009 238.424 216.505C238.424 218.764 238.557 238.532 238.813 254.577C238.902 260.113 241.159 265.392 245.096 269.274C249.033 273.157 254.334 275.332 259.856 275.331C262.631 275.331 265.378 274.781 267.94 273.712C270.502 272.643 272.828 271.077 274.784 269.104C276.74 267.131 278.287 264.789 279.337 262.214C280.387 259.639 280.919 256.881 280.902 254.099C280.813 239.405 280.765 222.295 280.765 221.053C280.765 205.258 295.962 189.521 308.446 179.258C322.821 167.44 333.166 151.335 337.321 133.168C338.24 129.427 338.747 125.597 338.832 121.746C338.832 111.125 336.736 100.609 332.665 90.8031C328.593 80.9977 322.626 72.0969 315.109 64.6137C307.591 57.1305 298.671 51.2128 288.862 47.2014C279.053 43.1901 268.549 41.1644 257.956 41.2411Z" fill="#009AD6"/>
<path d="M510.198 361H0.720079C0.529429 360.999 0.346781 360.923 0.212166 360.788C0.0775512 360.652 0.00195312 360.469 0.00195312 360.278C0.00195312 360.087 0.0775512 359.903 0.212166 359.768C0.346781 359.633 0.529429 359.556 0.720079 359.556H510.198C510.389 359.556 510.572 359.632 510.707 359.767C510.842 359.903 510.918 360.086 510.918 360.278C510.918 360.469 510.842 360.653 510.707 360.789C510.572 360.924 510.389 361 510.198 361Z" fill="#3F3D56"/>
<path d="M380.129 165.56C390.151 165.56 398.276 157.414 398.276 147.366C398.276 137.318 390.151 129.173 380.129 129.173C370.108 129.173 361.983 137.318 361.983 147.366C361.983 157.414 370.108 165.56 380.129 165.56Z" fill="#2F2E41"/>
<path d="M346.598 353.036H339.183L335.654 324.358H346.599L346.598 353.036Z" fill="#A0616A"/>
<path d="M333.885 350.911H348.187V359.939H324.881C324.881 358.754 325.114 357.58 325.566 356.484C326.019 355.389 326.682 354.394 327.518 353.555C328.354 352.717 329.347 352.052 330.44 351.598C331.532 351.145 332.703 350.911 333.885 350.911Z" fill="#2F2E41"/>
<path d="M404.06 353.036H396.645L393.117 324.358H404.062L404.06 353.036Z" fill="#A0616A"/>
<path d="M391.348 350.911H405.649V359.939H382.343C382.343 358.754 382.576 357.58 383.029 356.484C383.481 355.389 384.144 354.394 384.981 353.555C385.817 352.717 386.809 352.052 387.902 351.598C388.994 351.145 390.165 350.911 391.348 350.911Z" fill="#2F2E41"/>
<path d="M377.372 165.666C385.577 165.666 392.228 158.997 392.228 150.771C392.228 142.545 385.577 135.876 377.372 135.876C369.167 135.876 362.516 142.545 362.516 150.771C362.516 158.997 369.167 165.666 377.372 165.666Z" fill="#A0616A"/>
<path d="M386.227 213.719L392.874 198.406C394.488 194.813 394.951 190.807 394.198 186.94C393.445 183.073 391.514 179.536 388.67 176.816C388.086 176.237 387.466 175.696 386.813 175.197C383.533 172.624 379.491 171.222 375.327 171.212C372.527 171.223 369.762 171.839 367.222 173.019C367.004 173.116 366.792 173.22 366.574 173.323C366.157 173.523 365.746 173.741 365.347 173.965C362.743 175.465 360.526 177.556 358.877 180.072C357.227 182.587 356.19 185.456 355.85 188.448L352.916 213.094C352.179 215.029 325.855 284.892 335.061 338.23C335.159 338.8 335.436 339.323 335.852 339.723C336.267 340.124 336.8 340.381 337.371 340.456L346.705 341.729C347.386 341.823 348.078 341.654 348.64 341.257C349.202 340.86 349.593 340.263 349.735 339.589L365.395 264.746C365.493 264.281 365.743 263.862 366.106 263.556C366.469 263.251 366.923 263.076 367.397 263.06C367.871 263.044 368.336 263.187 368.719 263.468C369.101 263.748 369.379 264.149 369.508 264.606L391.634 343.312C391.792 343.884 392.132 344.388 392.603 344.748C393.074 345.107 393.649 345.302 394.241 345.301C394.418 345.3 394.594 345.284 394.767 345.253L406.169 343.051C406.832 342.927 407.425 342.559 407.831 342.02C408.237 341.48 408.428 340.808 408.365 340.134C406.689 321.401 397.786 227.564 386.227 213.719Z" fill="#2F2E41"/>
<path d="M319.637 163.167C319.534 164.052 319.625 164.95 319.906 165.796C320.186 166.642 320.648 167.416 321.259 168.064C321.87 168.712 322.615 169.217 323.442 169.545C324.269 169.873 325.157 170.015 326.045 169.961L334.349 189.97L340.631 180.634L331.782 163.065C331.593 161.576 330.866 160.208 329.738 159.22C328.611 158.233 327.161 157.695 325.664 157.707C324.167 157.72 322.727 158.282 321.616 159.289C320.505 160.295 319.801 161.675 319.637 163.167Z" fill="#A0616A"/>
<path d="M376.548 233.865C377.431 233.76 378.28 233.461 379.035 232.991C379.791 232.52 380.434 231.89 380.92 231.143C381.406 230.396 381.723 229.552 381.848 228.669C381.973 227.787 381.904 226.887 381.645 226.034L399.117 213.275L388.598 209.326L373.619 222.047C372.219 222.579 371.061 223.606 370.366 224.936C369.671 226.265 369.487 227.804 369.848 229.261C370.209 230.718 371.091 231.991 372.325 232.84C373.56 233.688 375.063 234.053 376.548 233.865Z" fill="#A0616A"/>
<path d="M348.066 203.309C347.396 203.308 346.728 203.242 346.071 203.112C344.481 202.808 342.991 202.118 341.731 201.101C340.47 200.084 339.479 198.772 338.844 197.28L327.21 183.057C326.964 182.756 326.785 182.406 326.684 182.03C326.584 181.655 326.566 181.262 326.629 180.878C326.693 180.494 326.837 180.129 327.053 179.806C327.269 179.483 327.552 179.21 327.882 179.005L336.159 173.868C336.464 173.678 336.805 173.551 337.159 173.494C337.514 173.437 337.877 173.45 338.226 173.534C338.576 173.618 338.905 173.771 339.196 173.983C339.486 174.196 339.732 174.464 339.918 174.772L348.118 188.316L363.821 176.681C365.072 176.023 366.516 175.839 367.891 176.161C369.266 176.484 370.479 177.291 371.309 178.436C372.139 179.581 372.53 180.987 372.411 182.397C372.293 183.808 371.672 185.128 370.662 186.118L354.989 200.453C353.147 202.283 350.659 203.31 348.066 203.309Z" fill="#2F2E41"/>
<path d="M390.497 224.7C390.476 224.7 390.455 224.7 390.433 224.7C390.052 224.69 389.676 224.601 389.331 224.437C388.986 224.273 388.68 224.038 388.431 223.747L381.072 215.14C380.821 214.846 380.635 214.503 380.527 214.133C380.418 213.762 380.389 213.373 380.442 212.991C380.495 212.608 380.628 212.241 380.832 211.914C381.037 211.587 381.308 211.307 381.629 211.093L395.408 201.882L382.925 186.835C382.199 185.621 381.932 184.185 382.174 182.791C382.416 181.397 383.151 180.136 384.243 179.24C385.336 178.343 386.714 177.871 388.125 177.909C389.536 177.947 390.887 178.492 391.93 179.446L407.102 194.312C408.296 195.406 409.208 196.774 409.758 198.299C410.309 199.823 410.483 201.459 410.264 203.066C410.045 204.673 409.441 206.202 408.503 207.523C407.565 208.844 406.322 209.917 404.879 210.65L392.478 223.843C392.224 224.114 391.917 224.329 391.576 224.476C391.235 224.624 390.868 224.7 390.497 224.7Z" fill="#2F2E41"/>
<path d="M373.594 192.983C373.476 192.983 373.358 192.976 373.241 192.961C372.729 192.898 372.245 192.69 371.847 192.36C371.449 192.03 371.154 191.592 370.997 191.099L365.467 174.101C365.328 173.671 365.35 173.206 365.527 172.79C365.704 172.375 366.025 172.038 366.431 171.842L366.61 171.757C366.773 171.68 366.934 171.603 367.099 171.529C369.677 170.33 372.484 169.705 375.327 169.696C379.017 169.703 382.625 170.79 385.707 172.823C386.12 173.099 386.409 173.527 386.511 174.014C386.613 174.501 386.52 175.009 386.252 175.428L375.879 191.722C375.636 192.109 375.298 192.427 374.899 192.648C374.499 192.869 374.05 192.984 373.594 192.983Z" fill="#E6E6E6"/>
<path d="M394.436 139.244C397.715 139.244 400.374 136.579 400.374 133.291C400.374 130.003 397.715 127.337 394.436 127.337C391.156 127.337 388.498 130.003 388.498 133.291C388.498 136.579 391.156 139.244 394.436 139.244Z" fill="#2F2E41"/>
<path d="M374.081 126.747C369.91 126.747 365.91 128.408 362.96 131.365C360.011 134.322 358.354 138.333 358.354 142.515V149.186H366.537L370.451 142.515L371.626 149.186H396.461L389.807 142.515C389.807 138.333 388.15 134.322 385.201 131.365C382.252 128.408 378.252 126.747 374.081 126.747Z" fill="#2F2E41"/>
<path d="M397.488 129.213C398.144 127.154 399.504 125.394 401.327 124.241C403.15 123.087 405.321 122.616 407.457 122.908C411.241 123.543 414.232 126.592 416.015 129.998C417.798 133.405 418.621 137.217 419.819 140.871C421.018 144.525 422.717 148.199 425.743 150.565C428.768 152.93 433.411 153.572 436.382 151.138C436.043 153.674 434.917 156.039 433.163 157.898C431.41 159.757 429.118 161.017 426.612 161.498C424.105 161.98 421.511 161.659 419.197 160.581C416.882 159.504 414.964 157.724 413.714 155.493C412.146 152.697 411.741 149.419 411.276 146.244C410.811 143.07 410.207 139.786 408.335 137.184C406.463 134.582 402.959 132.882 399.986 134.067L397.488 129.213Z" fill="#2F2E41"/>
<path d="M204.414 138.295C199 138.295 193.809 136.138 189.981 132.3C186.154 128.462 184.003 123.257 184.003 117.83C184.003 114.128 184.005 111.298 184.011 110.895C184.183 98.2164 187.368 85.7614 193.301 74.5634C183.553 87.9435 178.192 104.03 177.962 120.599C177.956 121.001 177.954 123.831 177.954 127.533C177.954 132.961 180.105 138.166 183.933 142.004C187.76 145.841 192.952 147.998 198.365 147.998C202.813 147.997 207.139 146.539 210.686 143.848C214.233 141.156 216.806 137.377 218.016 133.085C214.278 136.446 209.434 138.301 204.414 138.295Z" fill="#3F3D56"/>
<path d="M259.339 84.3636C265.597 84.6633 271.69 86.4813 277.093 89.6616C282.495 92.8418 287.048 97.2893 290.359 102.622C293.67 107.955 295.64 114.014 296.102 120.278C296.563 126.543 295.5 132.826 293.006 138.589C296.614 134.34 299.266 129.362 300.781 123.993C302.296 118.623 302.638 112.99 301.785 107.476C300.932 101.962 298.902 96.6974 295.836 92.0411C292.769 87.3847 288.737 83.4461 284.015 80.4937C279.292 77.5413 273.99 75.6445 268.471 74.9328C262.951 74.221 257.343 74.711 252.029 76.3692C246.715 78.0274 241.82 80.815 237.678 84.5418C233.536 88.2687 230.245 92.8471 228.027 97.9651C231.859 93.4454 236.676 89.8685 242.104 87.5103C247.533 85.1521 253.43 84.0755 259.339 84.3636Z" fill="#3F3D56"/>
<path d="M265.619 265.651C260.097 265.652 254.795 263.477 250.859 259.594C246.922 255.711 244.665 250.433 244.576 244.897C244.32 228.852 244.187 209.084 244.187 206.825C244.183 201.329 244.972 195.861 246.53 190.591L246.522 190.589C247.442 187.944 248.553 185.37 249.846 182.887C245.877 188.19 242.718 194.056 240.474 200.293L240.481 200.294C238.924 205.564 238.135 211.032 238.138 216.528C238.138 218.787 238.271 238.555 238.527 254.6C238.616 260.136 240.873 265.415 244.81 269.297C248.747 273.18 254.048 275.356 259.57 275.354C264.123 275.354 268.554 273.873 272.196 271.134C275.839 268.395 278.498 264.546 279.774 260.164C275.905 263.701 270.855 265.658 265.619 265.651Z" fill="#3F3D56"/>
<path d="M76.5409 353.312L83.956 353.312L87.4842 324.634L76.5391 324.634L76.5409 353.312Z" fill="#FFB8B8"/>
<path d="M98.2578 360.215L74.9518 360.216L74.9514 351.188L89.2528 351.187C91.641 351.187 93.9314 352.138 95.6201 353.831C97.3089 355.524 98.2577 357.821 98.2578 360.215Z" fill="#2F2E41"/>
<path d="M49.9266 353.312L57.3417 353.312L60.8699 324.634L49.9248 324.634L49.9266 353.312Z" fill="#FFB8B8"/>
<path d="M71.6436 360.215L48.3375 360.216L48.3371 351.188L62.6385 351.187C65.0267 351.187 67.3171 352.138 69.0059 353.831C70.6946 355.524 71.6434 357.821 71.6436 360.215Z" fill="#2F2E41"/>
<path d="M56.4066 344.492L49.1633 344.11C48.7898 344.091 48.4239 343.997 48.0868 343.834C47.7498 343.672 47.4482 343.444 47.1996 343.164C46.951 342.884 46.7604 342.557 46.6387 342.202C46.517 341.848 46.4667 341.472 46.4907 341.098L55.148 244.995L95.0155 255.782L98.8566 254.731L86.8449 339.808C86.7426 340.447 86.4256 341.033 85.9463 341.468C85.467 341.903 84.8541 342.161 84.2088 342.2L76.4006 342.564C76.0102 342.586 75.6195 342.527 75.2533 342.389C74.887 342.252 74.5532 342.04 74.2728 341.766C73.9925 341.493 73.7718 341.164 73.6246 340.801C73.4774 340.438 73.4069 340.048 73.4177 339.656L74.8325 288.595C74.8391 288.359 74.7573 288.129 74.6031 287.95C74.449 287.771 74.2337 287.657 73.9997 287.63C73.7657 287.602 73.53 287.664 73.3389 287.802C73.1479 287.94 73.0154 288.145 72.9675 288.376L59.3236 342.237C59.1948 342.876 58.8489 343.451 58.3449 343.863C57.841 344.275 57.2101 344.499 56.5598 344.497C56.5091 344.497 56.458 344.495 56.4066 344.492Z" fill="#2F2E41"/>
<path d="M77.8723 166.363C86.0772 166.363 92.7285 159.694 92.7285 151.468C92.7285 143.241 86.0772 136.573 77.8723 136.573C69.6675 136.573 63.0161 143.241 63.0161 151.468C63.0161 159.694 69.6675 166.363 77.8723 166.363Z" fill="#FFB8B8"/>
<path d="M53.1374 195.229L54.7709 230.566L55.3614 243.422C55.3849 243.981 55.5744 244.521 55.9057 244.972C56.2369 245.423 56.6949 245.765 57.2209 245.954L95.5309 259.868C95.8404 259.983 96.1683 260.041 96.4985 260.038C96.8758 260.04 97.2496 259.965 97.5977 259.819C97.9457 259.673 98.2608 259.458 98.524 259.187C98.7873 258.916 98.9935 258.594 99.1301 258.242C99.2668 257.889 99.3311 257.512 99.3194 257.134L97.7488 193.598C97.6456 188.385 95.7317 183.371 92.3371 179.422C88.9425 175.472 84.2798 172.833 79.1528 171.961C78.7823 171.904 78.4053 171.848 78.0283 171.797C74.8492 171.402 71.6222 171.709 68.5744 172.698C65.5266 173.688 62.732 175.334 60.3873 177.523C57.9593 179.762 56.0515 182.508 54.7988 185.568C53.546 188.627 52.9789 191.925 53.1374 195.229Z" fill="#CCCCCC"/>
<path d="M113.832 252.817C112.925 252.535 112.098 252.045 111.414 251.385C110.731 250.725 110.21 249.915 109.895 249.017C109.579 248.12 109.477 247.162 109.597 246.218C109.717 245.275 110.055 244.372 110.584 243.583L97.5928 226.262L108.804 225.567L119.422 242.121C120.558 243.002 121.349 244.257 121.656 245.664C121.962 247.071 121.765 248.542 121.098 249.818C120.431 251.094 119.337 252.094 118.009 252.642C116.68 253.191 115.201 253.253 113.832 252.817Z" fill="#FFB8B8"/>
<path d="M104.697 240.448C104.353 240.308 104.04 240.101 103.776 239.839C103.512 239.577 103.303 239.265 103.16 238.921L83.5878 192.167C83.2037 191.251 83.0034 190.269 82.9982 189.276C82.9929 188.283 83.1829 187.298 83.5573 186.379C83.9317 185.46 84.4832 184.623 85.1801 183.917C85.8771 183.212 86.7059 182.651 87.6192 182.266C88.5325 181.882 89.5124 181.682 90.5029 181.678C91.4934 181.673 92.475 181.864 93.3918 182.24C94.3085 182.617 95.1423 183.17 95.8455 183.869C96.5488 184.569 97.1077 185.4 97.4903 186.316L117.063 233.071C117.352 233.764 117.355 234.544 117.072 235.24C116.788 235.936 116.241 236.49 115.55 236.782L106.861 240.438C106.519 240.583 106.152 240.659 105.78 240.661C105.409 240.662 105.041 240.59 104.697 240.448Z" fill="#CCCCCC"/>
<path d="M73.0959 238.799L91.8948 202.71C92.2573 202.016 92.8796 201.494 93.6252 201.26C94.3707 201.025 95.1787 201.096 95.8717 201.458L123.158 215.747C123.851 216.11 124.371 216.734 124.605 217.481C124.839 218.229 124.767 219.039 124.406 219.734L105.608 255.823C105.245 256.517 104.623 257.039 103.877 257.274C103.132 257.508 102.324 257.437 101.631 257.075L74.344 242.787C73.6518 242.423 73.1316 241.799 72.8976 241.052C72.6636 240.304 72.7349 239.494 73.0959 238.799Z" fill="#3F3D56"/>
<path d="M85.7029 222.311C85.3687 221.421 84.8316 220.621 84.1344 219.976C83.4372 219.331 82.5993 218.858 81.6875 218.595C80.7757 218.332 79.8153 218.287 78.8828 218.462C77.9504 218.638 77.0718 219.029 76.3171 219.606L58.305 207.626L58.2744 218.888L75.3837 228.537C76.3281 229.623 77.6237 230.341 79.0431 230.564C80.4625 230.788 81.9152 230.504 83.1463 229.761C84.3774 229.018 85.3083 227.864 85.7758 226.502C86.2433 225.14 86.2175 223.656 85.7029 222.311Z" fill="#FFB8B8"/>
<path d="M62.9294 224.843L48.2088 213.152C46.6163 212.616 45.1774 211.701 44.0155 210.484C42.8536 209.268 42.0035 207.787 41.5382 206.168C41.0728 204.55 41.0061 202.843 41.3437 201.193C41.6813 199.543 42.4133 198 43.4766 196.696L56.8425 179.133C57.7713 177.995 59.0776 177.23 60.5225 176.979C61.9675 176.727 63.4545 177.005 64.7119 177.762C65.9693 178.518 66.9131 179.704 67.3706 181.101C67.8281 182.498 67.7689 184.013 67.2037 185.37L56.6283 202.715L72.1698 210.106C72.5312 210.278 72.8521 210.524 73.1113 210.83C73.3705 211.135 73.5622 211.492 73.6735 211.877C73.7849 212.263 73.8135 212.667 73.7574 213.064C73.7013 213.461 73.5618 213.842 73.3481 214.181L67.0746 224.135C66.8625 224.471 66.5824 224.759 66.2525 224.979C65.9225 225.2 65.55 225.348 65.1591 225.416C65.1436 225.418 65.128 225.421 65.1124 225.423C64.7283 225.481 64.3364 225.46 63.9609 225.36C63.5855 225.26 63.2344 225.084 62.9294 224.843Z" fill="#CCCCCC"/>
<path d="M66.6462 161.442C66.5825 161.255 66.5622 161.056 66.5871 160.86C66.612 160.664 66.6812 160.476 66.7896 160.311C66.898 160.146 67.0426 160.008 67.2124 159.908C67.3822 159.807 67.5726 159.747 67.7691 159.732C68.1714 159.754 68.5652 159.858 68.9266 160.036C69.2879 160.215 69.6094 160.465 69.8716 160.772C70.4093 161.394 71.0352 161.933 71.7293 162.371C72.448 162.735 73.4226 162.683 73.8323 161.99C74.2171 161.34 73.9534 160.469 73.7205 159.714C73.1279 157.792 72.7963 155.8 72.7347 153.789C72.6676 151.545 72.9833 149.203 74.2225 147.453C75.8217 145.194 78.6812 144.336 81.3874 144.398C84.0936 144.461 86.7559 145.298 89.4365 145.828C90.3619 146.01 91.4496 146.104 92.0686 145.385C92.7267 144.62 92.485 143.383 92.2051 142.35C91.4787 139.671 90.708 136.901 89.0203 134.738C87.1954 132.49 84.5887 131.018 81.7251 130.62C78.9758 130.278 76.185 130.596 73.5821 131.547C69.3413 132.887 65.6096 135.493 62.8863 139.018C60.0789 142.765 58.8658 147.475 59.5123 152.117C60.1438 156.16 62.2806 159.813 65.4919 162.339L66.6462 161.442Z" fill="#2F2E41"/>
<path d="M254.806 353.431C250.854 351.705 247.355 349.081 244.587 345.767C241.819 342.454 239.857 338.54 238.856 334.336C237.854 330.132 237.841 325.751 238.818 321.541C239.794 317.331 241.733 313.406 244.481 310.076C241.294 312.408 238.639 315.394 236.691 318.834C234.744 322.274 233.548 326.091 233.184 330.03C232.82 333.968 233.295 337.94 234.579 341.681C235.862 345.421 237.925 348.845 240.629 351.726C243.334 354.606 246.618 356.877 250.265 358.387C253.911 359.897 257.837 360.613 261.78 360.486C265.724 360.359 269.595 359.392 273.137 357.651C276.68 355.909 279.812 353.432 282.327 350.383C278.405 353.257 273.8 355.051 268.972 355.586C264.143 356.12 259.259 355.377 254.806 353.431Z" fill="#3F3D56"/>
</g>
<defs>
<clipPath id="clip0_206_1094">
<rect width="436" height="361" fill="white"/>
</clipPath>
</defs>
</svg>
