<svg width="511" height="499" viewBox="0 0 511 499" fill="none" xmlns="http://www.w3.org/2000/svg">
<path d="M348.502 112.774C381.717 128.742 417.998 144.71 434.861 172.155C451.213 199.101 448.658 237.524 445.081 277.444C441.504 317.364 436.905 358.282 416.465 390.218C395.514 421.655 358.211 444.11 317.331 456.585C276.451 469.06 232.505 471.056 201.845 451.595C171.696 432.134 154.833 390.218 133.882 357.284C112.931 324.849 87.8921 300.398 74.0951 269.46C60.8091 238.023 58.2541 199.101 68.4741 161.177C78.1831 122.754 100.667 85.329 133.882 68.862C167.097 52.894 211.043 58.383 248.346 69.361C285.649 80.339 315.287 96.307 348.502 112.774Z" fill="url(#paint0_linear_204_1089)"/>
<defs>
<linearGradient id="paint0_linear_204_1089" x1="62.2046" y1="466.092" x2="468.804" y2="81.1337" gradientUnits="userSpaceOnUse">
<stop stop-color="#C8E9F9"/>
<stop offset="1" stop-color="#009AD6"/>
</linearGradient>
</defs>
</svg>
