<svg width="39" height="39" viewBox="0 0 39 39" fill="none" xmlns="http://www.w3.org/2000/svg">
<path d="M29.9355 34.2773C29.736 34.2773 29.5401 34.2248 29.3673 34.125L19.5762 28.5104L9.78504 34.125C9.61137 34.2246 9.41459 34.2767 9.21442 34.2763C9.01424 34.2759 8.81768 34.2229 8.64443 34.1226C8.47118 34.0223 8.32731 33.8783 8.22724 33.7049C8.12717 33.5316 8.0744 33.3349 8.07422 33.1348V4.79883C8.07422 4.4958 8.1946 4.20518 8.40887 3.9909C8.62315 3.77663 8.91377 3.65625 9.2168 3.65625H29.9355C30.2386 3.65625 30.5292 3.77663 30.7435 3.9909C30.9577 4.20518 31.0781 4.4958 31.0781 4.79883V33.1348C31.0781 33.4378 30.9577 33.7284 30.7435 33.9427C30.5292 34.157 30.2386 34.2773 29.9355 34.2773ZM19.5762 26.0508C19.7757 26.0508 19.9717 26.1033 20.1444 26.2031L28.793 31.1619V5.94141H10.3594V31.1619L19.0079 26.2031C19.1807 26.1033 19.3767 26.0508 19.5762 26.0508Z" fill="#004661"/>
</svg>
