<svg width="29" height="29" viewBox="0 0 29 29" fill="none" xmlns="http://www.w3.org/2000/svg">
<path fill-rule="evenodd" clip-rule="evenodd" d="M9.54556 13.9935L7.81406 15.7208L13.3796 21.2728L25.7474 8.93508L24.0159 7.2078L13.3796 17.8182L9.54556 13.9935ZM24.5106 16.3377C24.5106 21.7663 20.0582 26.2079 14.6164 26.2079C9.17452 26.2079 4.7221 21.7663 4.7221 16.3377C4.7221 10.9091 9.17452 6.46754 14.6164 6.46754C15.6058 6.46754 16.4715 6.59092 17.3373 6.83767L19.3161 4.86364C17.832 4.37013 16.2242 4 14.6164 4C7.81406 4 2.24854 9.55197 2.24854 16.3377C2.24854 23.1234 7.81406 28.6754 14.6164 28.6754C21.4187 28.6754 26.9842 23.1234 26.9842 16.3377H24.5106Z" fill="#004661"/>
</svg>
