<svg width="399" height="334" viewBox="0 0 399 334" fill="none" xmlns="http://www.w3.org/2000/svg">
<g id="contact-ill" clip-path="url(#clip0_95_42)">
<path id="Vector" d="M187.473 334.087C274.53 334.087 345.103 330.474 345.103 326.018C345.103 321.561 274.53 317.948 187.473 317.948C100.417 317.948 29.8438 321.561 29.8438 326.018C29.8438 330.474 100.417 334.087 187.473 334.087Z" fill="#F2F2F2"/>
<path id="Vector_2" d="M279.568 77.5361H277.777V28.4245C277.777 20.8859 274.786 13.656 269.461 8.32535C264.136 2.99473 256.915 8.32322e-06 249.385 0H145.454C137.924 -1.42683e-05 130.702 2.99468 125.377 8.32528C120.053 13.6559 117.062 20.8858 117.062 28.4244V297.855C117.062 305.393 120.053 312.623 125.377 317.954C130.702 323.284 137.924 326.279 145.454 326.279H249.385C256.915 326.279 264.136 323.284 269.461 317.954C274.785 312.623 277.777 305.393 277.777 297.855V112.495H279.567L279.568 77.5361Z" fill="#3F3D56"/>
<path id="Vector_3" d="M271.734 28.6228V297.656C271.734 303.286 269.5 308.686 265.523 312.667C261.547 316.648 256.153 318.884 250.53 318.885H146.1C140.477 318.884 135.083 316.648 131.107 312.667C127.13 308.686 124.896 303.286 124.896 297.656V28.6228C124.896 22.9928 127.13 17.5935 131.107 13.6124C135.083 9.63143 140.477 7.39488 146.1 7.39478H158.769C158.146 8.92623 157.909 10.5874 158.078 12.2321C158.248 13.8768 158.818 15.4546 159.739 16.8269C160.661 18.1991 161.905 19.3237 163.362 20.1016C164.819 20.8796 166.445 21.2871 168.097 21.2883H227.638C229.289 21.287 230.915 20.8795 232.372 20.1016C233.83 19.3236 235.074 18.1991 235.995 16.8269C236.916 15.4546 237.487 13.8768 237.656 12.2321C237.825 10.5874 237.588 8.92623 236.966 7.39478H250.53C256.153 7.39488 261.547 9.63143 265.523 13.6124C269.499 17.5935 271.734 22.9928 271.734 28.6228Z" fill="white"/>
<path id="Vector_4" d="M238.091 144.629C237.397 144.992 236.691 145.336 235.973 145.66C235.319 145.956 234.655 146.234 233.98 146.494C233.734 146.588 233.483 146.682 233.233 146.776C231.25 147.496 229.213 148.058 227.142 148.457C226.117 148.659 225.078 148.818 224.026 148.933C223.157 149.031 222.279 149.102 221.393 149.143C220.761 149.175 220.13 149.188 219.494 149.188C216.975 149.189 214.463 148.954 211.988 148.484C211.343 148.368 210.712 148.229 210.081 148.076C207.026 147.344 204.07 146.251 201.272 144.822C201.021 144.696 200.771 144.562 200.52 144.432C200.148 144.234 199.786 144.028 199.423 143.813C199.597 143.571 199.786 143.333 199.978 143.1C202.073 140.5 204.693 138.372 207.665 136.853C210.637 135.335 213.895 134.46 217.228 134.287C220.56 134.113 223.891 134.645 227.005 135.847C230.118 137.048 232.944 138.894 235.297 141.262C236.114 142.083 236.871 142.96 237.563 143.889C237.746 144.131 237.921 144.378 238.091 144.629Z" fill="#C8E9F9"/>
<path id="Vector_5" d="M220.387 124.935C231.247 124.935 240.051 116.122 240.051 105.25C240.051 94.3776 231.247 85.564 220.387 85.564C209.528 85.564 200.724 94.3776 200.724 105.25C200.724 116.122 209.528 124.935 220.387 124.935Z" fill="#2F2E41"/>
<path id="Vector_6" d="M225.617 124.963C232.709 121.082 235.316 112.18 231.439 105.079C227.562 97.9792 218.67 95.3697 211.578 99.2511C204.486 103.132 201.879 112.035 205.756 119.135C209.633 126.235 218.525 128.845 225.617 124.963Z" fill="#A0616A"/>
<path id="Vector_7" d="M233.975 102.891C230.631 105.199 226.662 106.427 222.6 106.411C224.049 107.416 225.698 108.096 227.435 108.402C222.034 109.562 216.453 109.593 211.04 108.494C209.837 108.301 208.676 107.902 207.608 107.314C207.076 107.017 206.612 106.61 206.247 106.122C205.883 105.633 205.624 105.073 205.49 104.478C205.13 102.421 206.731 100.552 208.395 99.292C210.943 97.3929 213.88 96.0845 216.995 95.4614C220.11 94.8383 223.324 94.9161 226.405 95.6891C228.416 96.2097 230.432 97.0893 231.738 98.7068C233.045 100.324 233.432 102.818 232.187 104.483L233.975 102.891Z" fill="#2F2E41"/>
<path id="person ring 1" d="M219.494 68.4902C210.704 68.4889 202.155 71.3648 195.15 76.6794C188.144 81.9941 183.067 89.4561 180.691 97.9281C178.315 106.4 178.771 115.418 181.989 123.606C185.208 131.794 191.013 138.705 198.518 143.284L198.778 143.436C198.993 143.566 199.208 143.692 199.423 143.813C199.786 144.028 200.148 144.234 200.52 144.432C200.771 144.562 201.021 144.696 201.272 144.822C204.07 146.251 207.026 147.344 210.081 148.076C210.712 148.229 211.343 148.368 211.988 148.484C214.463 148.954 216.975 149.189 219.494 149.188C220.13 149.188 220.761 149.175 221.393 149.143C222.279 149.103 223.157 149.033 224.026 148.933C225.078 148.816 226.117 148.658 227.142 148.457C229.213 148.058 231.25 147.496 233.233 146.776C233.483 146.682 233.734 146.588 233.98 146.494C234.657 146.234 235.321 145.956 235.973 145.66C236.69 145.337 237.396 144.993 238.091 144.629C245.063 140.974 250.825 135.372 254.678 128.503C254.696 128.467 254.719 128.431 254.737 128.395C256.792 124.702 258.251 120.705 259.058 116.555C260.191 110.712 260.019 104.691 258.555 98.9222C257.092 93.1535 254.372 87.7803 250.591 83.1871C246.81 78.5939 242.062 74.8945 236.686 72.3537C231.31 69.8129 225.439 68.4936 219.494 68.4902ZM254.002 127.871C253.966 127.933 253.935 127.996 253.899 128.054C250.122 134.822 244.441 140.329 237.563 143.889C236.878 144.248 236.181 144.584 235.472 144.898C234.885 145.162 234.285 145.413 233.68 145.646C233.425 145.745 233.165 145.844 232.906 145.933C231.193 146.56 229.437 147.063 227.653 147.44C226.329 147.722 224.991 147.933 223.645 148.072C222.816 148.162 221.975 148.224 221.128 148.256C220.586 148.278 220.04 148.292 219.494 148.292C217.057 148.294 214.625 148.068 212.23 147.615C210.774 147.346 209.334 146.992 207.918 146.557C205.761 145.889 203.665 145.039 201.653 144.015C201.42 143.894 201.187 143.772 200.959 143.647C200.632 143.472 200.301 143.293 199.978 143.1C199.736 142.966 199.494 142.822 199.257 142.679C199.118 142.598 198.979 142.513 198.841 142.428C192.26 138.382 187.01 132.49 183.743 125.485C180.477 118.479 179.336 110.667 180.463 103.019C181.591 95.3702 184.936 88.2212 190.085 82.4588C195.234 76.6964 201.959 72.5742 209.427 70.6035C216.894 68.6328 224.775 68.9004 232.092 71.3732C239.409 73.8459 245.84 78.4149 250.587 84.5133C255.334 90.6117 258.188 97.9712 258.795 105.679C259.402 113.386 257.736 121.103 254.002 127.871Z" fill="#646372"/>
<path id="Vector_8" d="M210.43 85.8355C210.218 83.6083 207.493 82.2371 205.361 82.9098C203.23 83.5826 201.831 85.7311 201.408 87.9279C201.204 88.8531 201.185 89.8095 201.352 90.7421C201.518 91.6747 201.867 92.5652 202.377 93.3627C203.455 94.9149 205.434 95.8836 207.281 95.4895C209.389 95.0397 210.849 92.9791 211.267 90.8624C211.685 88.7456 211.27 86.5633 210.856 84.4458L210.43 85.8355Z" fill="#2F2E41"/>
<path id="Vector_9" d="M240.425 89.0174C240.214 86.7901 237.488 85.419 235.357 86.0917C233.226 86.7645 231.826 88.913 231.403 91.1098C231.2 92.035 231.181 92.9913 231.347 93.924C231.514 94.8566 231.862 95.7471 232.373 96.5445C233.45 98.0968 235.43 99.0655 237.277 98.6714C239.384 98.2216 240.845 96.161 241.263 94.0443C241.681 91.9275 241.266 89.7452 240.851 87.6277L240.425 89.0174Z" fill="#2F2E41"/>
<g id="message-left">
<path id="Vector_10" d="M149.83 124.965C149.552 124.965 149.276 124.906 149.021 124.793C148.766 124.68 148.537 124.515 148.35 124.308L126.128 100.039C125.876 99.7644 125.57 99.5449 125.229 99.3946C124.888 99.2444 124.519 99.1666 124.146 99.1662H6.72133C4.93933 99.1642 3.2309 98.4546 1.97084 97.1931C0.710779 95.9316 0.00200073 94.2212 0 92.4372V50.0427C0.00199954 48.2587 0.710779 46.5483 1.97084 45.2868C3.2309 44.0253 4.93933 43.3157 6.72133 43.3137H158.854C160.636 43.3157 162.345 44.0253 163.605 45.2868C164.865 46.5483 165.574 48.2587 165.576 50.0427V92.4372C165.574 94.2212 164.865 95.9316 163.605 97.1931C162.345 98.4546 160.636 99.1642 158.854 99.1662H154.541C153.828 99.167 153.145 99.4509 152.641 99.9556C152.137 100.46 151.853 101.145 151.852 101.858V122.944C151.854 123.351 151.732 123.749 151.502 124.085C151.273 124.421 150.947 124.679 150.567 124.825C150.332 124.917 150.082 124.965 149.83 124.965Z" fill="white"/>
<path id="Vector_11" d="M149.83 124.965C149.552 124.965 149.276 124.906 149.021 124.793C148.766 124.68 148.537 124.515 148.35 124.308L126.128 100.039C125.876 99.7644 125.57 99.5449 125.229 99.3947C124.888 99.2444 124.519 99.1666 124.146 99.1662H6.72133C4.93933 99.1642 3.2309 98.4546 1.97084 97.1931C0.710779 95.9316 0.00200073 94.2212 0 92.4372V50.0427C0.00199954 48.2587 0.710779 46.5483 1.97084 45.2868C3.2309 44.0253 4.93933 43.3157 6.72133 43.3137H158.854C160.636 43.3157 162.345 44.0253 163.605 45.2868C164.865 46.5483 165.573 48.2587 165.575 50.0427V92.4372C165.573 94.2212 164.865 95.9316 163.605 97.1931C162.345 98.4546 160.636 99.1642 158.854 99.1662H154.541C153.828 99.167 153.145 99.4509 152.641 99.9556C152.137 100.46 151.853 101.145 151.852 101.858V122.944C151.854 123.351 151.732 123.749 151.502 124.085C151.273 124.421 150.947 124.679 150.567 124.825C150.332 124.917 150.082 124.965 149.83 124.965ZM6.72133 44.2104C5.17679 44.2121 3.69601 44.8272 2.60385 45.9206C1.5117 47.014 0.897366 48.4964 0.895623 50.0427V92.4372C0.897369 93.9835 1.51171 95.4659 2.60386 96.5593C3.69601 97.6527 5.17679 98.2678 6.72133 98.2695H124.146C124.643 98.2701 125.134 98.3738 125.589 98.5741C126.044 98.7744 126.452 99.0669 126.789 99.4332L149.01 123.702C149.162 123.869 149.362 123.986 149.582 124.037C149.802 124.088 150.032 124.072 150.242 123.99C150.453 123.908 150.633 123.764 150.761 123.578C150.888 123.391 150.957 123.17 150.957 122.944V101.858C150.958 100.907 151.336 99.9946 152.008 99.3218C152.68 98.649 153.591 98.2706 154.541 98.2695H158.854C160.399 98.2678 161.879 97.6527 162.972 96.5593C164.064 95.4659 164.678 93.9835 164.68 92.4372V50.0427C164.678 48.4964 164.064 47.014 162.972 45.9206C161.879 44.8272 160.399 44.2121 158.854 44.2104H6.72133Z" fill="#3F3D56"/>
<path id="Vector_12" d="M16.4866 62.015C19.7349 62.015 22.3681 59.3788 22.3681 56.1269C22.3681 52.875 19.7349 50.2388 16.4866 50.2388C13.2384 50.2388 10.6052 52.875 10.6052 56.1269C10.6052 59.3788 13.2384 62.015 16.4866 62.015Z" fill="#C8E9F9"/>
<path id="Vector_13" d="M151.992 88.7079H13.5829C13.1707 88.7084 12.7624 88.6275 12.3814 88.47C12.0004 88.3124 11.6541 88.0811 11.3624 87.7895C11.0708 87.4978 10.8394 87.1515 10.6815 86.7702C10.5236 86.389 10.4424 85.9803 10.4424 85.5676C10.4424 85.1549 10.5236 84.7462 10.6815 84.365C10.8394 83.9837 11.0708 83.6374 11.3624 83.3457C11.6541 83.054 12.0004 82.8228 12.3814 82.6652C12.7624 82.5076 13.1707 82.4268 13.5829 82.4272H151.992C152.824 82.4282 153.621 82.7595 154.208 83.3484C154.795 83.9372 155.125 84.7354 155.125 85.5676C155.125 86.3998 154.795 87.198 154.208 87.7868C153.621 88.3756 152.824 88.7069 151.992 88.7079Z" fill="#E6E6E6"/>
<path id="Vector_14" d="M106.901 75.3615H13.5829C13.1707 75.362 12.7624 75.2811 12.3814 75.1235C12.0004 74.9659 11.6541 74.7347 11.3624 74.443C11.0708 74.1514 10.8394 73.805 10.6815 73.4238C10.5236 73.0425 10.4424 72.6339 10.4424 72.2212C10.4424 71.8084 10.5236 71.3998 10.6815 71.0185C10.8394 70.6373 11.0708 70.2909 11.3624 69.9993C11.6541 69.7076 12.0004 69.4764 12.3814 69.3188C12.7624 69.1612 13.1707 69.0803 13.5829 69.0808H106.901C107.733 69.0808 108.531 69.4117 109.12 70.0006C109.708 70.5895 110.038 71.3883 110.038 72.2212C110.038 73.054 109.708 73.8528 109.12 74.4417C108.531 75.0306 107.733 75.3615 106.901 75.3615Z" fill="#E6E6E6"/>
</g>
<path id="Vector_15" d="M201.147 281.865C194.908 285.865 187.68 288.045 180.273 288.163C172.866 288.281 165.572 286.332 159.209 282.533C160.329 280.447 161.747 278.536 163.419 276.862C165.999 274.267 169.139 272.298 172.597 271.107C176.055 269.917 179.74 269.535 183.369 269.993C186.998 270.451 190.473 271.735 193.529 273.747C196.584 275.759 199.138 278.446 200.995 281.601C201.044 281.686 201.098 281.775 201.147 281.865Z" fill="#C8E9F9"/>
<path id="Vector_16" d="M178.427 260.426C189.359 260.426 198.221 251.554 198.221 240.609C198.221 229.665 189.359 220.793 178.427 220.793C167.495 220.793 158.633 229.665 158.633 240.609C158.633 251.554 167.495 260.426 178.427 260.426Z" fill="#2F2E41"/>
<path id="Vector_17" d="M193.156 254.587C197.058 247.439 194.435 238.478 187.295 234.571C180.156 230.664 171.205 233.29 167.302 240.438C163.4 247.585 166.023 256.547 173.163 260.454C180.302 264.361 189.253 261.734 193.156 254.587Z" fill="#FFB8B8"/>
<path id="Vector_18" d="M164.749 238.235C168.115 240.558 172.111 241.795 176.2 241.778C174.741 242.791 173.081 243.475 171.333 243.783C176.769 244.95 182.387 244.982 187.836 243.876C189.048 243.681 190.216 243.279 191.291 242.688C191.827 242.388 192.294 241.979 192.661 241.487C193.028 240.995 193.288 240.432 193.424 239.832C193.786 237.762 192.174 235.88 190.499 234.612C187.934 232.701 184.977 231.383 181.842 230.756C178.707 230.129 175.471 230.207 172.37 230.985C170.345 231.509 168.316 232.395 167.001 234.023C165.685 235.651 165.296 238.161 166.549 239.838L164.749 238.235Z" fill="#2F2E41"/>
<path id="person ring 2" d="M179.638 288.617C169.944 288.614 160.576 285.111 153.253 278.753C145.93 272.394 141.142 263.605 139.767 253.998C138.393 244.391 140.525 234.61 145.771 226.449C151.018 218.288 159.028 212.295 168.331 209.568C177.635 206.842 187.608 207.565 196.423 211.605C205.237 215.644 212.301 222.73 216.318 231.563C220.336 240.395 221.038 250.382 218.296 259.69C215.554 268.999 209.551 277.006 201.389 282.242C194.898 286.409 187.349 288.621 179.638 288.617ZM179.638 208.815C171.843 208.814 164.223 211.128 157.741 215.463C151.26 219.798 146.208 225.961 143.224 233.17C140.241 240.38 139.46 248.314 140.981 255.968C142.501 263.622 146.255 270.653 151.767 276.171C157.279 281.689 164.302 285.447 171.947 286.969C179.592 288.492 187.517 287.71 194.718 284.723C201.92 281.736 208.075 276.679 212.405 270.19C216.736 263.7 219.047 256.072 219.046 248.268C219.034 237.808 214.878 227.78 207.491 220.384C200.103 212.987 190.086 208.827 179.638 208.815Z" fill="#3F3D56"/>
<g id="message-right">
<path id="Vector_19" d="M248.565 268.737C248.186 268.591 247.859 268.333 247.63 267.997C247.4 267.661 247.278 267.263 247.28 266.856V245.77C247.279 245.056 246.996 244.372 246.491 243.867C245.987 243.362 245.304 243.078 244.591 243.078H240.278C238.496 243.076 236.788 242.366 235.527 241.104C234.267 239.843 233.559 238.133 233.557 236.349V193.954C233.559 192.17 234.267 190.46 235.527 189.198C236.788 187.937 238.496 187.227 240.278 187.225H392.411C394.193 187.227 395.901 187.937 397.161 189.198C398.421 190.46 399.13 192.17 399.132 193.954V236.349C399.13 238.133 398.421 239.843 397.161 241.104C395.901 242.366 394.193 243.076 392.411 243.078H274.986C274.613 243.078 274.245 243.156 273.903 243.306C273.562 243.456 273.256 243.676 273.004 243.951L250.782 268.22C250.595 268.426 250.366 268.591 250.111 268.704C249.856 268.817 249.58 268.876 249.302 268.876C249.05 268.876 248.8 268.829 248.565 268.737Z" fill="white"/>
<path id="Vector_20" d="M248.565 268.737C248.186 268.591 247.859 268.333 247.63 267.997C247.4 267.661 247.278 267.263 247.28 266.856V245.77C247.279 245.056 246.996 244.372 246.491 243.867C245.987 243.362 245.304 243.078 244.591 243.078H240.278C238.496 243.076 236.788 242.366 235.527 241.104C234.267 239.843 233.559 238.133 233.557 236.349V193.954C233.559 192.17 234.267 190.46 235.527 189.198C236.788 187.937 238.496 187.227 240.278 187.225H392.411C394.193 187.227 395.901 187.937 397.161 189.198C398.421 190.46 399.13 192.17 399.132 193.954V236.349C399.13 238.133 398.421 239.843 397.161 241.104C395.901 242.366 394.193 243.076 392.411 243.078H274.986C274.613 243.078 274.245 243.156 273.903 243.306C273.562 243.456 273.256 243.676 273.004 243.951L250.782 268.22C250.595 268.426 250.366 268.591 250.111 268.704C249.856 268.817 249.58 268.876 249.302 268.876C249.05 268.876 248.8 268.829 248.565 268.737ZM240.278 188.122C238.733 188.123 237.253 188.739 236.16 189.832C235.068 190.925 234.454 192.408 234.452 193.954V236.349C234.454 237.895 235.068 239.377 236.16 240.471C237.253 241.564 238.733 242.179 240.278 242.181H244.591C245.541 242.182 246.452 242.56 247.125 243.233C247.797 243.906 248.175 244.818 248.176 245.77V266.856C248.176 267.082 248.244 267.302 248.371 267.489C248.499 267.676 248.68 267.819 248.89 267.901C249.1 267.983 249.331 268 249.551 267.948C249.77 267.897 249.97 267.78 250.122 267.614L272.344 243.345C272.68 242.978 273.088 242.686 273.543 242.485C273.998 242.285 274.489 242.181 274.986 242.181H392.411C393.955 242.179 395.436 241.564 396.528 240.471C397.62 239.377 398.235 237.895 398.236 236.349V193.954C398.235 192.408 397.62 190.925 396.528 189.832C395.436 188.739 393.955 188.123 392.411 188.122H240.278Z" fill="#3F3D56"/>
<path id="Vector_21" d="M252.483 205.478C255.731 205.478 258.365 202.842 258.365 199.59C258.365 196.338 255.731 193.702 252.483 193.702C249.235 193.702 246.602 196.338 246.602 199.59C246.602 202.842 249.235 205.478 252.483 205.478Z" fill="#C8E9F9"/>
<path id="Vector_22" d="M387.989 232.171H249.58C249.167 232.172 248.759 232.091 248.378 231.933C247.997 231.776 247.651 231.544 247.359 231.253C247.068 230.961 246.836 230.615 246.678 230.234C246.52 229.852 246.439 229.444 246.439 229.031C246.439 228.618 246.52 228.21 246.678 227.828C246.836 227.447 247.068 227.101 247.359 226.809C247.651 226.517 247.997 226.286 248.378 226.129C248.759 225.971 249.167 225.89 249.58 225.891H387.989C388.821 225.891 389.619 226.221 390.207 226.81C390.796 227.399 391.126 228.198 391.126 229.031C391.126 229.864 390.796 230.663 390.207 231.252C389.619 231.84 388.821 232.171 387.989 232.171Z" fill="#E6E6E6"/>
<path id="Vector_23" d="M342.898 218.825H249.58C249.167 218.825 248.759 218.744 248.378 218.587C247.997 218.429 247.651 218.198 247.359 217.906C247.068 217.615 246.836 217.268 246.678 216.887C246.52 216.506 246.439 216.097 246.439 215.684C246.439 215.272 246.52 214.863 246.678 214.482C246.836 214.1 247.068 213.754 247.359 213.462C247.651 213.171 247.997 212.94 248.378 212.782C248.759 212.624 249.167 212.543 249.58 212.544H342.898C343.73 212.545 344.526 212.876 345.114 213.465C345.701 214.054 346.031 214.852 346.031 215.684C346.031 216.517 345.701 217.315 345.114 217.904C344.526 218.492 343.73 218.824 342.898 218.825Z" fill="#E6E6E6"/>
</g>
<path id="Vector_24" d="M248.376 272.751C254.436 272.751 259.349 272.205 259.349 271.531C259.349 270.858 254.436 270.312 248.376 270.312C242.315 270.312 237.403 270.858 237.403 271.531C237.403 272.205 242.315 272.751 248.376 272.751Z" fill="#F2F2F2"/>
<path id="Vector_25" d="M150.305 129.287C156.365 129.287 161.278 128.742 161.278 128.068C161.278 127.395 156.365 126.849 150.305 126.849C144.245 126.849 139.332 127.395 139.332 128.068C139.332 128.742 144.245 129.287 150.305 129.287Z" fill="#F2F2F2"/>
</g>
<defs>
<clipPath id="clip0_95_42">
<rect width="399" height="334" fill="white"/>
</clipPath>
</defs>
</svg>
