<svg width="37" height="40" viewBox="0 0 37 40" fill="none" xmlns="http://www.w3.org/2000/svg">
<g id="contactIll">
<rect x="0.5" y="1.0415" width="36" height="37.6051" rx="2.5" fill="#C8E9F9" fill-opacity="0.71"/>
<rect x="0.5" y="1.0415" width="36" height="37.6051" rx="2.5" stroke="#004661"/>
<g id="Layer_x0020_1">
<path id="people" d="M27.9317 7.09407C28.9594 7.09407 28.9594 8.68179 27.9317 8.68179H27.6441V9.78609C28.8135 9.84061 29.6189 10.7656 29.6189 11.9217C29.6189 13.0783 28.8139 14.0029 27.6441 14.0574V14.3784C27.6441 15.4228 26.0813 15.4228 26.0813 14.3784V14.0605H25.7937C24.7656 14.0605 24.7656 12.4727 25.7937 12.4727H26.0813V11.3684C24.9115 11.3139 24.1061 10.3889 24.1061 9.23278C24.1061 8.07626 24.9115 7.15166 26.0813 7.09714V6.77614C26.0813 5.73212 27.6441 5.73212 27.6441 6.77614V7.09407H27.9317ZM26.9445 17.186L24.8938 21.9219C24.4803 22.8764 23.0512 22.2379 23.4651 21.283L25.3197 16.9998C23.0278 16.4334 21.2057 14.6314 20.5855 12.3203L16.5754 14.2044C15.6437 14.641 14.9906 13.2019 15.9223 12.7657L20.3576 10.6815C20.3572 10.647 20.3568 10.612 20.3568 10.5775C20.3568 6.92704 23.2697 3.96777 26.8625 3.96777C30.4557 3.96777 33.3682 6.92704 33.3682 10.5775C33.3682 14.1948 30.5045 17.1418 26.9445 17.186ZM26.8625 5.55588C24.1326 5.55588 21.9196 7.80403 21.9196 10.5775C21.9196 13.3509 24.1326 15.599 26.8625 15.599C29.5925 15.599 31.8054 13.3509 31.8054 10.5775C31.8054 7.80403 29.5925 5.55588 26.8625 5.55588ZM22.8487 24.2438C24.6738 24.2438 26.1535 25.747 26.1535 27.6012C26.1535 28.3211 25.9301 28.9885 25.5503 29.5349C26.443 30.3266 26.9578 31.4647 26.9578 32.6719V34.9258C26.9578 35.3643 26.6078 35.7199 26.1761 35.7199H19.5208C19.0895 35.7199 18.7396 35.3643 18.7396 34.9258V32.6719C18.7396 31.4647 19.2543 30.327 20.1467 29.5353C19.7668 28.9885 19.5435 28.3211 19.5435 27.6012C19.5435 25.747 21.0235 24.2438 22.8487 24.2438ZM24.3571 30.5893C23.9047 30.8254 23.3922 30.9586 22.8487 30.9586C22.3052 30.9586 21.7923 30.8254 21.3402 30.5893C20.6921 31.0792 20.3024 31.8487 20.3024 32.6719V34.1318H25.3945V32.6719C25.3945 31.8487 25.0053 31.0788 24.3571 30.5893ZM22.8487 25.8315C21.8864 25.8315 21.1067 26.6236 21.1067 27.6012C21.1067 28.5784 21.8864 29.3709 22.8487 29.3709C23.8105 29.3709 24.5906 28.5784 24.5906 27.6012C24.5906 26.6236 23.8105 25.8315 22.8487 25.8315ZM10.7409 24.2438C12.5661 24.2438 14.0458 25.747 14.0458 27.6012C14.0458 28.3211 13.8224 28.9885 13.4425 29.5349C14.3349 30.3266 14.8497 31.4647 14.8497 32.6719V34.9258C14.8497 35.3643 14.4997 35.7199 14.0684 35.7199H7.41306C6.98144 35.7199 6.63184 35.3643 6.63184 34.9258V32.6719C6.63184 31.4647 7.14661 30.327 8.03895 29.5353C7.65911 28.9885 7.43574 28.3211 7.43574 27.6012C7.43574 25.747 8.9158 24.2438 10.7409 24.2438ZM12.249 30.5893C11.7969 30.8254 11.2841 30.9586 10.7409 30.9586C10.1974 30.9586 9.68456 30.8254 9.23253 30.5893C8.58396 31.0792 8.19467 31.8487 8.19467 32.6719V34.1318H13.2868V32.6719C13.2868 31.8487 12.8972 31.0788 12.249 30.5893ZM10.7409 25.8315C9.77867 25.8315 8.99858 26.6236 8.99858 27.6012C8.99858 28.5784 9.77867 29.3709 10.7409 29.3709C11.7028 29.3709 12.4825 28.5784 12.4825 27.6012C12.4825 26.6236 11.7028 25.8315 10.7409 25.8315ZM10.7409 11.1331C12.5661 11.1331 14.0458 12.6363 14.0458 14.4905C14.0458 15.2104 13.8224 15.8778 13.4425 16.4246C14.3349 17.2159 14.8497 18.3544 14.8497 19.5616V21.8151C14.8497 22.2536 14.4997 22.6092 14.0684 22.6092H7.41306C6.98182 22.6092 6.63184 22.2536 6.63184 21.8151V19.5616C6.63184 18.3544 7.14661 17.2159 8.03895 16.4246C7.65911 15.8778 7.43574 15.2104 7.43574 14.4905C7.43574 12.6363 8.9158 11.1331 10.7409 11.1331ZM12.249 17.4786C11.7969 17.7147 11.2841 17.8479 10.7409 17.8479C10.1974 17.8479 9.68456 17.7147 9.23253 17.4786C8.58434 17.9685 8.19467 18.738 8.19467 19.5616V21.0215H13.2868V19.5616C13.2868 18.738 12.8972 17.9685 12.249 17.4786ZM10.7409 12.7208C9.77867 12.7208 8.99858 13.5129 8.99858 14.4905C8.99858 15.4681 9.77867 16.2602 10.7409 16.2602C11.7028 16.2602 12.4825 15.4681 12.4825 14.4905C12.4825 13.5129 11.7028 12.7208 10.7409 12.7208ZM26.0813 8.69177C25.7974 8.7413 25.6689 8.95825 25.6689 9.23278C25.6689 9.50694 25.7974 9.72388 26.0813 9.77342V8.69177ZM27.6441 12.4624C27.928 12.4128 28.0561 12.1959 28.0561 11.9217C28.0561 11.6476 27.928 11.431 27.6441 11.3811V12.4624Z" fill="#004661"/>
</g>
</g>
</svg>
