<svg viewBox="0 0 50 50" xml:space="preserve" xmlns="http://www.w3.org/2000/svg"><path fill="none" d="M0 0h50v50H0z"></path><path fill="none" stroke="#004661" stroke-linecap="round" stroke-linejoin="round" stroke-miterlimit="10" stroke-width="2" d="M15 20H5v12h8v-8l2-2zM49 44.646a5.46 5.46 0 0 1-1.846.296c-1.538 0-3.902-.42-5.539-1.71-1.637 1.29-4 1.71-5.538 1.71s-3.901-.42-5.539-1.71c-1.637 1.29-4 1.71-5.538 1.71s-3.901-.42-5.539-1.71c-1.637 1.29-4 1.71-5.538 1.71s-3.901-.42-5.538-1.71c-1.637 1.29-4.001 1.71-5.539 1.71-.69 0-1.291-.062-1.846-.147M49 48.646a5.46 5.46 0 0 1-1.846.296c-1.538 0-3.902-.42-5.539-1.71-1.637 1.29-4 1.71-5.538 1.71s-3.901-.42-5.539-1.71c-1.637 1.29-4 1.71-5.538 1.71s-3.901-.42-5.539-1.71c-1.637 1.29-4 1.71-5.538 1.71s-3.901-.42-5.538-1.71c-1.637 1.29-4.001 1.71-5.539 1.71-.69 0-1.291-.062-1.846-.147" class="stroke-000000"></path><path d="M36 45c5.361 0 13-11.463 13-18.5 0-1-.333-1.5-1.333-1.5H38c-1.209 0-1.902.27-2.408.69C34.613 26.507 33.135 32 29 32H3c-1 0-2 1-2 1.924v2.956c0 1.603 2.018 4.964 5.294 6.74" fill="none" stroke="#004661" stroke-linecap="round" stroke-linejoin="round" stroke-miterlimit="10" stroke-width="2.002" class="stroke-000000"></path><path fill="none" stroke="#004661" stroke-linecap="round" stroke-linejoin="round" stroke-miterlimit="10" stroke-width="2" d="M10 19v-4" class="stroke-000000"></path><path d="M43 31.05c0 .919-.919.95-.919.95h-2.015S39 31.94 39 31.021v-1.306s.034-.386.653-.386c.62 0 .68.386.68.386v.8s.062.387.653.387.681-.387.681-.387v-.8s.062-.386.682-.386c.621 0 .651.386.651.386v1.335z" fill="#004661" class="fill-000000"></path></svg>