<svg width="1100" height="522" viewBox="0 0 1100 522" fill="none" xmlns="http://www.w3.org/2000/svg">
<path d="M1100 0H0V521.019H1100V0Z" fill="#ECEFF0"/>
<path d="M34.3687 43.41H103.121V130.249L34.3687 43.41Z" fill="#DFEDF3"/>
<path d="M171.873 43.41H240.624L171.873 130.249V43.41Z" fill="#D1EAF7"/>
<path d="M309.376 43.41L378.128 130.249H309.376V43.41Z" fill="#C5E1EC"/>
<path d="M446.88 130.249C446.88 107.218 454.124 85.1299 467.017 68.8445C479.911 52.5591 497.398 43.41 515.632 43.41L446.88 130.249C465.115 130.249 482.602 121.1 495.495 104.814C508.389 88.5288 515.632 66.4411 515.632 43.41" fill="#D9ECF5"/>
<path d="M584.384 43.4102H653.136V130.249L584.384 43.4102Z" fill="#D7ECF5"/>
<path d="M721.873 43.41C740.107 43.41 757.595 52.5591 770.488 68.8445C783.382 85.1299 790.625 107.218 790.625 130.249H721.873V43.41Z" fill="#B5DBEA"/>
<path d="M859.377 130.249C859.377 107.218 866.62 85.1299 879.514 68.8445C892.407 52.5591 909.895 43.41 928.129 43.41L859.377 130.249C877.611 130.249 895.098 121.1 907.992 104.814C920.885 88.5288 928.129 66.4411 928.129 43.41" fill="#13A1D8"/>
<path d="M996.881 43.41C1015.12 43.41 1032.6 52.5591 1045.5 68.8445C1058.39 85.1299 1065.63 107.218 1065.63 130.249H996.881V43.41Z" fill="#D1EAF7"/>
<path d="M34.3687 217.087C34.3687 240.118 41.6121 262.206 54.5056 278.491C67.3991 294.777 84.8864 303.926 103.121 303.926V217.087H34.3687Z" fill="#C9E9F9"/>
<path d="M171.873 303.926C190.107 303.926 207.594 294.777 220.488 278.491C233.381 262.206 240.624 240.118 240.624 217.087H171.873V303.926Z" fill="#A0D4E8"/>
<path d="M378.128 217.087V303.926H309.376L378.128 217.087Z" fill="#C9E9F9"/>
<path d="M446.88 217.087L515.632 303.926H446.88V217.087Z" fill="#D8ECF5"/>
<path d="M584.384 217.087L653.136 303.926H584.384V217.087Z" fill="#D8ECF5"/>
<path d="M790.625 217.087V303.926H721.873L790.625 217.087Z" fill="#CBEAF8"/>
<path d="M928.129 217.087V303.926H859.377L928.129 217.087Z" fill="#C8E9F9"/>
<path d="M996.881 303.926C1015.12 303.926 1032.6 294.777 1045.5 278.491C1058.39 262.206 1065.63 240.118 1065.63 217.087H996.881V303.926Z" fill="#D2EBF7"/>
<path d="M34.3687 477.603C34.3687 454.572 41.6121 432.484 54.5056 416.199C67.3991 399.913 84.8864 390.764 103.121 390.764L34.3687 477.603C52.6028 477.603 70.0901 468.454 82.9836 452.169C95.8771 435.883 103.121 413.795 103.121 390.764" fill="#DBE9EE"/>
<path d="M171.873 390.764C190.107 390.764 207.594 399.913 220.488 416.199C233.381 432.484 240.624 454.572 240.624 477.603H171.873V390.764Z" fill="#E5EEF2"/>
<path d="M309.376 390.764H378.128V477.603L309.376 390.764Z" fill="#AAD7E9"/>
<path d="M446.88 477.603C446.88 454.572 454.124 432.484 467.017 416.199C479.911 399.913 497.398 390.764 515.632 390.764L446.88 477.603C465.115 477.603 482.602 468.454 495.495 452.169C508.389 435.883 515.632 413.795 515.632 390.764" fill="#D9E8EE"/>
<path d="M584.384 477.603C584.384 454.572 591.627 432.484 604.521 416.199C617.414 399.913 634.902 390.764 653.136 390.764L584.384 477.603C602.618 477.603 620.105 468.454 632.999 452.169C645.892 435.883 653.136 413.795 653.136 390.764" fill="#CCEAF8"/>
<path d="M721.873 390.764H790.625V477.603L721.873 390.764Z" fill="#85CAE5"/>
<path d="M859.377 390.764L928.129 477.603H859.377V390.764Z" fill="#E2EDF2"/>
<path d="M996.881 477.603C996.881 454.572 1004.12 432.484 1017.02 416.199C1029.91 399.913 1047.4 390.764 1065.63 390.764L996.881 477.603C1015.12 477.603 1032.6 468.454 1045.5 452.169C1058.39 435.883 1065.63 413.795 1065.63 390.764" fill="#D6EBF6"/>
</svg>
