<svg width="23" height="23" viewBox="0 0 23 23" fill="none" xmlns="http://www.w3.org/2000/svg">
<path d="M9.70996 11.1977C9.70996 12.1764 10.506 12.9701 11.4867 12.9701C12.1757 12.9701 12.7661 12.5751 13.0609 12.0035L13.0658 12.0079L16.3092 6.17065L10.6153 9.65372L10.6207 9.65909C10.08 9.96342 9.70996 10.5345 9.70996 11.1977Z" fill="#004661"/>
<path d="M18.645 2.7524C16.8244 1.16505 14.4721 0.151496 11.7842 0V2.69341C14.0241 2.83552 15.3438 3.54519 16.669 4.65258L18.645 2.7524Z" fill="#004661"/>
<path d="M19.9129 10.3581H22.6097C22.4287 7.6767 21.3773 5.47353 19.7449 3.66809L17.8369 5.55978C18.9864 6.87364 19.7426 8.57049 19.9129 10.3581Z" fill="#004661"/>
<path d="M19.9255 11.699C19.6401 16.1679 15.9286 19.7122 11.395 19.7122C6.67551 19.7122 2.69473 15.894 2.69473 11.1864C2.69473 6.70499 6.40806 3.03825 10.4399 2.69415V0.000732422C4.61613 0.348861 0.00683594 5.23696 0.00683594 11.198C0.00683594 17.3844 5.1228 22.3936 11.3242 22.3936C17.3415 22.3936 22.3401 17.5086 22.6273 11.699H19.9255Z" fill="#004661"/>
</svg>
