<svg width="148" height="176" viewBox="0 0 148 176" fill="none" xmlns="http://www.w3.org/2000/svg">
<g clip-path="url(#clip0_508_189)">
<rect x="-28.3125" y="-11.4404" width="370.894" height="299.358" rx="10" fill="#C8E9F9" fill-opacity="0.5"/>
<path d="M-213.759 175.658C-213.759 175.658 -167.398 100.819 -121.036 100.819C-74.6741 100.819 -28.3124 175.658 -28.3124 175.658C-28.3124 175.658 18.0493 250.498 64.411 250.498C110.773 250.498 157.134 175.658 157.134 175.658C157.134 175.658 203.496 100.819 249.858 100.819C296.22 100.819 342.581 175.658 342.581 175.658C342.581 175.658 388.943 250.498 435.305 250.498C481.666 250.498 528.028 175.658 528.028 175.658" stroke="#C8E9F9" stroke-width="12.1"/>
<path d="M-213.759 100.819C-213.759 100.819 -167.398 25.9794 -121.036 25.9794C-74.6741 25.9794 -28.3124 100.819 -28.3124 100.819C-28.3124 100.819 18.0493 175.658 64.411 175.658C110.773 175.658 157.134 100.819 157.134 100.819C157.134 100.819 203.496 25.9794 249.858 25.9794C296.22 25.9794 342.581 100.819 342.581 100.819C342.581 100.819 388.943 175.658 435.305 175.658C481.666 175.658 528.028 100.819 528.028 100.819" stroke="#C8E9F9" stroke-width="12.1"/>
<path d="M-213.759 250.497C-213.759 250.497 -167.398 175.658 -121.036 175.658C-74.6741 175.658 -28.3124 250.497 -28.3124 250.497C-28.3124 250.497 18.0493 325.337 64.411 325.337C110.773 325.337 157.134 250.497 157.134 250.497C157.134 250.497 203.496 175.658 249.858 175.658C296.22 175.658 342.581 250.497 342.581 250.497C342.581 250.497 388.943 325.337 435.305 325.337C481.666 325.337 528.028 250.497 528.028 250.497" stroke="#C8E9F9" stroke-width="12.1"/>
<path d="M-213.759 25.9793C-213.759 25.9793 -167.398 -48.8601 -121.036 -48.8601C-74.6741 -48.8601 -28.3124 25.9793 -28.3124 25.9793C-28.3124 25.9793 18.0493 100.819 64.411 100.819C110.773 100.819 157.134 25.9793 157.134 25.9793C157.134 25.9793 203.496 -48.8601 249.858 -48.8601C296.22 -48.8601 342.581 25.9793 342.581 25.9793C342.581 25.9793 388.943 100.819 435.305 100.819C481.666 100.819 528.028 25.9793 528.028 25.9793" stroke="#C8E9F9" stroke-width="12.1"/>
<path d="M-213.759 -48.8601C-213.759 -48.8601 -167.398 -123.699 -121.036 -123.699C-74.6741 -123.699 -28.3124 -48.8601 -28.3124 -48.8601C-28.3124 -48.8601 18.0493 25.9793 64.411 25.9793C110.773 25.9793 157.134 -48.8601 157.134 -48.8601C157.134 -48.8601 203.496 -123.699 249.858 -123.699C296.22 -123.699 342.581 -48.8601 342.581 -48.8601C342.581 -48.8601 388.943 25.9793 435.305 25.9793C481.666 25.9793 528.028 -48.8601 528.028 -48.8601" stroke="#C8E9F9" stroke-width="12.1"/>
</g>
<defs>
<clipPath id="clip0_508_189">
<rect width="148" height="176" rx="10" fill="white"/>
</clipPath>
</defs>
</svg>
