<svg width="26" height="26" viewBox="0 0 26 26" fill="none" xmlns="http://www.w3.org/2000/svg">
<path d="M13.0004 0.531982C12.9944 0.531982 12.9944 0.531982 12.9884 0.531982C12.9884 0.531982 12.9884 0.531982 12.9824 0.531982C12.9764 0.531982 12.9704 0.531982 12.9704 0.531982C6.089 0.550212 0.521484 6.20125 0.521484 13.1709C0.521484 20.1405 6.089 25.7915 12.9704 25.8098C12.9764 25.8098 12.9824 25.8098 12.9824 25.8098H12.9884C12.9944 25.8098 12.9944 25.8098 13.0004 25.8098C19.8938 25.8098 25.4793 20.1526 25.4793 13.1709C25.4793 6.1891 19.8938 0.531982 13.0004 0.531982ZM13.4983 8.09709C14.8242 8.06063 16.1081 7.88441 17.35 7.58059C17.722 9.06931 17.956 10.7889 17.9919 12.6726H13.4983V8.09709ZM13.4983 7.08233V1.62573C14.8422 2.00247 16.2101 3.81931 17.074 6.60837C15.9221 6.88789 14.7282 7.04587 13.4983 7.08233ZM12.5024 1.61358V7.08841C11.2605 7.05195 10.0546 6.88789 8.89675 6.60229C9.77267 3.795 11.1466 1.96601 12.5024 1.61358ZM12.5024 8.09709V12.6665H7.97883C8.01483 10.7829 8.24881 9.06323 8.62077 7.57452C9.86866 7.87834 11.1705 8.06063 12.5024 8.09709ZM6.97092 12.6665H1.5354C1.64339 10.0658 2.6033 7.68389 4.13317 5.80021C5.24307 6.42 6.42496 6.93042 7.66086 7.30716C7.25289 8.9174 7.01291 10.7342 6.97092 12.6665ZM6.97092 13.6752C7.00691 15.6014 7.24689 17.4243 7.65486 19.0346C6.41897 19.4174 5.24307 19.9217 4.12717 20.5415C2.5973 18.6579 1.64339 16.2759 1.5294 13.6752H6.97092ZM7.97883 13.6752H12.5024V18.2386C11.1705 18.275 9.86866 18.4573 8.62077 18.7672C8.24881 17.2785 8.01483 15.5589 7.97883 13.6752ZM12.5024 19.2533V24.7342C11.1466 24.3757 9.77267 22.5528 8.89675 19.7455C10.0546 19.4539 11.2605 19.2898 12.5024 19.2533ZM13.4983 24.716V19.2473C14.7282 19.2837 15.9221 19.4478 17.08 19.7273C16.2101 22.5224 14.8482 24.3393 13.4983 24.716ZM13.4983 18.2386V13.6752H17.9919C17.956 15.5528 17.722 17.2724 17.35 18.7612C16.1081 18.4573 14.8242 18.275 13.4983 18.2386ZM18.9939 13.6752H24.4654C24.3574 16.2759 23.3975 18.6518 21.8676 20.5415C20.7457 19.9157 19.5578 19.4052 18.3099 19.0224C18.7179 17.4122 18.9579 15.6014 18.9939 13.6752ZM18.9939 12.6665C18.9579 10.7403 18.7179 8.92348 18.3159 7.31323C19.5638 6.93042 20.7517 6.42 21.8676 5.80021C23.3975 7.68389 24.3574 10.0658 24.4654 12.6726H18.9939V12.6665ZM21.1837 5.02243C20.1878 5.55716 19.1438 6.00073 18.0459 6.33493C17.464 4.43302 16.6421 2.88355 15.6762 1.86271C17.8 2.3792 19.6958 3.49726 21.1837 5.02243ZM10.2886 1.87486C9.32271 2.88962 8.50678 4.4391 7.93083 6.32886C6.84493 5.99466 5.80702 5.55716 4.82311 5.02243C6.29298 3.50334 8.17681 2.39136 10.2886 1.87486ZM4.81711 21.3132C5.80102 20.7785 6.84493 20.341 7.92483 20.0068C8.50678 21.9026 9.32271 23.446 10.2886 24.4669C8.17681 23.9504 6.29298 22.8384 4.81711 21.3132ZM15.6762 24.479C16.6481 23.4582 17.464 21.9087 18.0519 20.0007C19.1498 20.3349 20.1938 20.7785 21.1897 21.3132C19.7018 22.8445 17.8 23.9625 15.6762 24.479Z" fill="#004661"/>
</svg>
