<svg width="26" height="26" viewBox="0 0 26 26" fill="none" xmlns="http://www.w3.org/2000/svg">
<path d="M12.892 0.531982C12.886 0.531982 12.886 0.531982 12.88 0.531982C12.88 0.531982 12.88 0.531982 12.874 0.531982C12.868 0.531982 12.862 0.531982 12.862 0.531982C5.9806 0.550212 0.413086 6.20125 0.413086 13.1709C0.413086 20.1405 5.9806 25.7915 12.862 25.8098C12.868 25.8098 12.874 25.8098 12.874 25.8098H12.88C12.886 25.8098 12.886 25.8098 12.892 25.8098C19.7854 25.8098 25.3709 20.1526 25.3709 13.1709C25.3709 6.1891 19.7854 0.531982 12.892 0.531982ZM13.3899 8.09709C14.7158 8.06063 15.9997 7.88441 17.2416 7.58059C17.6136 9.06931 17.8476 10.7889 17.8836 12.6726H13.3899V8.09709ZM13.3899 7.08233V1.62573C14.7338 2.00247 16.1017 3.81931 16.9656 6.60837C15.8137 6.88789 14.6198 7.04587 13.3899 7.08233ZM12.394 1.61358V7.08841C11.1521 7.05195 9.94625 6.88789 8.78835 6.60229C9.66427 3.795 11.0382 1.96601 12.394 1.61358ZM12.394 8.09709V12.6665H7.87043C7.90643 10.7828 8.14041 9.06323 8.51237 7.57452C9.76026 7.87834 11.0621 8.06063 12.394 8.09709ZM6.86252 12.6665H1.427C1.53499 10.0658 2.4949 7.68389 4.02477 5.80021C5.13467 6.42 6.31657 6.93042 7.55246 7.30716C7.14449 8.9174 6.90452 10.7342 6.86252 12.6665ZM6.86252 13.6752C6.89852 15.6014 7.13849 17.4243 7.54646 19.0346C6.31057 19.4174 5.13467 19.9217 4.01877 20.5415C2.4889 18.6578 1.53499 16.2759 1.421 13.6752H6.86252ZM7.87043 13.6752H12.394V18.2386C11.0621 18.275 9.76026 18.4573 8.51237 18.7672C8.14041 17.2785 7.90643 15.5589 7.87043 13.6752ZM12.394 19.2533V24.7342C11.0382 24.3757 9.66427 22.5528 8.78835 19.7455C9.94625 19.4539 11.1521 19.2898 12.394 19.2533ZM13.3899 24.716V19.2473C14.6198 19.2837 15.8137 19.4478 16.9716 19.7273C16.1017 22.5224 14.7398 24.3393 13.3899 24.716ZM13.3899 18.2386V13.6752H17.8836C17.8476 15.5528 17.6136 17.2724 17.2416 18.7612C15.9997 18.4573 14.7158 18.275 13.3899 18.2386ZM18.8855 13.6752H24.357C24.249 16.2759 23.2891 18.6518 21.7592 20.5415C20.6373 19.9157 19.4494 19.4052 18.2015 19.0224C18.6095 17.4122 18.8495 15.6014 18.8855 13.6752ZM18.8855 12.6665C18.8495 10.7403 18.6095 8.92348 18.2075 7.31323C19.4554 6.93042 20.6433 6.42 21.7592 5.80021C23.2891 7.68389 24.249 10.0658 24.357 12.6726H18.8855V12.6665ZM21.0753 5.02243C20.0794 5.55716 19.0354 6.00073 17.9375 6.33493C17.3556 4.43302 16.5337 2.88355 15.5678 1.86271C17.6916 2.3792 19.5874 3.49726 21.0753 5.02243ZM10.1802 1.87486C9.21431 2.88962 8.39838 4.4391 7.82243 6.32886C6.73653 5.99466 5.69862 5.55716 4.71471 5.02243C6.18458 3.50334 8.06841 2.39136 10.1802 1.87486ZM4.70871 21.3132C5.69262 20.7785 6.73653 20.341 7.81643 20.0068C8.39838 21.9026 9.21431 23.446 10.1802 24.4669C8.06841 23.9504 6.18458 22.8384 4.70871 21.3132ZM15.5678 24.479C16.5397 23.4582 17.3556 21.9087 17.9435 20.0007C19.0414 20.3349 20.0854 20.7785 21.0813 21.3132C19.5934 22.8445 17.6916 23.9625 15.5678 24.479Z" fill="#004661"/>
</svg>
