<svg width="49" height="30" viewBox="0 0 49 30" fill="none" xmlns="http://www.w3.org/2000/svg">
<path d="M44.4824 14.3924L22.8918 23.4683C21.2457 24.1519 19.4082 24.1139 17.8387 23.3544L7.19648 18.038L5.81836 20.7342L16.4988 26.0506C17.7621 26.6582 19.1402 26.962 20.5184 26.962C21.7434 26.962 22.9684 26.7342 24.0785 26.2405L45.6691 17.2025C46.8176 16.7088 47.698 15.7974 48.1574 14.6582C48.6168 13.481 48.5785 12.2278 48.0426 11.0886C47.009 8.88606 44.291 7.86074 41.9559 8.84808L40.616 9.4177L34.1082 12.1519L35.2949 14.962L41.8027 12.2278L43.1426 11.6582C43.9465 11.3164 44.9035 11.6202 45.248 12.3797C45.4395 12.7595 45.4395 13.1772 45.2863 13.5569C45.1332 13.9367 44.8652 14.2405 44.4824 14.3924Z" fill="#004661" fill-opacity="0.84"/>
<path d="M3.44531 12.114L7.04375 9.15195C9.11094 7.59499 11.6375 6.91144 14.2023 7.21524C15.2359 7.32917 16.193 7.59499 17.1117 8.01271L27.0266 12.3798C27.2945 12.4937 27.5242 12.6836 27.6773 12.9494C27.9453 13.3671 27.9836 13.8988 27.7922 14.3925C27.7156 14.5444 27.6391 14.6583 27.5625 14.7722C27.1031 15.2659 26.4141 15.4178 25.8016 15.152L18.1453 11.7722L16.882 14.5444L24.5383 17.9241C25.1508 18.1899 25.8016 18.3418 26.4141 18.3418C27.7156 18.3418 28.9406 17.8102 29.8594 16.7849C30.1656 16.4431 30.4336 16.0633 30.625 15.6456C31.2375 14.2406 31.1227 12.6456 30.3187 11.3545C29.8211 10.595 29.132 9.98739 28.3281 9.64562L18.375 5.24056C17.1883 4.70891 15.8867 4.36714 14.5852 4.21524C11.2164 3.83549 7.88594 4.74689 5.20625 6.75954L0.382812 10.6709V27.3418H3.44531V12.114Z" fill="#004661" fill-opacity="0.84"/>
</svg>
