<svg width="48" height="48" viewBox="0 0 48 48" fill="none" xmlns="http://www.w3.org/2000/svg">
<g clip-path="url(#clip0_548_156)">
<path d="M42 48H28V35H20V48H6V27C6 26.448 6.447 26 7 26C7.553 26 8 26.448 8 27V46H18V33H30V46H40V28C40 27.448 40.447 27 41 27C41.553 27 42 27.448 42 28V48Z" fill="#004661" fill-opacity="0.59"/>
<path d="M46.9998 27.0002C46.7508 27.0002 46.5028 26.9082 46.3088 26.7232L23.9998 5.38421L1.69077 26.7232C1.29177 27.1042 0.658766 27.0912 0.276766 26.6922C-0.105234 26.2932 -0.090234 25.6602 0.307766 25.2782L23.9998 2.61621L47.6908 25.2772C48.0888 25.6592 48.1038 26.2922 47.7218 26.6912C47.5258 26.8962 47.2638 27.0002 46.9998 27.0002Z" fill="#004661" fill-opacity="0.59"/>
<path d="M39 15C38.447 15 38 14.552 38 14V8H32C31.447 8 31 7.552 31 7C31 6.448 31.447 6 32 6H40V14C40 14.552 39.553 15 39 15Z" fill="#004661" fill-opacity="0.59"/>
</g>
<defs>
<clipPath id="clip0_548_156">
<rect width="48" height="48" fill="white"/>
</clipPath>
</defs>
</svg>
