<svg width="29" height="33" viewBox="0 0 29 33" fill="none" xmlns="http://www.w3.org/2000/svg">
<mask id="mask0_237_300" style="mask-type:luminance" maskUnits="userSpaceOnUse" x="0" y="0" width="29" height="33">
<path d="M28.8189 0H0V32.7982H28.8189V0Z" fill="white"/>
</mask>
<g mask="url(#mask0_237_300)">
<path d="M28.6288 17.4795C28.6655 20.5495 28.7151 23.6192 28.7321 26.6892C28.7382 27.8104 28.6457 28.9318 28.6355 30.0533C28.6214 31.6335 27.2764 32.58 25.733 32.6084C22.6155 32.6658 19.497 32.7365 16.3794 32.7214C12.6183 32.7033 8.85752 32.615 5.0974 32.5266C4.22732 32.4874 3.36049 32.4014 2.50121 32.2692C1.45368 32.1308 0.426355 31.0158 0.38909 29.9616C0.295262 27.2962 0.185109 24.6302 0.15334 21.9639C0.0835055 16.0974 0.069852 10.2309 0.00175938 4.36495C-0.00869573 3.46356 0.0151258 2.58983 0.422209 1.75788C0.703695 1.1815 1.08772 0.683579 1.77924 0.489512C2.08488 0.404176 2.40083 0.354261 2.71981 0.340967C3.88786 0.29307 5.05866 0.293391 6.22536 0.229652C10.2612 0.00687081 14.2965 0.0906612 18.3323 0.214181C18.905 0.231632 19.4784 0.256014 20.0508 0.245122C20.4446 0.240736 20.8243 0.380701 21.1065 0.63443C22.9928 2.1806 24.878 3.72788 26.7621 5.27628C27.0362 5.50141 27.2946 5.74499 27.5837 5.9518C28.1868 6.38374 28.35 6.97329 28.3612 7.63618C28.4047 10.1769 28.4584 12.7173 28.5013 15.258C28.514 15.9987 28.5034 16.7399 28.5034 17.4808L28.6288 17.4795ZM18.9669 1.78205C18.5679 1.75222 18.2297 1.70978 17.8908 1.70446C15.0023 1.65932 12.1135 1.61838 9.2248 1.58166C7.91896 1.56495 6.613 1.55802 5.30692 1.55072C4.64341 1.54688 3.97847 1.52725 3.31658 1.55868C2.37132 1.60361 2.09356 1.85737 1.92493 2.74341C1.76895 3.51419 1.73312 4.30155 1.81852 5.08169C1.87153 5.52338 1.89873 5.96741 1.9 6.41182C1.91421 13.9061 1.92517 21.4005 1.93285 28.8945C1.92678 29.0638 1.93508 29.2332 1.95765 29.4014C2.12586 30.3676 2.67613 30.9507 3.81722 30.9931C8.2415 31.1579 12.6659 31.1572 17.0917 31.088C19.3156 31.0533 21.5397 31.0357 23.7637 31.0122C24.3133 31.0065 24.8641 31.0257 25.4124 31.0016C26.399 30.9582 26.86 30.5189 26.8502 29.5943C26.8342 27.9867 26.7893 26.3795 26.754 24.7723C26.7333 23.8412 26.716 22.9098 26.6821 21.9788C26.6077 19.9272 26.4875 17.8759 26.4536 15.8236C26.4156 13.5378 26.4527 11.251 26.4554 8.96451C26.4554 8.80126 26.4386 8.63802 26.4295 8.46943C26.3533 8.45113 26.2759 8.43874 26.1977 8.43234C24.7993 8.45833 23.4014 8.49748 22.0031 8.50787C21.5907 8.51086 21.1794 8.46983 20.7775 8.38567C19.8466 8.18925 19.5634 7.8743 19.4702 6.9922C19.3945 6.27646 19.341 5.55861 19.2718 4.84213C19.1767 3.85311 19.0755 2.86426 18.9669 1.78205ZM21.438 6.97734L25.5501 6.74093L20.7399 2.70547C20.986 4.20985 21.2064 5.55785 21.4384 6.97784L21.438 6.97734Z" fill="#004661"/>
<path d="M7.51392 13.6345C7.55656 13.8959 7.61377 14.1446 7.63266 14.3959C7.65157 14.5829 7.63711 14.7715 7.58979 14.9541C7.5534 15.0995 7.4646 15.2292 7.338 15.3222C7.2114 15.415 7.05444 15.4655 6.89275 15.4654C6.73145 15.4542 6.5781 15.3963 6.45436 15.3001C6.33064 15.204 6.2428 15.0742 6.20337 14.9294C6.1665 14.7427 6.14929 14.5529 6.15192 14.3631C6.14402 14.1761 6.15017 13.9884 6.15017 13.7706C5.86117 13.7107 5.59273 13.6716 5.33551 13.5973C4.98306 13.5089 4.63935 13.3929 4.30807 13.2508C3.91171 13.0651 3.76908 12.7201 3.88972 12.4078C3.99978 12.1231 4.30969 11.9667 4.73272 12.0023C5.12077 12.035 5.50626 12.1069 5.89446 12.1188C6.23651 12.1313 6.579 12.1073 6.91513 12.0474C7.13578 11.9929 7.34245 11.8982 7.52291 11.7689C7.64181 11.7014 7.73381 11.6002 7.78515 11.4803C7.8365 11.3604 7.84444 11.2284 7.80774 11.104C7.77592 10.9899 7.70679 10.8875 7.60977 10.8109C7.51272 10.7343 7.39249 10.6872 7.26542 10.6759C7.06273 10.6451 6.85666 10.6379 6.65203 10.6543C6.35513 10.6739 6.06104 10.733 5.76414 10.7517C4.71152 10.8183 3.93195 10.1511 3.97645 9.17635C4.02028 8.21431 4.48444 7.47628 5.48198 7.08234C5.60732 7.03284 5.73518 6.98877 5.88692 6.93295C5.92913 6.67304 5.9718 6.40418 6.01644 6.13573C6.05933 5.87816 6.2002 5.70405 6.49776 5.6756C6.63608 5.65387 6.7782 5.68048 6.89643 5.75029C7.01463 5.82008 7.10045 5.92802 7.13715 6.05306C7.22106 6.33573 7.28799 6.62241 7.33755 6.91193C8.31016 7.31355 8.39444 7.43466 8.10344 8.12033C7.91704 8.09218 7.72907 8.07364 7.54045 8.06487C7.13323 8.06363 6.71209 8.02382 6.32163 8.1039C5.60734 8.2502 5.35734 8.65827 5.45037 9.45917C5.61122 9.45917 5.78117 9.4665 5.9506 9.45785C6.40714 9.43433 6.86543 9.3643 7.31915 9.38472C8.26508 9.42741 9.09912 10.0086 9.35352 10.7674C9.64399 11.6338 9.35138 12.3593 8.64137 12.9372C8.32073 13.1979 7.92744 13.3828 7.51392 13.6345Z" fill="#004661"/>
<path d="M13.5013 22.3398C15.8406 22.3398 18.1799 22.3408 20.5191 22.3429C20.7938 22.3372 21.0681 22.3612 21.3369 22.4143C21.6936 22.4945 21.9005 22.7421 21.8627 22.9932C21.8489 23.1217 21.7884 23.2418 21.691 23.3344C21.5936 23.4268 21.4653 23.4862 21.3267 23.5026C21.0124 23.5627 20.6929 23.597 20.3721 23.605C15.9913 23.6123 11.6105 23.6138 7.22957 23.6091C6.84085 23.6091 6.45104 23.571 6.06338 23.5363C5.90656 23.5222 5.71667 23.5094 5.60877 23.4239C5.46696 23.3117 5.30203 23.123 5.31248 22.9772C5.32282 22.8348 5.51826 22.6719 5.67443 22.5812C5.79627 22.5103 5.98369 22.5229 6.1424 22.5201C8.59551 22.4783 11.0484 22.4387 13.5012 22.4009L13.5013 22.3398Z" fill="#004661"/>
<path d="M5.02188 20.5139C4.88527 20.0426 5.0353 19.8567 5.4094 19.8214C5.95588 19.7696 6.50212 19.71 7.05022 19.6806C11.3503 19.453 15.6516 19.2606 19.9606 19.2919C20.4181 19.294 20.8748 19.3302 21.3259 19.4C21.7507 19.4675 21.9323 19.6947 21.8967 19.9923C21.8624 20.2795 21.6143 20.4701 21.212 20.4956C20.984 20.5099 20.7539 20.4956 20.5247 20.4975C15.6433 20.5259 10.7618 20.5535 5.8803 20.5802C5.59373 20.5816 5.30698 20.5369 5.02188 20.5139Z" fill="#004661"/>
<path d="M5.1518 17.5092C5.11091 16.9714 5.1376 16.9309 5.52537 16.8789C5.59374 16.8718 5.66242 16.8684 5.7312 16.8686C7.51783 16.8239 9.30464 16.7831 11.0911 16.7342C13.9545 16.6557 16.8176 16.5685 19.6811 16.4939C20.1614 16.4815 20.6433 16.5085 21.1238 16.5265C21.2639 16.5196 21.4016 16.5627 21.5082 16.647C21.6148 16.7311 21.682 16.8499 21.6963 16.9789C21.7347 17.2097 21.5315 17.4131 21.182 17.4785C20.9562 17.5147 20.7274 17.5314 20.4983 17.5281C18.6415 17.5469 16.7845 17.5528 14.9276 17.5785C12.6356 17.61 10.3444 17.6627 8.05245 17.6923C7.34203 17.7014 6.63159 17.675 5.92226 17.644C5.66234 17.6157 5.40489 17.5707 5.1518 17.5092Z" fill="#004661"/>
<path d="M8.24075 26.9811C7.64427 26.9811 7.04777 26.9837 6.45143 26.9794C6.29105 26.9824 6.1308 26.969 5.97371 26.939C5.69731 26.8779 5.50013 26.689 5.54894 26.4412C5.58364 26.2651 5.76973 26.0948 5.93004 25.9666C6.01811 25.8958 6.19153 25.9073 6.32785 25.8979C7.49321 25.8159 8.65866 25.7337 9.82483 25.6613C10.0993 25.6433 10.3749 25.6471 10.6486 25.6724C10.7763 25.6814 10.897 25.7299 10.9913 25.8099C11.0857 25.8898 11.1481 25.9967 11.1688 26.1135C11.2366 26.3899 11.1553 26.6439 10.8824 26.7678C10.6374 26.8791 10.3707 26.9443 10.098 26.9594C9.48022 26.9867 8.86015 26.9682 8.2409 26.9682L8.24075 26.9811Z" fill="#004661"/>
</g>
</svg>
