<svg width="45" height="46" viewBox="0 0 45 46" fill="none" xmlns="http://www.w3.org/2000/svg">
<g id="light-bulbLogo">
<rect x="0.5" y="0.5" width="44" height="45" rx="2.5" fill="#C8E9F9" fill-opacity="0.71"/>
<rect x="0.5" y="0.5" width="44" height="45" rx="2.5" stroke="#004661"/>
<path id="light7" d="M30.3213 29.4196L32.3735 32.5219C32.3735 32.5219 32.7346 32.623 32.9529 32.3698L34.0505 31.2119C34.0505 31.2119 34.1955 31.0403 33.9785 30.6395L31.2451 28.6555C31.2445 28.656 30.3576 28.2938 30.3213 29.4196Z" fill="#004661"/>
<path id="light6" d="M34.1618 20.8741L37.6819 21.6089C37.6819 21.6089 38.0101 21.4172 37.999 21.075L38.0279 19.4391C38.0279 19.4391 38.0191 19.2095 37.5982 19.0798L34.3241 19.6493C34.3244 19.6493 33.4469 20.0371 34.1618 20.8741Z" fill="#004661"/>
<path id="light5" d="M31.1707 12.0764L34.083 9.86613C34.083 9.86613 34.1735 9.48275 33.9285 9.2577L32.8133 8.11942C32.8133 8.11942 32.6483 7.96939 32.2715 8.20454L30.4332 11.1158C30.4326 11.1157 30.1031 12.0564 31.1707 12.0764Z" fill="#004661"/>
<path id="light4" d="M23.1177 8.00185L23.6962 4.2692C23.6962 4.2692 23.504 3.93054 23.18 3.95405L21.6273 3.97846C21.6273 3.97846 21.4101 3.9952 21.3013 4.44185L21.9505 7.87137C21.9505 7.87137 22.3479 8.78281 23.1177 8.00185Z" fill="#004661"/>
<path id="light3" d="M14.6904 11.1717L12.6774 8.04101C12.6774 8.04101 12.317 7.93443 12.0963 8.18567L10.9843 9.32791C10.9843 9.32791 10.8368 9.49737 11.0498 9.90069L13.7579 11.9222C13.7579 11.9222 14.6401 12.2967 14.6904 11.1717Z" fill="#004661"/>
<path id="light2" d="M10.8683 19.589L7.32446 18.9973C7.32446 18.9973 7.00395 19.2019 7.02762 19.5433L7.05773 21.1794C7.05773 21.1794 7.07532 21.4083 7.49983 21.5208L10.7512 20.8187C10.7512 20.8187 11.6133 20.3964 10.8683 19.589Z" fill="#004661"/>
<path id="light1" d="M13.8229 28.5283L10.8564 30.6559C10.8564 30.6559 10.756 31.0364 10.9948 31.2689L12.0802 32.4377C12.0802 32.4377 12.2424 32.5925 12.6244 32.3681L14.5377 29.5102C14.5377 29.5102 14.8907 28.5794 13.8229 28.5283Z" fill="#004661"/>
<path id="Vector" d="M17.0235 34.404L17.6329 34.0544H27.3346L27.8232 34.404C27.8232 34.404 29.0177 34.5877 28.6378 36.0192C28.6378 36.0192 28.5231 36.5278 27.9687 36.63L27.9799 36.9861C27.9799 36.9861 28.7937 37.3029 28.7122 38.4861C28.7122 38.4861 28.56 39.2613 27.7751 39.3002C27.7751 39.3002 26.9914 40.9412 24.783 41.3222C24.783 41.3222 24.6145 42.9586 22.3577 43.0112C22.3577 43.0112 20.6805 43.1022 20.1735 41.3341C20.1735 41.3341 18.641 41.2073 17.1445 39.3132C17.1445 39.3132 16.2519 39.1093 16.2761 37.99C16.2761 37.99 16.2641 37.3162 16.9636 37.0101V36.6547C16.9636 36.6547 16.0465 36.2354 16.3244 35.1411C16.3238 35.1419 16.4683 34.5187 17.0235 34.404Z" fill="#004661"/>
<path id="Vector_2" d="M20.1909 32.1054C20.1909 32.1054 20.0644 26.2588 18.9151 23.0425L17.7471 18.89L20.7643 19.9007L22.4988 18.4062L24.2156 19.7797L27.2803 18.9973C27.2803 18.9973 25.7897 24.0226 25.3259 25.471C25.3259 25.471 24.6511 29.4855 24.6255 32.1298L20.1909 32.1054Z" fill="#004661"/>
<path id="Vector_3" d="M18.6303 32.1808H17.4811C17.4811 32.1808 17.1015 32.3081 16.9117 31.6052C16.9117 31.6052 17.1647 29.667 15.7308 28.0908C15.7308 28.0908 14.3178 25.7271 14.0226 25.4076C14.0226 25.4076 9.25657 17.4629 17.5655 11.201C17.5655 11.201 22.2471 8.2618 27.1396 11.2437C27.1396 11.2437 31.2835 12.9156 32.106 18.4747C32.106 18.4747 32.9284 23.2031 30.4294 26.0146C30.4294 26.0146 28.01 29.2614 27.9386 31.4719C27.9386 31.4719 27.9096 32.047 27.2874 32.2097H26.0955C26.0955 32.2097 27.3611 27.7398 29.5121 24.2573C29.5121 24.2573 31.7793 20.6571 29.586 16.5676C29.586 16.5676 26.7179 9.15547 18.3669 12.8615C18.3669 12.8615 13.6879 15.3763 14.5512 22.0422C14.5512 22.0422 15.3723 24.9596 17.1016 26.9192C17.1016 26.9192 18.3456 28.7096 18.6303 32.1808Z" fill="#004661"/>
</g>
</svg>
