<svg width="17" height="17" viewBox="0 0 17 17" fill="none" xmlns="http://www.w3.org/2000/svg">
<g clip-path="url(#clip0_119_161)">
<path d="M15.6495 12.1335C14.9967 11.448 13.1411 10.1637 11.9248 10.1637C11.6432 10.1637 11.3972 10.2277 11.196 10.3602C10.6013 10.7487 10.1274 11.0504 9.89932 11.0504C9.77413 11.0504 9.63999 10.9361 9.34488 10.6756L9.29569 10.6299C8.47743 9.9032 8.30305 9.71582 7.98558 9.37762L7.9051 9.29078C7.84697 9.23137 7.79779 9.17652 7.7486 9.12625C7.47138 8.83375 7.27017 8.62352 6.55922 7.80086L6.52792 7.7643C6.1881 7.37125 5.96453 7.11531 5.95112 6.92793C5.9377 6.74512 6.0942 6.44805 6.49215 5.89504C6.97506 5.22777 6.99294 4.40512 6.55028 3.44992C6.19704 2.69582 5.62024 1.97371 5.1105 1.33844L5.06579 1.28359C4.6276 0.735156 4.11786 0.460938 3.55 0.460938C2.91954 0.460938 2.39639 0.808281 2.11917 0.991094C2.09681 1.0048 2.07445 1.02309 2.0521 1.0368C1.43058 1.43898 0.978972 1.99199 0.80906 2.55414C0.554193 3.39965 0.384282 4.49652 1.60496 6.77711C2.6602 8.75149 3.61707 10.0769 5.13733 11.6719C6.56816 13.171 7.2031 13.6554 8.62499 14.7066C10.2078 15.8766 11.7281 16.5484 12.7923 16.5484C13.7805 16.5484 14.5585 16.5484 15.6674 15.1819C16.8299 13.7468 16.347 12.8693 15.6495 12.1335ZM15.1353 14.6883C14.241 15.7943 13.7268 15.7943 12.7968 15.7943C11.8891 15.7943 10.4806 15.1545 9.03188 14.0896C7.64576 13.0659 7.02871 12.5951 5.63812 11.1372C4.16705 9.59699 3.24148 8.31274 2.22201 6.40691C1.14441 4.39141 1.26514 3.50934 1.48423 2.78266C1.60049 2.39418 1.94926 1.97828 2.42322 1.67664C2.44558 1.66293 2.46793 1.64465 2.49476 1.63094C2.73174 1.47555 3.12522 1.21504 3.55447 1.21504C3.91218 1.21504 4.22965 1.39785 4.5337 1.77719L4.57841 1.83203C5.71861 3.25797 6.60841 4.51938 5.9377 5.45172C5.46374 6.10527 5.21334 6.54859 5.25359 7.00563C5.28936 7.44895 5.58 7.78258 6.01819 8.28531L6.04949 8.32188C6.76938 9.15367 6.97506 9.37305 7.26123 9.67012C7.31041 9.72039 7.35959 9.77524 7.41772 9.83465L7.49821 9.92148C7.82909 10.2734 8.01241 10.4654 8.85303 11.2195L8.90221 11.2652C9.25992 11.5851 9.52373 11.8182 9.90827 11.8182C10.3062 11.8182 10.7444 11.5622 11.5761 11.0184C11.661 10.9635 11.7818 10.9315 11.9338 10.9315C12.9041 10.9315 14.5764 12.065 15.1621 12.682C15.6987 13.2395 15.967 13.66 15.1353 14.6883Z" fill="black"/>
</g>
<defs>
<clipPath id="clip0_119_161">
<rect width="17" height="17" fill="white"/>
</clipPath>
</defs>
</svg>
