<svg width="32" height="32" viewBox="0 0 32 32" fill="none" xmlns="http://www.w3.org/2000/svg">
<path d="M15.9998 27.6612L11.5052 30.2691C11.0165 30.5522 10.411 30.1931 10.4117 29.6386H10.4099V25.9581C10.4099 25.7333 10.5115 25.5326 10.6714 25.3984L12.5173 23.6046V19.0605L3.67889 22.6541C3.197 22.8495 2.6758 22.4848 2.6758 21.9783L2.67505 19.4797C2.67505 19.2298 2.80053 19.0095 2.99177 18.878L7.46673 15.1566V12.966C7.46673 10.9402 10.2194 10.2833 11.1317 12.1092L12.5173 10.9572V7.27064C12.5173 1.71852 15.4661 1.60778 15.9998 1.6331C16.5334 1.60778 19.4822 1.71852 19.4822 7.27064V10.9572L20.8678 12.1092C21.7802 10.2833 24.5328 10.9402 24.5328 12.966V15.1566L29.0592 18.9207C29.2319 19.0643 29.3211 19.271 29.3211 19.4797H29.3245V21.9783C29.3245 22.4863 28.8082 22.8676 28.2859 22.6401L19.4822 19.0605V23.6046L21.3671 25.4362C21.5137 25.5791 21.5874 25.7684 21.5874 25.9581H21.5897V29.6386C21.5897 30.1818 20.9925 30.5839 20.4502 30.2434L15.9998 27.6612ZM9.87392 12.966C9.87392 12.3401 8.92714 12.3465 8.92714 12.966V15.4953H8.92374C8.92374 15.7035 8.83454 15.9103 8.66182 16.0539L4.13508 19.8179V20.894L12.9391 17.3147C13.4611 17.0868 13.9773 17.4682 13.9773 17.9765V23.91H13.9755C13.9755 24.0997 13.9018 24.2895 13.7551 24.432L11.8703 26.2639V28.3729L15.6264 26.1936C15.8459 26.0628 16.1279 26.0515 16.3649 26.1887L20.1293 28.3729V26.2639L18.2834 24.4698C18.1239 24.336 18.0222 24.1349 18.0222 23.91V17.9765C18.0237 17.4701 18.5434 17.1046 19.026 17.3008L27.8645 20.894V19.8179L23.3891 16.0966C23.1979 15.9651 23.0724 15.7447 23.0724 15.4953V12.966C23.0724 12.3465 22.1256 12.3401 22.1256 12.966L22.1226 13.4936C22.123 14.1033 21.4064 14.448 20.9309 14.0526L18.3389 11.8972C18.1477 11.7656 18.0222 11.5453 18.0222 11.2955V7.27064C18.0222 2.73672 16.081 3.10636 15.917 3.08784C15.9117 3.08708 13.9773 2.82441 13.9773 7.27064V11.2955H13.9743C13.9743 11.5041 13.8851 11.7108 13.712 11.8545L11.1196 14.0099C10.5879 14.4952 9.87392 14.0885 9.87392 13.4936V12.966Z" fill="#009AD6"/>
</svg>
