<svg width="39" height="39" viewBox="0 0 39 39" fill="none" xmlns="http://www.w3.org/2000/svg">
<path d="M20.39 6.4083C21.5411 7.00298 22.2441 8.67646 22.678 10.0731C24.9954 9.96577 31.6723 9.63826 34.1487 9.63826C37.4781 9.63826 38.9489 13.7467 36.5149 15.5215C35.5112 16.253 32.8308 17.534 29.7234 18.3461C27.8951 18.8238 25.9043 19.148 23.9917 19.1199C24.0907 22.2371 23.9935 25.1722 23.5592 28.17C25.3441 28.4496 28.5008 29.1742 28.5008 31.0513C28.5008 33.2771 24.0553 33.9431 21.9433 34.1251C20.572 36.8322 18.4286 36.8322 17.0573 34.1251C14.9453 33.9431 10.4993 33.2771 10.4993 31.0513C10.4993 29.1742 13.6565 28.4496 15.4414 28.17C15.007 25.1731 14.9094 22.2361 15.0089 19.1199C13.0959 19.148 11.1055 18.8238 9.27722 18.3461C6.16933 17.534 3.4889 16.253 2.48564 15.5215C0.0511918 13.7462 1.52199 9.63826 4.85191 9.63826C7.3246 9.63826 14.0181 9.96624 16.3226 10.0731C16.7565 8.67646 17.4595 7.00298 18.6106 6.4083V6.38619H15.5584C14.387 6.38619 14.387 4.6063 15.5584 4.6063H18.6106V3.72327C18.6106 2.55188 20.39 2.55188 20.39 3.72327V4.6063H23.4417C24.6131 4.6063 24.6131 6.38619 23.4417 6.38619H20.39V6.4083ZM20.1095 8.56729C19.5996 7.77454 19.401 7.77454 18.8906 8.56729C18.5056 9.16566 18.1495 10.0731 17.8395 11.221H17.8386C17.7335 11.6158 17.3641 11.8981 16.9394 11.8783C14.7753 11.7765 7.56965 11.4177 4.85191 11.4177C3.19686 11.4177 2.51604 13.3514 3.52805 14.0894C4.40879 14.7315 6.83494 15.8748 9.72219 16.6293C11.6974 17.1452 13.8688 17.4672 15.867 17.2986L15.8675 17.3C16.4014 17.2571 16.856 17.6952 16.8265 18.2332C16.6262 21.8584 16.7805 25.2229 17.3365 28.7799C17.4148 29.2824 17.0721 29.7537 16.5612 29.8117C15.1342 29.9748 13.9342 30.2493 13.1106 30.5939C12.07 31.0292 11.8646 31.0738 13.4321 31.6326C14.4769 32.0048 15.9688 32.2784 17.6944 32.3926V32.3945C18.5654 32.4498 18.436 33.3554 19.1804 34.1467C19.4535 34.4369 19.547 34.4365 19.8202 34.1467C20.571 33.3494 20.431 32.4488 21.3062 32.3926C23.0317 32.2784 24.5237 32.0048 25.5684 31.6326C27.136 31.0738 26.9305 31.0292 25.89 30.5939C24.79 30.1337 24.0106 30.0577 22.3905 29.8048C21.9069 29.7223 21.5817 29.2636 21.6641 28.7799C22.1289 26.0566 22.4269 21.1758 22.1773 18.2903C22.1252 17.6924 22.5918 17.2535 23.1331 17.2986C25.1318 17.4672 27.3032 17.1452 29.2784 16.6293C32.1656 15.8748 34.5918 14.7315 35.4721 14.0894C36.4841 13.3514 35.8042 11.4177 34.1487 11.4177C30.1822 11.4177 26.0825 11.6895 22.1132 11.8756C20.8308 11.9741 21.2643 10.3615 20.1095 8.56729Z" fill="#004661"/>
</svg>
