<svg width="64" height="64" viewBox="0 0 64 64" fill="none" xmlns="http://www.w3.org/2000/svg">
<path d="M33.9001 59.1C37.8001 57.1 41.5001 54.6 44.7001 51.6C45.4001 50.9 46.2001 50.2 46.8001 49.5C47.1001 49.2 47.4001 48.9 47.7001 48.5C48.2001 48 48.5001 47.5 49.0001 47C49.5001 46.4 50.0001 45.8 50.4001 45.1C51.3001 43.7 52.2001 42.3 52.9001 40.8C53.3001 40 53.7001 39.2 54.0001 38.3C54.8001 36.1 55.4001 33.8 55.7001 31.5C55.8001 30.9 55.8001 30.2 55.9001 29.6C56.0001 27.9 56.0001 26.3 55.7001 24.6C54.9001 19.6 52.9001 15.3 49.5001 11.7C48.2001 10.2 46.6001 9 45.0001 7.9C41.9001 5.9 38.5001 4.7 34.8001 4.2C34.4001 4.1 33.9001 4.2 33.5001 4H30.3001C30.3001 4.1 30.2001 4.1 30.1001 4.1C29.3001 4.2 28.5001 4.3 27.7001 4.4C21.8001 5.5 17.0001 8.4 13.3001 13.1C10.2001 16.9 8.5001 21.4 8.2001 26.3C7.9001 29.8 8.4001 33.3 9.7001 36.8C9.9001 37.4 10.2001 37.9 10.4001 38.4C10.5001 38.5 10.5001 38.7 10.6001 38.8C11.9001 41.3 13.5001 43.6 15.6001 45.5C16.7001 46.5 17.8001 47.4 19.1001 48.2C22.9001 50.6 27.1001 51.9 31.7001 52C32.0001 52 32.1001 52.1 32.1001 52.4V58C32.0001 58.9 33.0001 59.5 33.9001 59.1ZM34.2001 21.5C34.1001 20.9 34.3001 20.5 34.8001 20.2C35.0001 20.1 35.2001 20 35.4001 20C38.4001 20 41.3001 20 44.3001 20C45.1001 20 45.5001 20.7 45.5001 21.6C45.5001 22 45.5001 28.7 45.5001 32.1C45.5001 35.1 43.6001 37.9 40.9001 39.1C40.8001 39.1 40.8001 39.2 40.7001 39.2C40.7001 39.3 40.8001 39.3 40.9001 39.3C40.8001 39.3 40.8001 39.3 40.7001 39.2H40.6001C40.6001 39.2 40.6001 39.2 40.5001 39.2C39.9001 39.4 39.3001 39.5 38.7001 39.6C38.3001 39.7 38.0001 39.4 38.0001 39C38.0001 38.7 38.0001 38.4 38.0001 38C38.0001 37.4 38.0001 36.9 38.0001 36.3C38.0001 36.2 38.0001 36 38.0001 35.9C38.0001 35.5 38.2001 35.3 38.7001 35.1C39.4001 34.9 40.0001 34.7 40.6001 34.2C41.2001 33.6 41.6001 32.8 41.7001 32C39.8001 32 38.0001 32 36.1001 32C35.9001 32 35.7001 32 35.5001 32C34.7001 32 34.2001 31.5 34.2001 30.7C34.2001 27.7 34.2001 24.6 34.2001 21.5C34.2001 21.6 34.2001 21.6 34.2001 21.5ZM29.8001 32.1C29.8001 34.3 28.9001 36.2 27.3001 37.7C27.2001 37.8 27.1001 37.9 27.1001 37.9C26.3001 38.5 25.4001 39.1 24.3001 39.3C23.9001 39.4 23.4001 39.5 23.0001 39.6C22.7001 39.7 22.4001 39.5 22.3001 39.1C22.3001 38.1 22.3001 37.2 22.3001 36.2C22.3001 35.9 22.2001 35.6 22.4001 35.4C22.5001 35.3 22.6001 35.2 22.8001 35.1C23.3001 35 23.8001 34.9 24.3001 34.6C25.1001 34.1 25.7001 33.4 25.9001 32.4C25.9001 32.3 26.0001 32.1 26.0001 31.9C24.0001 31.9 22.0001 31.9 19.9001 31.9C19.7001 31.9 19.6001 31.9 19.4001 31.8C18.9001 31.7 18.5001 31.2 18.5001 30.6C18.5001 27.5 18.5001 24.5 18.5001 21.4C18.5001 20.9 18.5001 20.4 18.9001 20.1C19.1001 19.9 19.4001 19.8 19.7001 19.8C22.7001 19.8 25.7001 19.8 28.6001 19.8C29.4001 19.8 29.8001 20 29.8001 21.4C29.8001 21.8 29.8001 28.7 29.8001 32.1Z" fill="#004661"/>
</svg>
