<svg width="703" height="526" viewBox="0 0 703 526" fill="none" xmlns="http://www.w3.org/2000/svg">
<g clip-path="url(#clip0_379_135)">
<path d="M703 0H0V526H703V0Z" fill="#C8E9F9"/>
<path d="M420.482 263L236.823 526H613.367L420.482 263Z" fill="#B1CEDD"/>
<path d="M420.482 263L383.531 526H613.368L420.482 263Z" fill="#004661"/>
<path d="M-26.3625 526L174.871 386.902L358.53 526H-26.3625Z" fill="#9BC8E0"/>
<path d="M148.069 526L174.871 386.902L358.53 526H148.069Z" fill="#005677"/>
<path d="M528.568 319.107L681.91 526H384.893L528.568 319.107Z" fill="#84C1E3"/>
<path d="M528.568 319.107L681.91 526H510.554L528.568 319.107Z" fill="#00668E"/>
<path d="M281.639 406.189L389.286 526H161.251L281.639 406.189Z" fill="#6ABBE7"/>
<path d="M257.913 526L281.639 406.189L389.286 526H257.913Z" fill="#0077A5"/>
<path d="M751.331 526L615.564 369.369L481.555 526H751.331Z" fill="#49B4EB"/>
<path d="M751.331 526L615.564 369.369L599.747 526H751.331Z" fill="#0088BD"/>
<path d="M531.644 526L426.633 401.513L318.547 526H531.644Z" fill="#00ADEF"/>
<path d="M414.331 526H531.644L426.633 401.513L414.331 526Z" fill="#009AD6"/>
<path d="M-1.77979 9.99998C-1.77979 4.47714 2.69737 0 8.22022 0H693C698.523 0 703 4.47715 703 10V516C703 521.523 698.523 526 693 526H8.22021C2.69736 526 -1.77979 521.523 -1.77979 516V9.99998Z" fill="#C8E9F9" fill-opacity="0.93"/>
</g>
<defs>
<clipPath id="clip0_379_135">
<rect width="703" height="526" rx="10" fill="white"/>
</clipPath>
</defs>
</svg>
