<svg width="386" height="409" viewBox="0 0 386 409" fill="none" xmlns="http://www.w3.org/2000/svg">
<path d="M286.502 54.774C319.717 70.742 355.998 86.71 372.861 114.155C389.213 141.101 386.658 179.524 383.081 219.444C379.504 259.364 374.905 300.282 354.465 332.218C333.514 363.655 296.211 386.11 255.331 398.585C214.451 411.06 170.505 413.056 139.845 393.595C109.696 374.134 92.8326 332.218 71.8816 299.284C50.9306 266.849 25.8916 242.398 12.0946 211.46C-1.19137 180.023 -3.74637 141.101 6.47363 103.177C16.1826 64.754 38.6666 27.329 71.8816 10.862C105.097 -5.106 149.043 0.383008 186.346 11.361C223.649 22.339 253.287 38.307 286.502 54.774Z" fill="url(#paint0_linear_453_193)"/>
<defs>
<linearGradient id="paint0_linear_453_193" x1="0.204102" y1="408.092" x2="406.804" y2="23.1337" gradientUnits="userSpaceOnUse">
<stop stop-color="#C8E9F9"/>
<stop offset="1" stop-color="#009AD6"/>
</linearGradient>
</defs>
</svg>
