<svg width="364" height="328" viewBox="0 0 364 328" fill="none" xmlns="http://www.w3.org/2000/svg">
<g clip-path="url(#clip0_456_495)">
<path d="M186.19 191.148L106.844 192.546C105.591 192.571 104.346 192.348 103.18 191.89C102.014 191.432 100.949 190.748 100.047 189.877C99.1447 189.005 98.4228 187.964 97.9225 186.813C97.4222 185.662 97.1534 184.423 97.1314 183.168C97.1093 181.912 97.3346 180.665 97.7942 179.497C98.2537 178.329 98.9387 177.263 99.8097 176.361C100.681 175.458 101.721 174.737 102.87 174.238C104.02 173.739 105.256 173.472 106.509 173.453L185.856 172.054C187.038 172.034 188.181 172.485 189.032 173.308C189.883 174.132 190.373 175.261 190.394 176.447L190.572 186.599C190.592 187.733 190.181 188.832 189.423 189.674C188.665 190.515 187.616 191.037 186.488 191.133C186.39 191.141 186.29 191.146 186.19 191.148Z" fill="#009AD6"/>
<path d="M170.867 193.742L105.77 196.721C105.185 196.748 104.6 196.659 104.049 196.459C103.499 196.26 102.992 195.953 102.56 195.557C102.127 195.161 101.776 194.684 101.528 194.152C101.279 193.621 101.137 193.045 101.111 192.459L100.422 177.331C100.368 176.146 100.785 174.988 101.583 174.113C102.381 173.237 103.493 172.714 104.674 172.66L169.772 169.681C170.357 169.654 170.942 169.743 171.492 169.943C172.043 170.143 172.55 170.449 172.982 170.845C173.415 171.241 173.766 171.718 174.014 172.25C174.263 172.782 174.405 173.357 174.431 173.944L175.12 189.072C175.172 190.227 174.775 191.357 174.014 192.226C173.252 193.094 172.185 193.634 171.036 193.732C170.98 193.736 170.924 193.74 170.867 193.742Z" fill="#2F2E41"/>
<path d="M60.7832 323.529V238.905C60.7845 237.719 61.255 236.583 62.0913 235.744C62.9275 234.906 64.0614 234.434 65.2441 234.433H75.3736C76.5563 234.434 77.6901 234.906 78.5264 235.744C79.3627 236.583 79.8331 237.719 79.8345 238.905V323.529C79.8331 324.714 79.3627 325.851 78.5264 326.689C77.6901 327.527 76.5563 327.999 75.3736 328H65.2441C64.0614 327.999 62.9275 327.527 62.0913 326.689C61.255 325.851 60.7846 324.714 60.7832 323.529Z" fill="#009AD6"/>
<path d="M87.3643 323.529V238.905C87.3656 237.719 87.836 236.583 88.6723 235.744C89.5086 234.906 90.6425 234.434 91.8251 234.433H101.955C103.137 234.434 104.271 234.906 105.107 235.744C105.944 236.583 106.414 237.719 106.416 238.905V323.529C106.414 324.714 105.944 325.851 105.107 326.689C104.271 327.527 103.137 327.999 101.955 328H91.8251C90.6425 327.999 89.5086 327.527 88.6723 326.689C87.836 325.851 87.3656 324.714 87.3643 323.529Z" fill="#009AD6"/>
<path d="M90.0096 146.119C109.34 146.119 125.01 130.411 125.01 111.035C125.01 91.6585 109.34 75.9509 90.0096 75.9509C70.6792 75.9509 55.0088 91.6585 55.0088 111.035C55.0088 130.411 70.6792 146.119 90.0096 146.119Z" fill="#009AD6"/>
<path d="M108.956 123.014C110.082 122.643 111.116 122.035 111.987 121.23C112.565 120.656 113.01 119.962 113.292 119.196C113.574 118.431 113.686 117.614 113.619 116.801C113.582 116.221 113.413 115.659 113.123 115.156C112.834 114.654 112.432 114.225 111.95 113.904C110.698 113.099 109.024 113.097 107.32 113.85L107.384 100.153L106.012 100.147L105.936 116.248L106.993 115.581C108.22 114.809 109.971 114.266 111.208 115.062C111.514 115.272 111.768 115.55 111.949 115.875C112.13 116.199 112.234 116.561 112.253 116.932C112.299 117.538 112.215 118.146 112.005 118.716C111.796 119.286 111.466 119.804 111.039 120.235C109.524 121.686 107.313 122.14 104.791 122.546L105.009 123.904C106.348 123.726 107.669 123.428 108.956 123.014Z" fill="#2F2E41"/>
<path d="M121.533 99.4612L114.204 100.431L114.384 101.795L121.713 100.825L121.533 99.4612Z" fill="#2F2E41"/>
<path d="M98.3992 102.523L91.0703 103.493L91.25 104.857L98.5789 103.887L98.3992 102.523Z" fill="#2F2E41"/>
<path d="M15.7532 108.265L66.0061 169.831C66.7989 170.801 67.3931 171.919 67.755 173.119C68.1168 174.32 68.2391 175.58 68.1149 176.828C67.9906 178.076 67.6223 179.288 67.031 180.393C66.4396 181.498 65.6368 182.476 64.6684 183.27C63.7 184.064 62.585 184.659 61.3871 185.022C60.1891 185.384 58.9317 185.506 57.6867 185.381C56.4417 185.256 55.2335 184.886 54.1311 184.293C53.0287 183.699 52.0537 182.894 51.2618 181.923L1.00855 120.357C0.637547 119.903 0.359472 119.38 0.190222 118.817C0.0209727 118.255 -0.0361503 117.665 0.0221236 117.081C0.0803975 116.497 0.252917 115.93 0.529841 115.412C0.806765 114.895 1.18266 114.437 1.63607 114.065L9.4757 107.635C10.3914 106.884 11.5672 106.529 12.7445 106.647C13.9217 106.765 15.004 107.347 15.7532 108.265Z" fill="#009AD6"/>
<path d="M32.5138 122.005L73.7788 172.56C74.1498 173.015 74.4279 173.538 74.5971 174.1C74.7664 174.662 74.8235 175.252 74.7652 175.837C74.7069 176.421 74.5344 176.988 74.2575 177.505C73.9805 178.023 73.6046 178.48 73.1512 178.852L59.7607 189.834C59.3074 190.206 58.7854 190.485 58.2245 190.654C57.6637 190.824 57.075 190.881 56.4921 190.823C55.9091 190.764 55.3434 190.591 54.8272 190.314C54.311 190.036 53.8544 189.659 53.4834 189.205L12.2182 138.65C11.4704 137.732 11.1164 136.554 11.2341 135.374C11.3517 134.195 11.9314 133.11 12.8458 132.358L26.2364 121.376C27.1521 120.625 28.3279 120.27 29.5051 120.388C30.6823 120.506 31.7646 121.088 32.5138 122.005Z" fill="#2F2E41"/>
<path d="M318.607 60.5463C318.102 59.3453 317.257 58.319 316.177 57.5943C315.096 56.8697 313.828 56.4785 312.528 56.4692H191.183C189.439 56.4702 187.766 57.1651 186.533 58.4015C185.3 59.6378 184.606 61.3143 184.605 63.0627V216.939C184.606 218.688 185.3 220.364 186.533 221.6C187.766 222.837 189.439 223.532 191.183 223.533H312.532C314.276 223.53 315.948 222.835 317.181 221.599C318.414 220.363 319.107 218.687 319.11 216.939V63.0627C319.113 62.199 318.943 61.3434 318.611 60.5463H318.607ZM317.645 216.939C317.643 218.299 317.103 219.603 316.144 220.564C315.185 221.526 313.884 222.067 312.528 222.068H191.183C189.826 222.068 188.525 221.528 187.566 220.566C186.606 219.604 186.067 218.3 186.066 216.94V63.0636C186.068 61.7038 186.608 60.4002 187.567 59.4387C188.526 58.4772 189.827 57.9362 191.183 57.9343H312.532C313.554 57.9382 314.551 58.2472 315.397 58.8219C316.243 59.3966 316.899 60.2109 317.282 61.1609C317.356 61.3502 317.42 61.5434 317.474 61.7396C317.59 62.1713 317.649 62.6165 317.649 63.0636L317.645 216.939Z" fill="#3F3D56"/>
<path d="M293.284 92.799H256.733C256.349 92.7996 255.968 92.7242 255.613 92.5772C255.258 92.4301 254.935 92.2143 254.663 91.9421C254.391 91.6699 254.175 91.3465 254.028 90.9906C253.88 90.6347 253.805 90.2532 253.805 89.8679C253.805 89.4826 253.88 89.1011 254.028 88.7451C254.175 88.3892 254.391 88.0659 254.663 87.7936C254.935 87.5214 255.258 87.3056 255.613 87.1586C255.968 87.0115 256.349 86.9362 256.733 86.9368H293.284C293.668 86.9362 294.049 87.0115 294.404 87.1586C294.76 87.3056 295.083 87.5214 295.355 87.7936C295.627 88.0659 295.842 88.3892 295.99 88.7451C296.137 89.1011 296.213 89.4826 296.213 89.8679C296.213 90.2532 296.137 90.6347 295.99 90.9906C295.842 91.3465 295.627 91.6699 295.355 91.9421C295.083 92.2143 294.76 92.4301 294.404 92.5772C294.049 92.7242 293.668 92.7996 293.284 92.799Z" fill="#3F3D56"/>
<path d="M293.284 108.187H256.733C256.349 108.187 255.968 108.112 255.613 107.965C255.258 107.818 254.935 107.602 254.663 107.33C254.391 107.058 254.175 106.734 254.028 106.378C253.88 106.022 253.805 105.641 253.805 105.256C253.805 104.87 253.88 104.489 254.028 104.133C254.175 103.777 254.391 103.454 254.663 103.181C254.935 102.909 255.258 102.693 255.613 102.546C255.968 102.399 256.349 102.324 256.733 102.324H293.284C293.668 102.324 294.049 102.399 294.404 102.546C294.76 102.693 295.083 102.909 295.355 103.181C295.627 103.454 295.842 103.777 295.99 104.133C296.137 104.489 296.213 104.87 296.213 105.256C296.213 105.641 296.137 106.022 295.99 106.378C295.842 106.734 295.627 107.058 295.355 107.33C295.083 107.602 294.76 107.818 294.404 107.965C294.049 108.112 293.668 108.187 293.284 108.187Z" fill="#3F3D56"/>
<path d="M237.979 116.948H211.268C210.396 116.947 209.56 116.6 208.943 115.981C208.326 115.363 207.979 114.525 207.979 113.651V82.0548C207.979 81.1805 208.326 80.3423 208.943 79.7241C209.56 79.1059 210.396 78.7581 211.268 78.7572H237.979C238.852 78.7581 239.688 79.1059 240.305 79.7241C240.921 80.3423 241.268 81.1805 241.269 82.0548V113.651C241.268 114.525 240.921 115.363 240.305 115.981C239.688 116.6 238.852 116.947 237.979 116.948Z" fill="#009AD6"/>
<path d="M293.03 139.695H210.426C209.651 139.695 208.907 139.386 208.358 138.836C207.81 138.287 207.502 137.541 207.502 136.764C207.502 135.986 207.81 135.241 208.358 134.691C208.907 134.142 209.651 133.833 210.426 133.833H293.03C293.806 133.833 294.55 134.142 295.098 134.691C295.646 135.241 295.954 135.986 295.954 136.764C295.954 137.541 295.646 138.287 295.098 138.836C294.55 139.386 293.806 139.695 293.03 139.695Z" fill="#CCCCCC"/>
<path d="M293.031 155.083H210.426C209.652 155.081 208.909 154.772 208.362 154.222C207.814 153.673 207.507 152.928 207.507 152.151C207.507 151.375 207.814 150.63 208.362 150.08C208.909 149.531 209.652 149.222 210.426 149.22H293.031C293.415 149.22 293.796 149.295 294.151 149.442C294.506 149.589 294.829 149.805 295.101 150.077C295.373 150.349 295.589 150.673 295.736 151.029C295.884 151.385 295.959 151.766 295.959 152.151C295.959 152.537 295.884 152.918 295.736 153.274C295.589 153.63 295.373 153.953 295.101 154.226C294.829 154.498 294.506 154.714 294.151 154.861C293.796 155.008 293.415 155.083 293.031 155.083Z" fill="#CCCCCC"/>
<path d="M293.031 170.47H210.426C209.652 170.469 208.909 170.16 208.362 169.61C207.814 169.06 207.507 168.316 207.507 167.539C207.507 166.762 207.814 166.018 208.362 165.468C208.909 164.918 209.652 164.609 210.426 164.608H293.031C293.415 164.607 293.796 164.683 294.151 164.83C294.506 164.977 294.829 165.193 295.101 165.465C295.373 165.737 295.589 166.06 295.736 166.416C295.884 166.772 295.959 167.154 295.959 167.539C295.959 167.924 295.884 168.306 295.736 168.662C295.589 169.018 295.373 169.341 295.101 169.613C294.829 169.885 294.506 170.101 294.151 170.248C293.796 170.395 293.415 170.471 293.031 170.47Z" fill="#CCCCCC"/>
<path d="M293.031 185.858H210.426C209.652 185.857 208.909 185.547 208.362 184.998C207.814 184.448 207.507 183.703 207.507 182.927C207.507 182.15 207.814 181.405 208.362 180.856C208.909 180.306 209.652 179.997 210.426 179.996H293.031C293.415 179.995 293.796 180.07 294.151 180.217C294.506 180.364 294.829 180.58 295.101 180.853C295.373 181.125 295.589 181.448 295.736 181.804C295.884 182.16 295.959 182.541 295.959 182.927C295.959 183.312 295.884 183.694 295.736 184.049C295.589 184.405 295.373 184.729 295.101 185.001C294.829 185.273 294.506 185.489 294.151 185.636C293.796 185.783 293.415 185.858 293.031 185.858Z" fill="#CCCCCC"/>
<path d="M293.031 201.246H210.426C209.652 201.244 208.909 200.935 208.362 200.385C207.814 199.836 207.507 199.091 207.507 198.314C207.507 197.538 207.814 196.793 208.362 196.243C208.909 195.694 209.652 195.385 210.426 195.383H293.031C293.415 195.383 293.796 195.458 294.151 195.605C294.506 195.752 294.829 195.968 295.101 196.24C295.373 196.512 295.589 196.836 295.736 197.192C295.884 197.548 295.959 197.929 295.959 198.314C295.959 198.7 295.884 199.081 295.736 199.437C295.589 199.793 295.373 200.116 295.101 200.389C294.829 200.661 294.506 200.877 294.151 201.024C293.796 201.171 293.415 201.246 293.031 201.246Z" fill="#CCCCCC"/>
<path d="M322.138 83.922C345.257 83.922 364 65.1354 364 41.961C364 18.7866 345.257 0 322.138 0C299.018 0 280.276 18.7866 280.276 41.961C280.276 65.1354 299.018 83.922 322.138 83.922Z" fill="#009AD6"/>
<path d="M321.328 70.8436C324.048 70.8436 326.254 68.6331 326.254 65.9062C326.254 63.1794 324.048 60.9689 321.328 60.9689C318.608 60.9689 316.402 63.1794 316.402 65.9062C316.402 68.6331 318.608 70.8436 321.328 70.8436Z" fill="white"/>
<path d="M320.801 14.3863C317.087 14.4232 313.535 15.9111 310.9 18.5335C308.264 21.1559 306.754 24.7056 306.69 28.4273C306.689 28.4985 306.688 28.9994 306.688 29.6546C306.689 30.6152 307.069 31.5364 307.747 32.2156C308.424 32.8949 309.343 33.2766 310.302 33.2767C311.261 33.2765 312.18 32.8944 312.858 32.2145C313.536 31.5346 313.917 30.6126 313.917 29.6514V29.649C313.917 29.2034 313.916 28.8949 313.916 28.876C313.916 27.6835 314.225 26.5115 314.814 25.4752C315.403 24.439 316.251 23.5742 317.274 22.966C318.297 22.3577 319.461 22.0269 320.65 22.0062C321.84 21.9854 323.014 22.2754 324.058 22.8475C325.101 23.4197 325.979 24.2544 326.603 25.2694C327.227 26.2845 327.577 27.445 327.618 28.6368C327.66 29.8285 327.391 31.0105 326.838 32.0664C326.285 33.1224 325.468 34.0159 324.466 34.6591L324.467 34.6606C324.467 34.6606 319.324 37.9793 317.756 42.532L317.758 42.5323C317.482 43.4649 317.342 44.4327 317.343 45.4054C317.343 45.8053 317.366 49.3039 317.412 52.1436C317.428 53.1234 317.827 54.0577 318.524 54.7448C319.221 55.432 320.159 55.817 321.137 55.8168C321.626 55.8168 322.111 55.7202 322.563 55.5325C323.015 55.3447 323.426 55.0696 323.772 54.7228C324.118 54.376 324.392 53.9643 324.579 53.5111C324.766 53.058 324.863 52.5723 324.863 52.0819L324.863 52.059C324.847 49.4584 324.838 46.4302 324.838 46.2104C324.838 43.4149 327.529 40.6296 329.739 38.8132C332.297 36.7366 334.095 33.8674 334.85 30.6559C335.013 29.994 335.103 29.3161 335.118 28.6345C335.118 26.7633 334.75 24.9105 334.036 23.1818C333.322 21.453 332.275 19.8823 330.955 18.5592C329.635 17.2361 328.068 16.1865 326.343 15.4705C324.618 14.7544 322.77 14.3859 320.903 14.3859C320.869 14.3859 320.835 14.386 320.801 14.3863Z" fill="white"/>
<path d="M81.2359 95.5121C87.5025 91.3826 95.3783 93.2404 102.343 93.7798C108.637 94.2673 116.096 93.787 120.523 88.633C125.128 83.2709 124.743 75.3096 120.93 69.6381C117.177 64.0556 110.948 60.5306 104.358 59.6012C100.706 59.065 96.9834 59.2966 93.4261 60.2813C89.8689 61.266 86.5551 62.9822 83.6956 65.3207L85.9355 66.2507C84.6302 53.7427 75.4555 42.4353 63.146 39.3682C50.6914 36.265 36.7634 41.5613 30.1187 52.6925C23.568 63.6661 24.3441 78.9787 33.773 88.098C38.3011 92.4774 44.4607 94.7086 50.7117 93.518C56.4767 92.42 61.5991 88.2074 62.678 82.2585C63.6781 76.7439 61.4933 70.4801 56.142 68.0717C54.6777 67.3872 53.0774 67.045 51.4619 67.0709C49.8464 67.0968 48.2579 67.4901 46.8162 68.2211C45.5104 68.9575 44.4071 70.0069 43.6049 71.2753C42.8027 72.5437 42.3267 73.9916 42.2194 75.4896C42.1197 76.9398 42.4144 78.39 43.0722 79.6855C43.8151 81.2055 46.0789 79.8739 45.338 78.3579C44.8595 77.2433 44.7234 76.0109 44.9474 74.8184C45.1713 73.6259 45.745 72.5275 46.5951 71.6636C48.5403 69.6267 51.611 69.2884 54.1958 70.1212C58.9254 71.645 61.0137 77.0837 60.1224 81.6975C59.1241 86.8654 54.7228 90.1861 49.7112 91.0364C44.2612 91.961 38.9465 89.6543 35.1633 85.7746C27.2402 77.6495 26.5546 64.5631 31.8993 54.8658C37.3212 45.0283 48.8869 39.7458 59.9034 41.396C70.797 43.0277 79.7685 51.6163 82.564 62.2064C82.9166 63.5332 83.1665 64.8853 83.3113 66.2507C83.3203 66.5067 83.4025 66.7547 83.5481 66.9652C83.6938 67.1756 83.8968 67.3396 84.1329 67.4377C84.369 67.5357 84.6282 67.5636 84.8797 67.518C85.1312 67.4724 85.3643 67.3553 85.5512 67.1807C94.8596 59.4314 110.342 60.2626 117.975 70.0113C121.718 74.7921 122.821 82.2162 118.45 87.0188C114.288 91.5916 107.376 91.5962 101.691 91.0954C94.4194 90.4547 86.4253 88.9484 79.9114 93.2409C78.5061 94.1669 79.8193 96.4456 81.2359 95.5121Z" fill="#2F2E41"/>
<path d="M109.459 268.415H56.9762C55.9326 268.414 54.9321 267.998 54.1942 267.258C53.4562 266.518 53.0412 265.515 53.04 264.469V246.933C53.0412 245.887 53.4562 244.885 54.1942 244.145C54.9321 243.405 55.9326 242.989 56.9762 242.988H109.459C110.502 242.989 111.503 243.405 112.241 244.145C112.979 244.885 113.394 245.887 113.395 246.933V264.469C113.394 265.515 112.979 266.518 112.241 267.258C111.503 267.998 110.502 268.414 109.459 268.415Z" fill="#2F2E41"/>
<path d="M111.252 181.959C109.609 173.536 103.227 166.865 94.9443 164.122C97.9355 163.158 99.8373 161.729 99.8373 160.131C99.8373 157.226 93.5714 154.871 85.8419 154.871C78.1125 154.871 71.8465 157.226 71.8465 160.131C71.8465 161.752 73.8 163.201 76.8671 164.166C64.1682 167.961 54.9509 179.039 54.9509 192.084C54.9509 192.084 51.0418 217.203 47.9726 237.282C46.0091 250.128 56.7378 261.609 70.7003 261.609H119.805C123.022 261.609 125.639 259.178 125.639 256.189C125.639 256.189 116.59 209.321 111.252 181.959Z" fill="#2F2E41"/>
</g>
<defs>
<clipPath id="clip0_456_495">
<rect width="364" height="328" fill="white"/>
</clipPath>
</defs>
</svg>
