<svg width="35" height="35" viewBox="0 0 35 35" fill="none" xmlns="http://www.w3.org/2000/svg">
<g clip-path="url(#clip0_115_7)">
<path d="M9.63519 3.48632C9.251 3.48356 8.90995 3.73173 8.79437 4.09813L0.0443731 30.3481C-0.324767 31.4556 1.33637 32.0093 1.70551 30.9018L10.4555 4.65184C10.6551 4.08469 10.2364 3.48986 9.63519 3.48632ZM12.2636 3.48632C11.848 3.48187 11.4866 3.77043 11.3989 4.17675L5.27387 30.4267C4.93163 31.6085 6.7608 32.0346 6.97601 30.8232L13.101 4.57323C13.2377 4.02566 12.8279 3.49382 12.2636 3.48632ZM16.6113 3.48632C16.128 3.49386 15.7424 3.89173 15.7499 4.37499V6.12499C15.7332 7.30827 17.5167 7.30827 17.4999 6.12499V4.37499C17.5077 3.88102 17.1052 3.47859 16.6113 3.48632ZM20.9589 3.48632C20.3946 3.49382 19.9849 4.02566 20.1215 4.57323L26.2465 30.8232C26.4617 32.0346 28.2909 31.6085 27.9487 30.4267L21.8237 4.17675C21.736 3.77043 21.3746 3.48187 20.9589 3.48632ZM23.5873 3.48632C22.9861 3.48986 22.5675 4.08469 22.767 4.65184L31.517 30.9018C31.8862 32.0093 33.5473 31.4556 33.1782 30.3481L24.4282 4.09813C24.3126 3.73173 23.9715 3.48357 23.5873 3.48632ZM16.6113 12.2363C16.128 12.2438 15.7424 12.6417 15.7499 13.125V18.375C15.7332 19.5583 17.5167 19.5583 17.4999 18.375V13.125C17.5077 12.631 17.1052 12.2286 16.6113 12.2363ZM16.6113 24.4863C16.128 24.4939 15.7424 24.8917 15.7499 25.375V30.625C15.7332 31.8083 17.5167 31.8083 17.4999 30.625V25.375C17.5076 24.881 17.1052 24.4786 16.6113 24.4863Z" fill="#009AD6"/>
</g>
<defs>
<clipPath id="clip0_115_7">
<rect width="35" height="35" fill="white"/>
</clipPath>
</defs>
</svg>
