<svg width="35" height="35" viewBox="0 0 35 35" fill="none" xmlns="http://www.w3.org/2000/svg">
<g clip-path="url(#clip0_115_10)">
<path d="M34.3002 31.2523C33.9544 31.3741 33.5365 31.4595 33.008 31.4595C31.9314 31.4595 30.2766 31.1655 29.1307 30.2625C27.9848 31.1655 26.3307 31.4595 25.2541 31.4595C24.1775 31.4595 22.5234 31.1655 21.3768 30.2625C20.2309 31.1655 18.5768 31.4595 17.5002 31.4595C16.4236 31.4595 14.7695 31.1655 13.6229 30.2625C12.477 31.1655 10.8229 31.4595 9.7463 31.4595C8.6697 31.4595 7.0156 31.1655 5.8697 30.2625C4.7238 31.1655 3.069 31.4595 1.9924 31.4595C1.5094 31.4595 1.0887 31.4161 0.700195 31.3566" stroke="#009AD6" stroke-width="2" stroke-miterlimit="10" stroke-linecap="round" stroke-linejoin="round"/>
<path d="M34.3002 34.0522C33.9544 34.174 33.5365 34.2594 33.008 34.2594C31.9314 34.2594 30.2766 33.9654 29.1307 33.0624C27.9848 33.9654 26.3307 34.2594 25.2541 34.2594C24.1775 34.2594 22.5234 33.9654 21.3768 33.0624C20.2309 33.9654 18.5768 34.2594 17.5002 34.2594C16.4236 34.2594 14.7695 33.9654 13.6229 33.0624C12.477 33.9654 10.8229 34.2594 9.7463 34.2594C8.6697 34.2594 7.0156 33.9654 5.8697 33.0624C4.7238 33.9654 3.069 34.2594 1.9924 34.2594C1.5094 34.2594 1.0887 34.216 0.700195 34.1565" stroke="#009AD6" stroke-width="2" stroke-miterlimit="10" stroke-linecap="round" stroke-linejoin="round"/>
<path d="M30.8 21.735C30.8 22.3783 30.1567 22.4 30.1567 22.4H28.7462C28.7462 22.4 28 22.358 28 21.7147C28 21.3402 28 20.8005 28 20.8005C28 20.8005 28.0238 20.5303 28.4571 20.5303C28.8911 20.5303 28.9331 20.8005 28.9331 20.8005V21.3605C28.9331 21.3605 28.9765 21.6314 29.3902 21.6314C29.8039 21.6314 29.8669 21.3605 29.8669 21.3605V20.8005C29.8669 20.8005 29.9103 20.5303 30.3443 20.5303C30.779 20.5303 30.8 20.8005 30.8 20.8005C30.8 20.8005 30.8 21.3822 30.8 21.735Z" fill="#009AD6"/>
<path d="M27.1364 18.1181L21.0002 11.2H15.4002L14.0002 15.4H10.5002L7.0002 11.2H4.2002L5.6002 14.7L3.2251 18.2434" stroke="#009AD6" stroke-width="2" stroke-miterlimit="10" stroke-linecap="round" stroke-linejoin="round"/>
<path d="M4.375 18.9H25.4625" stroke="#009AD6" stroke-width="2" stroke-miterlimit="10" stroke-linecap="round" stroke-linejoin="round"/>
<path d="M22.8503 31.031C27.6726 30.1098 32.8813 26.0365 34.2505 19.9031C34.3345 19.5202 34.3324 19.0974 34.0874 18.7922C33.841 18.4856 33.2936 18.2 32.9002 18.2H26.6002L23.8002 22.4H4.9002L3.5002 18.2H2.1002C1.3855 18.2 0.700195 18.886 0.700195 19.6V23.4773C0.700195 27.0452 2.9094 29.4595 4.9933 30.5564" stroke="#009AD6" stroke-width="2.0021" stroke-miterlimit="10" stroke-linecap="round" stroke-linejoin="round"/>
<path d="M5.48291 15.4H24.5292" stroke="#009AD6" stroke-width="2" stroke-miterlimit="10" stroke-linecap="round" stroke-linejoin="round"/>
</g>
<defs>
<clipPath id="clip0_115_10">
<rect width="35" height="35" fill="white"/>
</clipPath>
</defs>
</svg>
