<svg width="20" height="22" viewBox="0 0 20 22" fill="none" xmlns="http://www.w3.org/2000/svg">
<path d="M18.8931 12.3013L17.7581 11.1103C17.5872 10.9307 17.4451 10.7234 17.3371 10.4964L16.2571 8.22972C16.2277 8.1682 16.1848 8.11489 16.1319 8.07418C16.079 8.03347 16.0177 8.00652 15.9529 7.99555C15.8882 7.98459 15.8219 7.98992 15.7595 8.01111C15.6971 8.0323 15.6404 8.06874 15.5941 8.11743C15.4897 8.2268 15.3594 8.30491 15.2166 8.34365C15.0739 8.3824 14.9238 8.38038 14.7821 8.3378L13.5091 7.95688C13.3054 7.89679 13.088 7.91481 12.8958 8.00771C12.7036 8.1006 12.5493 8.26229 12.4605 8.46379C12.3716 8.66528 12.3541 8.8934 12.411 9.10723C12.4679 9.32107 12.5956 9.50663 12.7711 9.63064L13.3581 10.0399C13.9481 10.4544 14.0321 11.3306 13.5301 11.8574L13.3301 12.0673C13.1181 12.2898 13.0001 12.5899 13.0001 12.9026V13.3329C13.0001 13.7621 12.8901 14.1818 12.6801 14.5481L11.3651 16.8472C11.1776 17.1753 10.9123 17.4469 10.5951 17.6354C10.2779 17.8239 9.91959 17.9229 9.55505 17.9229C9.27525 17.9229 9.0069 17.8062 8.80905 17.5986C8.6112 17.391 8.50005 17.1094 8.50005 16.8158V15.5859C8.50005 14.6205 7.94005 13.7526 7.08605 13.3937L6.43105 13.1198C5.95449 12.9197 5.55749 12.5545 5.30593 12.0849C5.05437 11.6154 4.96338 11.0697 5.04805 10.5384L5.05505 10.4943C5.10154 10.2024 5.19991 9.9222 5.34505 9.66842L5.43505 9.51101C5.67387 9.09369 6.02977 8.76402 6.45403 8.56715C6.87829 8.37028 7.35017 8.31583 7.80505 8.41126L8.98305 8.65892C9.26026 8.71694 9.54813 8.66333 9.78938 8.50874C10.0306 8.35416 10.2076 8.10993 10.2851 7.82466L10.4931 7.05861C10.5651 6.79396 10.5468 6.51121 10.4412 6.25923C10.3357 6.00726 10.1496 5.80191 9.91505 5.67867L9.25005 5.33027L9.15905 5.42577C8.95012 5.64502 8.70208 5.81893 8.42909 5.93759C8.15611 6.05624 7.86353 6.11731 7.56805 6.11731H7.38805C7.13905 6.11731 6.90105 6.22225 6.72605 6.40484C6.56567 6.57467 6.35151 6.67688 6.12412 6.69213C5.89674 6.70737 5.67193 6.63458 5.49225 6.48755C5.31258 6.34051 5.19053 6.12944 5.14921 5.89431C5.10789 5.65918 5.15017 5.41631 5.26805 5.21169L6.67905 2.7425C6.81969 2.49706 6.9166 2.22681 6.96505 1.94497M18.8931 12.3013C19.1353 10.6823 18.9718 9.02494 18.4188 7.49224C17.8658 5.95954 16.9422 4.60424 15.7389 3.55956C14.5355 2.51487 13.0938 1.81677 11.5555 1.53387C10.0172 1.25096 8.43521 1.393 6.96505 1.94602C5.46937 2.50863 4.14228 3.47672 3.11865 4.75191C2.09502 6.02711 1.41133 7.56394 1.13706 9.20625C0.862789 10.8485 1.00772 12.5378 1.55712 14.1022C2.10652 15.6667 3.04081 17.0507 4.26504 18.1135C5.48926 19.1763 6.95979 19.8801 8.52718 20.1533C10.0946 20.4265 11.703 20.2594 13.1889 19.669C14.6748 19.0786 15.9853 18.086 16.9872 16.7919C17.9891 15.4978 18.6466 13.9485 18.8931 12.3013Z" stroke="black" stroke-width="1.5" stroke-linecap="round" stroke-linejoin="round"/>
</svg>
