<svg width="23" height="23" viewBox="0 0 23 23" fill="none" xmlns="http://www.w3.org/2000/svg">
<path d="M9.70947 11.1977C9.70947 12.1764 10.5055 12.9701 11.4862 12.9701C12.1752 12.9701 12.7656 12.5751 13.0604 12.0035L13.0653 12.0079L16.3087 6.17065L10.6148 9.65372L10.6202 9.65909C10.0795 9.96342 9.70947 10.5345 9.70947 11.1977Z" fill="#004661"/>
<path d="M18.6441 2.7524C16.8235 1.16505 14.4711 0.151496 11.7832 0V2.69341C14.0231 2.83552 15.3429 3.54519 16.668 4.65258L18.6441 2.7524Z" fill="#004661"/>
<path d="M19.9124 10.3581H22.6092C22.4282 7.6767 21.3768 5.47353 19.7444 3.66809L17.8364 5.55978C18.9859 6.87364 19.7421 8.57049 19.9124 10.3581Z" fill="#004661"/>
<path d="M19.925 11.699C19.6396 16.1679 15.9281 19.7122 11.3945 19.7122C6.67502 19.7122 2.69424 15.894 2.69424 11.1864C2.69424 6.70499 6.40757 3.03825 10.4394 2.69415V0.000732422C4.61564 0.348861 0.00634766 5.23696 0.00634766 11.198C0.00634766 17.3844 5.12231 22.3936 11.3237 22.3936C17.341 22.3936 22.3396 17.5086 22.6268 11.699H19.925Z" fill="#004661"/>
</svg>
