<svg width="25" height="25" viewBox="0 0 25 25" fill="none" xmlns="http://www.w3.org/2000/svg">
<path fill-rule="evenodd" clip-rule="evenodd" d="M7.54604 9.99354L5.81455 11.7208L11.3801 17.2728L23.7479 4.93508L22.0164 3.2078L11.3801 13.8182L7.54604 9.99354ZM22.5111 12.3377C22.5111 17.7663 18.0587 22.2079 12.6169 22.2079C7.17501 22.2079 2.72259 17.7663 2.72259 12.3377C2.72259 6.90911 7.17501 2.46754 12.6169 2.46754C13.6063 2.46754 14.472 2.59092 15.3378 2.83767L17.3166 0.863639C15.8325 0.370131 14.2247 0 12.6169 0C5.81455 0 0.249023 5.55197 0.249023 12.3377C0.249023 19.1234 5.81455 24.6754 12.6169 24.6754C19.4192 24.6754 24.9847 19.1234 24.9847 12.3377H22.5111Z" fill="#004661"/>
</svg>
