<svg width="42" height="33" viewBox="0 0 42 33" fill="none" xmlns="http://www.w3.org/2000/svg">
<g clip-path="url(#clip0_237_273)">
<path d="M36.6355 20.9218L34.6908 21.4815L29.9066 4.51063C29.8513 4.29794 29.7077 4.11883 29.5088 4.00688C29.321 3.89494 29.0889 3.87255 28.879 3.92852L20.7027 6.29056L16.0289 7.64509L8.6481 9.77205L6.6924 2.82027C6.62611 2.58518 6.46037 2.39488 6.25044 2.29413L1.21205 -0.0902998C0.792181 -0.291801 0.306021 -0.101494 0.107137 0.312702C-0.0917473 0.738092 0.0960873 1.23065 0.504904 1.43215L5.20077 3.65985L7.27801 11.037C7.27801 11.037 7.27801 11.037 7.27801 11.0482L11.1673 24.8958C10.416 25.2876 9.7972 25.8921 9.37734 26.6533C8.81383 27.672 8.68124 28.8587 9.00167 29.9781C9.53203 31.8476 11.2336 33.1573 13.1561 33.1573C13.5539 33.1573 13.9517 33.1014 14.3384 32.9894C15.4433 32.6648 16.3714 31.9259 16.9239 30.9072C17.3769 30.0789 17.5537 29.1385 17.4321 28.2094L34.3262 23.3398H34.3373L37.0885 22.545C37.5305 22.4218 37.7846 21.9517 37.6631 21.5039C37.5305 21.0561 37.0664 20.7986 36.6355 20.9218ZM21.4872 12.1453L20.1834 11.6863C19.8519 11.5632 19.4873 11.6751 19.2663 11.955L18.4045 13.0408L17.2774 9.03321L20.3602 8.14884L21.4872 12.1453ZM15.4764 30.1012C15.1339 30.7281 14.5594 31.1871 13.8854 31.3774C13.6423 31.4446 13.3992 31.4782 13.1561 31.4782C11.9739 31.4782 10.9242 30.6722 10.6038 29.5191C10.4049 28.8251 10.4933 28.0974 10.8358 27.4705C11.1783 26.8436 11.7529 26.3847 12.4269 26.1944C12.67 26.1272 12.9131 26.0936 13.1561 26.0936C14.3384 26.0936 15.3881 26.8996 15.7085 28.0527C15.9074 28.7467 15.819 29.4743 15.4764 30.1012ZM16.9018 26.6198C16.1504 25.2764 14.7251 24.4144 13.1561 24.4144C13.0235 24.4144 12.902 24.4256 12.7694 24.4368L9.10111 11.3952L15.6864 9.49218L17.2554 15.0558C17.3437 15.3581 17.5868 15.582 17.8852 15.6492C17.9404 15.6603 17.9956 15.6603 18.0509 15.6603C18.294 15.6603 18.537 15.5484 18.6917 15.3469L20.1944 13.455L22.4484 14.261C22.5368 14.2946 22.6363 14.3058 22.7357 14.3058C23.1887 14.3058 23.5644 13.9252 23.5644 13.4662C23.5644 13.3655 23.5423 13.2647 23.5091 13.1752L21.9623 7.66748L28.5475 5.76442L33.0998 21.9293L16.9018 26.6198Z" fill="#004661"/>
</g>
<defs>
<clipPath id="clip0_237_273">
<rect width="42" height="33" fill="white"/>
</clipPath>
</defs>
</svg>
