<svg width="39" height="39" viewBox="0 0 39 39" fill="none" xmlns="http://www.w3.org/2000/svg">
<g clip-path="url(#clip0_432_330)">
<path d="M8.53125 6.09375H15.8438V10.8225C15.8438 11.1845 15.6999 11.5317 15.444 11.7877C15.188 12.0437 14.8408 12.1875 14.4788 12.1875H9.89625C9.53423 12.1875 9.18704 12.0437 8.93105 11.7877C8.67506 11.5317 8.53125 11.1845 8.53125 10.8225V6.09375Z" fill="#004661"/>
<path d="M38.2809 20.7188L36.4041 18.8419L34.3444 12.6384C34.1829 12.152 33.8723 11.7289 33.4566 11.4291C33.0409 11.1294 32.5413 10.9683 32.0288 10.9688H24.375V8.53125C24.375 7.56155 23.9898 6.63157 23.3041 5.94589C22.6184 5.26021 21.6884 4.875 20.7188 4.875H3.65625C2.68655 4.875 1.75657 5.26021 1.07089 5.94589C0.385211 6.63157 0 7.56155 0 8.53125L0 26.8125C0 27.7822 0.385211 28.7122 1.07089 29.3979C1.75657 30.0835 2.68655 30.4688 3.65625 30.4688H5.04562C5.34226 31.6176 6.04772 32.6189 7.02976 33.2848C8.0118 33.9507 9.20301 34.2357 10.3801 34.0861C11.5572 33.9366 12.6393 33.363 13.4237 32.4727C14.2081 31.5824 14.6408 30.4365 14.6408 29.25C14.6408 28.0635 14.2081 26.9176 13.4237 26.0273C12.6393 25.137 11.5572 24.5634 10.3801 24.4139C9.20301 24.2643 8.0118 24.5493 7.02976 25.2152C6.04772 25.8811 5.34226 26.8824 5.04562 28.0312H3.65625C3.33302 28.0312 3.02302 27.9028 2.79446 27.6743C2.5659 27.4457 2.4375 27.1357 2.4375 26.8125V8.53125C2.4375 8.20802 2.5659 7.89802 2.79446 7.66946C3.02302 7.4409 3.33302 7.3125 3.65625 7.3125H20.7188C21.042 7.3125 21.352 7.4409 21.5805 7.66946C21.8091 7.89802 21.9375 8.20802 21.9375 8.53125V28.0312H18.2812C17.958 28.0312 17.648 28.1597 17.4195 28.3882C17.1909 28.6168 17.0625 28.9268 17.0625 29.25C17.0625 29.5732 17.1909 29.8832 17.4195 30.1118C17.648 30.3403 17.958 30.4688 18.2812 30.4688H25.7644C26.045 31.5015 26.6577 32.4132 27.5079 33.0631C28.3581 33.7131 29.3986 34.0653 30.4688 34.0653C31.5389 34.0653 32.5794 33.7131 33.4296 33.0631C34.2798 32.4132 34.8925 31.5015 35.1731 30.4688H36.5625C37.209 30.4688 37.829 30.2119 38.2861 29.7548C38.7432 29.2977 39 28.6777 39 28.0312V22.4372C38.9973 21.7918 38.7387 21.1738 38.2809 20.7188ZM9.75 26.8125C10.2321 26.8125 10.7034 26.9555 11.1042 27.2233C11.505 27.4911 11.8175 27.8718 12.002 28.3172C12.1864 28.7626 12.2347 29.2527 12.1407 29.7255C12.0466 30.1984 11.8145 30.6327 11.4736 30.9736C11.1327 31.3145 10.6984 31.5466 10.2255 31.6407C9.7527 31.7347 9.2626 31.6864 8.81721 31.502C8.37181 31.3175 7.99113 31.005 7.72329 30.6042C7.45546 30.2034 7.3125 29.7321 7.3125 29.25C7.3125 28.6035 7.56931 27.9835 8.02643 27.5264C8.48355 27.0693 9.10353 26.8125 9.75 26.8125ZM33.6497 18.2812H29.25V13.4062H32.0288L33.6497 18.2812ZM30.4688 31.6875C29.9867 31.6875 29.5154 31.5445 29.1145 31.2767C28.7137 31.0089 28.4013 30.6282 28.2168 30.1828C28.0323 29.7374 27.984 29.2473 28.0781 28.7745C28.1721 28.3016 28.4043 27.8673 28.7452 27.5264C29.0861 27.1855 29.5204 26.9534 29.9932 26.8593C30.466 26.7653 30.9561 26.8136 31.4015 26.998C31.8469 27.1825 32.2276 27.495 32.4955 27.8958C32.7633 28.2966 32.9062 28.7679 32.9062 29.25C32.9062 29.8965 32.6494 30.5165 32.1923 30.9736C31.7352 31.4307 31.1152 31.6875 30.4688 31.6875ZM36.5625 28.0312H35.1731C34.8925 26.9985 34.2798 26.0868 33.4296 25.4369C32.5794 24.7869 31.5389 24.4347 30.4688 24.4347C29.3986 24.4347 28.3581 24.7869 27.5079 25.4369C26.6577 26.0868 26.045 26.9985 25.7644 28.0312H24.375V13.4062H26.8125V19.5C26.8125 19.8232 26.9409 20.1332 27.1695 20.3618C27.398 20.5903 27.708 20.7188 28.0312 20.7188H34.8441L36.5625 22.4372V28.0312Z" fill="#004661"/>
</g>
<defs>
<clipPath id="clip0_432_330">
<rect width="39" height="39" fill="white"/>
</clipPath>
</defs>
</svg>
