<svg width="44" height="44" viewBox="0 0 44 44" fill="none" xmlns="http://www.w3.org/2000/svg">
<g id="worldLogo">
<rect x="0.5" y="0.5" width="43" height="43" rx="2.5" fill="#C8E9F9" fill-opacity="0.71"/>
<rect x="0.5" y="0.5" width="43" height="43" rx="2.5" stroke="#004661"/>
<g id="Group">
<path id="pin" d="M35.9846 4.0083C36.1241 4.0083 36.2635 4.0083 36.403 4.0083C36.6049 4.21008 36.8062 4.4124 37.0088 4.61364C37.571 5.17209 38.1335 5.73012 38.6961 6.28825C38.876 6.51733 39.08 6.72221 39.3061 6.90472C39.8997 7.5137 40.4966 8.11968 41.0857 8.73305C41.4083 9.06906 41.4054 9.3431 41.0867 9.67622C40.8285 9.94587 40.5627 10.2079 40.2999 10.4731C39.8184 10.9587 39.7051 10.9693 39.1476 10.5785C38.8583 10.9586 38.6013 11.3712 38.2717 11.7119C37.7737 12.2265 37.7089 12.861 37.6607 13.5151C37.5731 14.0558 37.4853 14.5963 37.3976 15.1369C37.3051 15.7246 37.1799 15.8534 36.6848 15.8702C36.3928 15.7797 36.2517 15.4945 36.0114 15.3374C35.4836 14.7951 34.9453 14.2627 34.4336 13.7053C34.2397 13.4941 34.1379 13.5291 33.9555 13.7149C32.3797 15.3204 30.7919 16.9141 29.2132 18.5166C29.0249 18.7078 28.8176 18.8211 28.5547 18.8682C28.0772 18.9537 27.6039 19.0626 27.1287 19.1618C26.7956 19.2301 26.5069 19.1742 26.3104 18.8621C26.2346 18.3713 26.4511 17.9205 26.4996 17.4473C26.5637 16.8179 26.8304 16.3281 27.2917 15.8781C28.7934 14.4131 30.2542 12.9054 31.7283 11.4117C31.819 11.3197 32.0071 11.2502 31.8106 11.0623C31.3145 10.5877 30.8318 10.0989 30.3437 9.61585C30.1623 9.38774 29.9598 9.18135 29.7325 8.99981C29.4201 8.42455 29.5647 8.11562 30.2095 7.98855C30.4362 7.94392 30.6647 7.9088 30.8923 7.86931C31.4298 7.80219 31.9677 7.7385 32.496 7.61229C32.8594 7.62824 33.1659 7.51392 33.4476 7.26921C33.8073 6.95664 34.189 6.66773 34.5785 6.39326C34.7796 6.25153 34.8367 6.1446 34.6506 5.94763C34.5341 5.82432 34.5195 5.65401 34.5661 5.48584L34.566 5.49023C34.9507 4.91048 35.4838 4.47512 35.9846 4.0083Z" fill="#004661"/>
<path id="Vector" d="M34.7333 16.4728C34.8936 16.7548 35.0538 17.037 35.2141 17.3191C35.6592 18.3298 36.0971 19.3431 36.3709 20.419C36.4194 20.6092 36.4755 20.7974 36.528 20.9866C36.5705 21.3661 36.6492 21.7384 36.7477 22.1068C36.8017 22.9235 36.8991 23.7363 36.8972 24.5582C36.8952 25.4391 36.7744 26.3064 36.6819 27.1778C36.5442 27.7648 36.4065 28.352 36.2688 28.939C35.9031 29.9827 35.5188 31.0186 34.9748 31.9849C32.9414 35.5967 29.9719 38.0556 26.0636 39.3572C25.9985 39.3789 25.936 39.4095 25.8723 39.4359C25.2911 39.5755 24.7097 39.7151 24.1284 39.8547C23.1611 39.969 22.1956 40.0838 21.2169 40.0688C18.8984 40.0331 16.7022 39.5005 14.6199 38.4762C14.5377 38.4358 14.4504 38.4061 14.3655 38.3714C14.0858 38.2118 13.8063 38.0523 13.5266 37.8927C12.5659 37.2853 11.6635 36.5999 10.8217 35.8333C10.5636 35.5722 10.3056 35.3111 10.0476 35.0499C9.273 34.1553 8.57399 33.2049 7.97028 32.184C7.83003 31.9216 7.68989 31.6592 7.54964 31.3969C7.00286 30.2216 6.58922 28.9992 6.27586 27.741C6.18533 27.0718 6.06608 26.405 6.01 25.733C5.86816 24.0343 5.9977 22.3533 6.40933 20.697C6.42025 20.653 6.41272 20.6043 6.41378 20.5578C6.54671 20.2413 6.62611 19.9089 6.70053 19.5749C7.07282 18.6098 7.44947 17.6472 7.96827 16.7487C9.92303 13.3634 12.7191 11 16.3775 9.68215C16.475 9.64704 16.5694 9.60272 16.6651 9.56269C17.2695 9.40405 17.8739 9.24541 18.4783 9.08677C19.0755 9.01473 19.6716 8.93337 20.2699 8.87279C21.3716 8.76114 22.4692 8.87118 23.5668 8.95425C23.9373 9.03517 24.3054 9.12852 24.6851 9.15678C25.9318 9.47052 27.141 9.89175 28.3069 10.4383C28.5531 10.6074 28.8151 10.7469 29.0892 10.8638C29.3797 11.0508 29.6687 11.2403 29.9614 11.4238C30.0947 11.5073 30.1344 11.5676 29.9936 11.7017C29.6245 12.053 29.27 12.4201 28.9174 12.7885C28.8107 12.8999 28.7274 12.9131 28.5934 12.8293C28.3311 12.6651 28.0803 12.4769 27.7828 12.3762C27.3014 12.0791 26.7972 11.8365 26.1636 11.6447C26.5734 12.1359 26.8169 12.613 27.1133 13.055C27.2565 13.3468 27.3976 13.6398 27.5442 13.9299C27.5953 14.031 27.6164 14.1054 27.5176 14.2031C27.0791 14.6372 26.6506 15.0814 26.1944 15.5465C25.989 15.1315 25.8013 14.7522 25.6135 14.373C25.4695 14.0676 25.3338 13.7574 25.1144 13.4956C25.0181 13.338 24.9322 13.1725 24.8239 13.0237C24.2241 12.1997 23.5667 11.4395 22.5974 11.0368C22.2675 10.8672 21.9222 10.7606 21.5472 10.7754C20.5449 10.7085 19.7569 11.1806 19.0609 11.8292C17.9126 12.8993 17.1895 14.2516 16.6272 15.7024C16.4294 16.2726 16.2315 16.8426 16.0214 17.4483C16.2515 17.4103 16.4191 17.3826 16.5866 17.355C16.8625 17.3196 17.1385 17.2852 17.4142 17.2484C18.8781 17.0524 20.351 17.0162 21.8247 16.9947C22.2657 17.0633 22.7094 17.0375 23.1523 17.0328C23.8439 17.099 24.535 17.1716 25.2275 17.2272C25.4311 17.2436 25.4658 17.3035 25.4238 17.5064C25.3141 18.0369 25.1297 18.5656 25.3174 19.1587C23.8801 19.0294 22.4746 18.8852 21.0608 18.9482C20.595 18.9405 20.1281 18.902 19.6661 18.9998C18.3522 19.0153 17.0603 19.2261 15.7695 19.447C15.6402 19.4692 15.5557 19.5094 15.5267 19.6779C15.3039 20.9712 15.1647 22.2718 15.1421 23.5846C15.1423 24.0313 15.1426 24.478 15.1428 24.9247C15.123 26.368 15.2911 27.7934 15.5262 29.214C15.5618 29.4289 15.6596 29.4552 15.829 29.4265C16.192 29.5471 16.5699 29.5864 16.9459 29.6354C18.4693 29.8788 20.0028 29.9734 21.5443 29.9531C22.0106 29.9418 22.4771 29.9305 22.9435 29.919C24.3602 29.8813 25.7592 29.6886 27.1519 29.4359C27.2904 29.4108 27.315 29.3257 27.3311 29.2192C27.5366 27.8649 27.7241 26.509 27.6952 25.1332C27.7516 24.6871 27.7656 24.241 27.6923 23.7951C27.7309 22.6569 27.6076 21.5299 27.4323 20.4097C27.388 20.1265 27.476 20.0416 27.7186 20.0044C28.0153 19.9589 28.3082 19.8872 28.6054 19.8459C29.2704 19.7533 29.7512 19.3553 30.1497 18.8598C30.4583 18.4759 30.7521 18.3753 31.2007 18.6288C31.5593 18.8313 31.9673 18.9445 32.3533 19.0975C32.5761 19.2508 32.8189 19.3642 33.0692 19.4626C33.4739 19.7088 33.8786 19.955 34.336 20.2334C34.1445 19.7262 34.0222 19.2662 33.7845 18.8522C33.6649 18.5357 33.5368 18.2236 33.336 17.9482C33.1519 17.4897 32.8534 17.0997 32.5955 16.6854C32.5429 16.6009 32.4592 16.5324 32.5753 16.4178C32.9981 16.0019 33.4107 15.5754 33.8469 15.1327C34.1569 15.6018 34.4451 16.0373 34.7333 16.4728ZM9.04212 29.9797C9.12204 30.2639 9.25678 30.5219 9.41335 30.7693C9.95632 31.8699 10.6419 32.8685 11.5003 33.7434C11.6717 33.9918 11.8923 34.1915 12.1216 34.3826C12.9707 35.2311 13.9218 35.9374 14.9909 36.4791C15.4923 36.8091 16.044 37.0274 16.6182 37.2221C16.2689 36.7581 16.0065 36.2472 15.6946 35.7678C15.1068 34.6218 14.64 33.4257 14.2439 32.2003C14.1503 31.8532 14.0566 31.5062 13.9631 31.159C13.9919 30.9638 13.8278 30.9645 13.7195 30.9351C12.6059 30.6326 11.5171 30.26 10.4653 29.7805C10.1392 29.6139 9.813 29.4474 9.48692 29.2808C9.1936 29.0899 8.90049 28.8991 8.53349 28.6602C8.67819 29.1734 8.82226 29.5906 9.04212 29.9797ZM30.7621 20.5401C30.3166 20.3095 29.8422 20.1706 29.3296 20.0324C29.3943 20.6182 29.4531 21.1508 29.5118 21.6834C29.5933 22.1271 29.5225 22.5842 29.629 23.0256C29.6308 23.5976 29.6303 24.1695 29.6351 24.7413C29.6449 25.8868 29.5176 27.0239 29.4311 28.1634C29.3523 28.3903 29.3346 28.6212 29.3632 28.877C29.8732 28.6991 30.3696 28.5676 30.8326 28.3401C32.1456 27.8184 33.383 27.1705 34.3167 26.0653C34.7755 25.5222 35.0988 24.9096 34.936 24.1497C34.9142 23.773 34.7693 23.4473 34.5348 23.1584C34.504 23.0968 34.4831 23.0271 34.4411 22.9748C33.7131 22.0716 32.7876 21.4395 31.7407 20.975C31.4371 20.7783 31.1075 20.6412 30.7621 20.5401ZM11.8712 28.2695C12.3923 28.5357 12.948 28.7004 13.5273 28.8822C13.4519 28.2168 13.3811 27.5921 13.3103 26.9675C13.2848 26.544 13.2595 26.1205 13.2341 25.6971C13.2288 25.1833 13.2171 24.6694 13.2193 24.1556C13.2246 22.9285 13.329 21.7075 13.4545 20.488C13.4901 20.3434 13.55 20.2016 13.5026 20.0253C12.8896 20.2145 12.283 20.4022 11.7135 20.6952C10.4857 21.1885 9.35844 21.8397 8.49629 22.8757C8.09494 23.3579 7.81795 23.9068 7.88622 24.5716C7.8894 24.9365 7.99657 25.2673 8.20646 25.5641C8.27463 25.6844 8.32837 25.8165 8.41318 25.9233C9.12819 26.8228 10.0513 27.4406 11.0801 27.9126C11.3296 28.0636 11.5868 28.1974 11.8712 28.2695ZM19.5242 31.8402C18.3639 31.7863 17.2134 31.6284 16.0381 31.4579C16.3585 32.4627 16.6472 33.4204 17.118 34.308C17.2675 34.629 17.4262 34.9449 17.6266 35.2374C17.7613 35.453 17.8842 35.6774 18.033 35.8827C18.5885 36.6492 19.1984 37.3588 20.0753 37.7724C20.3993 37.9715 20.7446 38.0993 21.1296 38.0944C21.952 38.2414 22.6634 37.9466 23.2952 37.4686C24.8576 36.2864 25.7113 34.6165 26.3554 32.812C26.4289 32.604 26.5064 32.3973 26.5753 32.1877C26.8242 31.4313 26.8232 31.431 26.0207 31.5781C25.5026 31.6365 24.9846 31.6973 24.466 31.7527C23.2413 31.8835 22.0116 31.893 20.7821 31.9052C20.3627 31.8837 19.9434 31.862 19.5242 31.8402ZM26.3184 37.2068C26.7234 37.076 27.1108 36.9054 27.4757 36.684C27.5187 36.6708 27.565 36.6638 27.6044 36.6432C29.2175 35.7979 30.6212 34.6841 31.7891 33.2772C32.481 32.4438 33.1037 31.5606 33.54 30.5575C33.881 29.974 34.1067 29.3434 34.3216 28.6786C33.8824 28.9385 33.4824 29.1912 33.0683 29.4174C31.8519 30.0814 30.5603 30.5537 29.2245 30.9009C28.974 30.9661 28.8675 31.0922 28.8132 31.332C28.6115 32.2209 28.3178 33.0803 27.991 33.9302C27.5489 35.0797 26.9524 36.1433 26.2794 37.1669C26.2475 37.1756 26.2145 37.1882 26.2402 37.2274C26.2452 37.2349 26.2914 37.2144 26.3184 37.2068ZM9.55084 17.881C9.10031 18.5981 8.81219 19.3868 8.50668 20.2494C8.75865 20.0891 8.9483 19.9636 9.1425 19.8457C10.5395 18.9985 12.0422 18.4095 13.615 17.9977C13.855 17.9349 13.9682 17.8229 14.0308 17.5698C14.4242 15.9805 14.9767 14.4496 15.7783 13.0201C16.0301 12.5712 16.3194 12.1437 16.6332 11.6395C15.996 11.8927 15.4317 12.1151 14.9219 12.4571C13.9442 12.937 13.0902 13.5973 12.2935 14.3321C11.1821 15.357 10.2352 16.517 9.55084 17.881Z" fill="#004661"/>
</g>
</g>
</svg>
